%TF.GenerationSoftware,Altium Limited,Altium Designer,20.0.13 (296)*%
G04 Layer_Color=0*
%FSLAX25Y25*%
%MOIN*%
%TF.FileFunction,Plated,1,2,PTH,Drill*%
%TF.Part,Single*%
G01*
G75*
%TA.AperFunction,OtherDrill,Pad Free-2 (385mil,1010mil)*%
%ADD138C,0.01575*%
%TA.AperFunction,OtherDrill,Pad Free-5 (580mil,310mil)*%
%ADD139C,0.01575*%
%TA.AperFunction,OtherDrill,Pad Free-4 (1085mil,125mil)*%
%ADD140C,0.01575*%
%TA.AperFunction,OtherDrill,Pad Free-3 (1064.528mil,105mil)*%
%ADD141C,0.01575*%
%TA.AperFunction,ComponentDrill*%
%ADD142C,0.03543*%
%ADD143C,0.01968*%
%ADD144O,0.03937X0.01575*%
%TA.AperFunction,ViaDrill,NotFilled*%
%ADD145C,0.01575*%
%ADD146C,0.01181*%
%ADD147C,0.01200*%
%ADD148C,0.01968*%
%ADD149C,0.03150*%
%ADD150C,0.06693*%
D138*
X38500Y101000D02*
D03*
D139*
X58000Y31000D02*
D03*
D140*
X108500Y12500D02*
D03*
D141*
X106453Y10500D02*
D03*
D142*
X28500Y101000D02*
D03*
Y111000D02*
D03*
Y121000D02*
D03*
Y131000D02*
D03*
D143*
X15606Y28453D02*
D03*
Y47547D02*
D03*
D144*
X5173Y23728D02*
D03*
Y52272D02*
D03*
D145*
X81500Y114000D02*
D03*
X61000Y54500D02*
D03*
D146*
X81500Y104500D02*
D03*
X105000Y89000D02*
D03*
X119500Y98500D02*
D03*
Y117500D02*
D03*
X105000Y128000D02*
D03*
X48500Y101500D02*
D03*
X71500Y54500D02*
D03*
X77500Y64000D02*
D03*
X68187Y109273D02*
D03*
X67500Y106500D02*
D03*
X69500Y95000D02*
D03*
X47000Y99000D02*
D03*
X67000Y73500D02*
D03*
X94000Y87000D02*
D03*
X84372Y95500D02*
D03*
X84824Y98176D02*
D03*
X56500Y85000D02*
D03*
X65807Y85307D02*
D03*
X62000Y87500D02*
D03*
X73000Y86000D02*
D03*
X44000Y101500D02*
D03*
X76122Y83500D02*
D03*
X63000Y78500D02*
D03*
X59500Y77500D02*
D03*
X59901Y73901D02*
D03*
X41500Y61500D02*
D03*
X65500Y77000D02*
D03*
X41000Y73000D02*
D03*
X75000Y89000D02*
D03*
X60500Y129000D02*
D03*
X39144Y90644D02*
D03*
X48421Y51521D02*
D03*
X57500Y62500D02*
D03*
X81500Y63000D02*
D03*
X80000Y71000D02*
D03*
X73500Y63973D02*
D03*
X65000Y59000D02*
D03*
X75500Y66500D02*
D03*
X77344Y57500D02*
D03*
X27500Y73500D02*
D03*
X22500Y90000D02*
D03*
X12500Y95000D02*
D03*
X23500Y85000D02*
D03*
D147*
X102000Y49000D02*
D03*
X91000Y36000D02*
D03*
Y38500D02*
D03*
X10500Y78500D02*
D03*
X5500Y84500D02*
D03*
X31000Y39500D02*
D03*
X26000Y93000D02*
D03*
X21500Y80500D02*
D03*
X22000Y77500D02*
D03*
X26000Y80000D02*
D03*
X23500Y11500D02*
D03*
X34000Y82500D02*
D03*
X51000Y29500D02*
D03*
X19000Y54000D02*
D03*
Y51500D02*
D03*
X27000Y53500D02*
D03*
X38000Y25000D02*
D03*
D148*
X33500Y61000D02*
D03*
D149*
X10500Y105000D02*
D03*
Y114000D02*
D03*
Y122500D02*
D03*
Y131000D02*
D03*
D150*
X92283Y96189D02*
D03*
Y119811D02*
D03*
%TF.MD5,8c01624a6ca5851dd32fd36a2bde677b*%
M02*
