%TF.GenerationSoftware,Altium Limited,Altium Designer,20.0.13 (296)*%
G04 Layer_Physical_Order=2*
G04 Layer_Color=16711680*
%FSLAX25Y25*%
%MOIN*%
%TF.FileFunction,Copper,L2,Bot,Signal*%
%TF.Part,Single*%
G01*
G75*
%TA.AperFunction,SMDPad,CuDef*%
%ADD10R,0.03150X0.02756*%
%ADD12R,0.02756X0.03150*%
%ADD25R,0.03740X0.03543*%
%ADD26R,0.03740X0.03543*%
%TA.AperFunction,Conductor*%
%ADD34C,0.00787*%
%ADD35C,0.00600*%
%ADD36C,0.01000*%
%TA.AperFunction,ViaPad*%
%ADD39C,0.02362*%
%TA.AperFunction,ComponentPad*%
%ADD40R,0.05906X0.05906*%
%ADD41C,0.05906*%
%ADD42C,0.03937*%
%ADD43R,0.05906X0.03150*%
%ADD44O,0.07874X0.04724*%
%TA.AperFunction,ViaPad*%
%ADD45C,0.01968*%
%ADD46C,0.01575*%
%ADD47C,0.02400*%
%ADD48C,0.03150*%
%ADD49C,0.06693*%
%TA.AperFunction,Conductor*%
%ADD50C,0.01181*%
%TA.AperFunction,SMDPad,CuDef*%
%ADD51R,0.03150X0.05906*%
%ADD52R,0.03937X0.02362*%
%TA.AperFunction,ConnectorPad*%
%ADD53R,0.03150X0.02756*%
%TA.AperFunction,SMDPad,CuDef*%
%ADD54R,0.05906X0.05906*%
%ADD55C,0.07874*%
%TA.AperFunction,ConnectorPad*%
%ADD56R,0.05118X0.04724*%
%ADD57R,0.04724X0.05118*%
G04:AMPARAMS|DCode=58|XSize=33.47mil|YSize=47.24mil|CornerRadius=0mil|HoleSize=0mil|Usage=FLASHONLY|Rotation=45.000|XOffset=0mil|YOffset=0mil|HoleType=Round|Shape=Rectangle|*
%AMROTATEDRECTD58*
4,1,4,0.00487,-0.02854,-0.02854,0.00487,-0.00487,0.02854,0.02854,-0.00487,0.00487,-0.02854,0.0*
%
%ADD58ROTATEDRECTD58*%

G04:AMPARAMS|DCode=59|XSize=33.47mil|YSize=47.24mil|CornerRadius=0mil|HoleSize=0mil|Usage=FLASHONLY|Rotation=315.000|XOffset=0mil|YOffset=0mil|HoleType=Round|Shape=Rectangle|*
%AMROTATEDRECTD59*
4,1,4,-0.02854,-0.00487,0.00487,0.02854,0.02854,0.00487,-0.00487,-0.02854,-0.02854,-0.00487,0.0*
%
%ADD59ROTATEDRECTD59*%

%TA.AperFunction,SMDPad,CuDef*%
%ADD60R,0.07087X0.02756*%
%ADD61R,0.05512X0.04724*%
%ADD62R,0.08661X0.08000*%
%ADD63R,0.05512X0.06299*%
%TA.AperFunction,ConnectorPad*%
%ADD64R,0.05906X0.01575*%
%TA.AperFunction,SMDPad,CuDef*%
%ADD65R,0.01260X0.03937*%
%TA.AperFunction,Conductor*%
%ADD66C,0.00984*%
%ADD67R,0.03000X0.13500*%
%ADD68R,0.02000X0.04500*%
%ADD69R,0.02000X0.02000*%
G36*
X62561Y142547D02*
X62591Y142462D01*
X62642Y142387D01*
X62713Y142322D01*
X62804Y142267D01*
X62915Y142222D01*
X63047Y142187D01*
X63181Y142165D01*
X63286Y142174D01*
X63416Y142199D01*
X63526Y142231D01*
X63616Y142271D01*
X63686Y142317D01*
X63736Y142371D01*
X63766Y142432D01*
X63776Y142500D01*
X63788Y140642D01*
X63777Y140737D01*
X63746Y140822D01*
X63695Y140897D01*
X63624Y140962D01*
X63533Y141017D01*
X63422Y141062D01*
X63291Y141097D01*
X63169Y141117D01*
X63047Y141097D01*
X62915Y141062D01*
X62804Y141017D01*
X62713Y140962D01*
X62642Y140897D01*
X62591Y140822D01*
X62561Y140737D01*
X62551Y140642D01*
Y142642D01*
X62561Y142547D01*
D02*
G37*
G36*
X120000Y143878D02*
X121147Y143765D01*
X122249Y143431D01*
X123266Y142888D01*
X124157Y142157D01*
X124888Y141266D01*
X125431Y140250D01*
X125765Y139147D01*
X125878Y138000D01*
X125878D01*
Y8000D01*
X125878Y8000D01*
X125878D01*
X125835Y7510D01*
X125751Y6657D01*
X125359Y5366D01*
X124723Y4176D01*
X123867Y3133D01*
X122824Y2277D01*
X121634Y1641D01*
X120343Y1249D01*
X119016Y1118D01*
X119000Y1122D01*
X8000D01*
X7984Y1118D01*
X6657Y1249D01*
X5366Y1641D01*
X4176Y2277D01*
X3133Y3133D01*
X2277Y4176D01*
X1641Y5366D01*
X1249Y6657D01*
X1118Y7984D01*
X1122Y8000D01*
Y62927D01*
X1584Y63119D01*
X2879Y61824D01*
X3176Y61625D01*
X3373Y61585D01*
X3513Y61523D01*
X3518Y61523D01*
Y58920D01*
X10624D01*
Y66025D01*
X3518D01*
Y64433D01*
X3056Y64241D01*
X2418Y64880D01*
Y95620D01*
X5380Y98582D01*
X15620D01*
X22315Y91887D01*
X22150Y91345D01*
X21959Y91307D01*
X21500Y91000D01*
X21193Y90541D01*
X21085Y90000D01*
X21193Y89459D01*
X21500Y89000D01*
X21959Y88693D01*
X22396Y88606D01*
Y85845D01*
X22193Y85541D01*
X22085Y85000D01*
X22193Y84459D01*
X22418Y84122D01*
X22266Y83708D01*
X22197Y83622D01*
X22000D01*
X22000Y83622D01*
X21571Y83536D01*
X21207Y83293D01*
X21207Y83293D01*
X20707Y82793D01*
X20464Y82429D01*
X20418Y82197D01*
X19918Y82246D01*
Y88500D01*
X19848Y88851D01*
X19649Y89149D01*
X13895Y94902D01*
X13915Y95000D01*
X13807Y95541D01*
X13500Y96000D01*
X13041Y96307D01*
X12500Y96415D01*
X11959Y96307D01*
X11500Y96000D01*
X11193Y95541D01*
X11085Y95000D01*
X11193Y94459D01*
X11500Y94000D01*
X11959Y93693D01*
X12500Y93585D01*
X12597Y93605D01*
X18082Y88120D01*
Y86431D01*
X16500D01*
Y84453D01*
Y82475D01*
X18082D01*
Y80525D01*
X13825D01*
Y79342D01*
X12102D01*
X11798Y79798D01*
X11202Y80196D01*
X10624Y80311D01*
Y81773D01*
X3518D01*
Y74668D01*
X10624D01*
Y76689D01*
X11202Y76804D01*
X11643Y77099D01*
X13825D01*
Y76569D01*
X18175D01*
X18351Y76351D01*
X19951Y74751D01*
X20249Y74552D01*
X20600Y74482D01*
X22870D01*
X23221Y74552D01*
X23519Y74751D01*
X23850Y75082D01*
X57423D01*
X58506Y73999D01*
X58487Y73901D01*
X58595Y73360D01*
X58901Y72901D01*
X59360Y72595D01*
X59552Y72557D01*
X59716Y72014D01*
X56463Y68761D01*
X47843D01*
X47492Y68691D01*
X47194Y68492D01*
X41598Y62895D01*
X41500Y62915D01*
X40959Y62807D01*
X40500Y62500D01*
X40193Y62041D01*
X40085Y61500D01*
X40193Y60959D01*
X40500Y60500D01*
X40959Y60193D01*
X41500Y60085D01*
X42041Y60193D01*
X42500Y60500D01*
X42807Y60959D01*
X42915Y61500D01*
X42895Y61598D01*
X48223Y66926D01*
X56843D01*
X57194Y66996D01*
X57492Y67194D01*
X63120Y72823D01*
X63582Y72631D01*
Y69699D01*
X63551Y69628D01*
X63551Y69624D01*
X62357D01*
Y65793D01*
X62357Y65668D01*
Y65293D01*
X62357Y65168D01*
Y61462D01*
X62357Y61337D01*
Y60962D01*
X62357Y60837D01*
Y57131D01*
X62357Y57006D01*
Y56631D01*
X62357Y56506D01*
Y56100D01*
X61857Y55833D01*
X61618Y55992D01*
X61000Y56115D01*
X60382Y55992D01*
X59858Y55642D01*
X59508Y55118D01*
X59502Y55088D01*
X56207Y51793D01*
X55964Y51429D01*
X55878Y51000D01*
X55878Y51000D01*
Y47931D01*
X54825D01*
Y45561D01*
X53207Y43943D01*
X52964Y43579D01*
X52878Y43150D01*
X52878Y43150D01*
Y30829D01*
X52378Y30677D01*
X52298Y30798D01*
X51918Y31052D01*
Y54120D01*
X57962Y60165D01*
X58161Y60462D01*
X58231Y60813D01*
Y61320D01*
X58500Y61500D01*
X58807Y61959D01*
X58915Y62500D01*
X58807Y63041D01*
X58500Y63500D01*
X58041Y63807D01*
X57500Y63915D01*
X56959Y63807D01*
X56500Y63500D01*
X56193Y63041D01*
X56085Y62500D01*
X56193Y61959D01*
X56396Y61655D01*
Y61194D01*
X50351Y55149D01*
X50152Y54851D01*
X50082Y54500D01*
Y31052D01*
X49702Y30798D01*
X49304Y30202D01*
X49165Y29500D01*
X49304Y28798D01*
X49702Y28202D01*
X50298Y27804D01*
X51000Y27665D01*
X51702Y27804D01*
X52298Y28202D01*
X52378Y28323D01*
X52878Y28171D01*
Y25622D01*
X48965D01*
X39622Y34965D01*
Y49000D01*
X39622Y49000D01*
X39536Y49429D01*
X39293Y49793D01*
X39293Y49793D01*
X34830Y54256D01*
X34466Y54499D01*
X34037Y54585D01*
X34037Y54584D01*
X28440D01*
X28298Y54798D01*
X27702Y55196D01*
X27000Y55335D01*
X26298Y55196D01*
X25702Y54798D01*
X25304Y54202D01*
X25165Y53500D01*
X25304Y52798D01*
X25702Y52202D01*
X26298Y51804D01*
X27000Y51665D01*
X27702Y51804D01*
X28298Y52202D01*
X28391Y52341D01*
X33572D01*
X37378Y48535D01*
Y34965D01*
X35535Y33122D01*
X27500D01*
X27071Y33036D01*
X26789Y33102D01*
X25891Y34659D01*
X26090Y34792D01*
X29117Y37820D01*
X29316Y38117D01*
X29386Y38469D01*
Y43356D01*
X29418Y43427D01*
X29418Y43431D01*
X29937D01*
Y46000D01*
Y48568D01*
X25270D01*
Y44154D01*
X25254Y44125D01*
X25265Y44089D01*
X25251Y44056D01*
X25270Y44008D01*
Y43431D01*
X25551D01*
X25551Y43427D01*
X25582Y43356D01*
Y39880D01*
X24620Y38918D01*
X20219D01*
X20148Y38949D01*
X20143Y38949D01*
Y41946D01*
X20143D01*
Y42618D01*
X16590D01*
X13038D01*
Y41731D01*
X13038D01*
Y39172D01*
Y36613D01*
Y34054D01*
Y31495D01*
X19370D01*
X19409Y31469D01*
X19472Y31482D01*
X19531Y31457D01*
X19622Y31495D01*
X20143D01*
Y31495D01*
X20448Y31544D01*
X20878Y31177D01*
Y27965D01*
X16207Y23293D01*
X15964Y22929D01*
X15878Y22500D01*
X15879Y22500D01*
Y12500D01*
X15878Y12500D01*
X15964Y12071D01*
X16207Y11707D01*
X19707Y8207D01*
X19707Y8207D01*
X20071Y7964D01*
X20500Y7878D01*
X20500Y7878D01*
X84480D01*
X84480Y7878D01*
X84909Y7964D01*
X85273Y8207D01*
X91793Y14727D01*
X91793Y14727D01*
X92036Y15091D01*
X92122Y15520D01*
X92122Y15520D01*
Y34401D01*
X92459Y34541D01*
X92649Y35000D01*
Y35229D01*
X92696Y35298D01*
X92835Y36000D01*
X92696Y36702D01*
X92649Y36771D01*
Y37729D01*
X92696Y37798D01*
X92835Y38500D01*
X92696Y39202D01*
X92649Y39271D01*
Y39500D01*
X92459Y39959D01*
X92000Y40149D01*
X91771D01*
X91702Y40196D01*
X91000Y40335D01*
X90915Y40318D01*
X90526Y40632D01*
X90500Y42000D01*
X90711Y42413D01*
X96380Y48082D01*
X100448D01*
X100702Y47702D01*
X101298Y47304D01*
X102000Y47165D01*
X102702Y47304D01*
X103298Y47702D01*
X103696Y48298D01*
X103835Y49000D01*
X103696Y49702D01*
X103298Y50298D01*
X102702Y50696D01*
X102000Y50835D01*
X101298Y50696D01*
X100702Y50298D01*
X100448Y49918D01*
X96000D01*
X95649Y49848D01*
X95351Y49649D01*
X85559Y39857D01*
X85360Y39559D01*
X85291Y39208D01*
Y18588D01*
X78420Y11718D01*
X72324D01*
Y14390D01*
X68968D01*
X65613D01*
Y11718D01*
X56169D01*
X55977Y12180D01*
X82149Y38351D01*
X82348Y38649D01*
X82418Y39000D01*
Y61945D01*
X82500Y62000D01*
X82807Y62459D01*
X82915Y63000D01*
X82807Y63541D01*
X82500Y64000D01*
X82041Y64307D01*
X81500Y64415D01*
X81018Y64319D01*
X80849Y64366D01*
X80518Y64543D01*
Y69688D01*
X80541Y69693D01*
X81000Y70000D01*
X81307Y70459D01*
X81415Y71000D01*
X81307Y71541D01*
X81000Y72000D01*
X80541Y72307D01*
X80000Y72415D01*
X79459Y72307D01*
X79000Y72000D01*
X78693Y71541D01*
X78585Y71000D01*
X78682Y70513D01*
Y58830D01*
X78675Y58823D01*
X78182Y58609D01*
X77886Y58807D01*
X77344Y58915D01*
X76818Y58810D01*
X76802Y58807D01*
X76318Y59084D01*
Y65378D01*
X76500Y65500D01*
X76807Y65959D01*
X76915Y66500D01*
X76807Y67041D01*
X76500Y67500D01*
X76041Y67807D01*
X75500Y67915D01*
X74959Y67807D01*
X74500Y67500D01*
X74193Y67041D01*
X74085Y66500D01*
X74193Y65959D01*
X74325Y65761D01*
X74060Y65313D01*
X73982Y65291D01*
X73500Y65387D01*
X72959Y65279D01*
X72500Y64973D01*
X72193Y64514D01*
X72085Y63973D01*
X72193Y63431D01*
X72500Y62972D01*
X72582Y62917D01*
Y53380D01*
X71105Y51903D01*
X70997Y51948D01*
X70643Y52301D01*
Y52676D01*
X70643D01*
Y54154D01*
X66500D01*
Y55154D01*
X70643D01*
Y56506D01*
X70643Y56631D01*
Y57006D01*
X70643Y57131D01*
Y60837D01*
X70643Y60962D01*
Y61337D01*
X70643Y61462D01*
Y65168D01*
X70643Y65293D01*
Y65668D01*
X70643Y65793D01*
Y69624D01*
X71070Y69802D01*
X72324D01*
Y72264D01*
X68968D01*
Y72764D01*
X68468D01*
Y75726D01*
X66919D01*
X66651Y76226D01*
X66807Y76459D01*
X66915Y77000D01*
X66807Y77541D01*
X66500Y78000D01*
X66041Y78307D01*
X65500Y78415D01*
X64959Y78307D01*
X64875Y78251D01*
X64415Y78500D01*
X64307Y79041D01*
X64000Y79500D01*
X63541Y79807D01*
X63000Y79915D01*
X62459Y79807D01*
X62000Y79500D01*
X61693Y79041D01*
X61585Y78500D01*
X61693Y77959D01*
X62000Y77500D01*
X62082Y77444D01*
Y74444D01*
X61692Y74116D01*
X61247Y74251D01*
X61208Y74443D01*
X60902Y74902D01*
X60443Y75208D01*
X59901Y75316D01*
X59859Y75308D01*
X59562Y75569D01*
X59494Y75645D01*
X59685Y76122D01*
X60041Y76193D01*
X60500Y76500D01*
X60807Y76959D01*
X60915Y77500D01*
X60807Y78041D01*
X60500Y78500D01*
X60377Y78582D01*
X60384Y78817D01*
X60498Y79103D01*
X60743Y79152D01*
X61041Y79351D01*
X65619Y83930D01*
X65807Y83892D01*
X66348Y84000D01*
X66807Y84307D01*
X66960Y84535D01*
X67560Y84642D01*
X69351Y82851D01*
X69649Y82652D01*
X70000Y82582D01*
X75066D01*
X75121Y82500D01*
X75581Y82193D01*
X76122Y82085D01*
X76663Y82193D01*
X77122Y82500D01*
X77429Y82959D01*
X77536Y83500D01*
X85196Y83500D01*
X85519Y83500D01*
X85904Y83778D01*
X88240D01*
Y86740D01*
X88740D01*
Y87240D01*
X91899D01*
Y89096D01*
X92399Y89303D01*
X93082Y88620D01*
Y88055D01*
X93000Y88000D01*
X92693Y87541D01*
X92585Y87000D01*
X92693Y86459D01*
X93000Y86000D01*
X93459Y85693D01*
X94000Y85585D01*
X94541Y85693D01*
X95000Y86000D01*
X95307Y86459D01*
X95415Y87000D01*
X95307Y87541D01*
X95000Y88000D01*
X94918Y88055D01*
Y89000D01*
X94848Y89351D01*
X94649Y89649D01*
X92649Y91649D01*
X92520Y91735D01*
X92641Y92256D01*
X93314Y92344D01*
X94274Y92742D01*
X95098Y93374D01*
X95731Y94199D01*
X96128Y95159D01*
X96264Y96189D01*
X96128Y97219D01*
X95731Y98179D01*
X95098Y99004D01*
X94274Y99636D01*
X93314Y100034D01*
X92283Y100170D01*
X91253Y100034D01*
X90293Y99636D01*
X89469Y99004D01*
X88836Y98179D01*
X88439Y97219D01*
X88303Y96189D01*
X88439Y95159D01*
X88836Y94199D01*
X89469Y93374D01*
X90293Y92742D01*
X91076Y92418D01*
X90976Y91918D01*
X89252D01*
X85767Y95402D01*
X85786Y95500D01*
X85679Y96041D01*
X85519Y96281D01*
Y96971D01*
X85825Y97176D01*
X86131Y97634D01*
X86239Y98176D01*
X86131Y98717D01*
X85918Y99037D01*
Y115500D01*
X85848Y115851D01*
X85649Y116149D01*
X85519Y116279D01*
Y125823D01*
X85581Y126298D01*
X86019Y126298D01*
X88240D01*
Y128760D01*
X85581D01*
Y127974D01*
X85519Y127500D01*
X85081Y127500D01*
X71500D01*
Y89451D01*
X71038Y89260D01*
X64149Y96149D01*
X63851Y96348D01*
X63500Y96418D01*
X46380D01*
X43239Y99558D01*
X43269Y99760D01*
X43271Y99765D01*
X43820Y100121D01*
X44000Y100085D01*
X44541Y100193D01*
X45000Y100500D01*
X45307Y100959D01*
X45415Y101500D01*
X45307Y102041D01*
X45000Y102500D01*
X44918Y102556D01*
Y121487D01*
X45156Y121888D01*
X45418Y121888D01*
X47126D01*
Y124260D01*
Y126631D01*
X45418D01*
X45156Y126631D01*
X44918Y127033D01*
Y127832D01*
X46454Y129368D01*
X49351D01*
X49412Y129335D01*
X49451Y129346D01*
X49488Y129331D01*
X49577Y129368D01*
X50096D01*
X50325Y128975D01*
X54597Y128975D01*
X54825Y128569D01*
X54903Y128569D01*
X54903Y128569D01*
X57129D01*
X57135Y128508D01*
X57138Y128377D01*
X57168Y128310D01*
Y127866D01*
X57245Y127478D01*
X57465Y127150D01*
X66069Y118545D01*
Y115825D01*
X66996D01*
X67001Y115765D01*
X67004Y115633D01*
X67034Y115566D01*
Y114434D01*
X67004Y114367D01*
X67001Y114238D01*
X66995Y114175D01*
X66069D01*
Y109825D01*
X66373D01*
X66783Y109325D01*
X66773Y109273D01*
X66881Y108732D01*
X66918Y108675D01*
X66651Y108175D01*
X66069D01*
Y106500D01*
X68047D01*
X70025D01*
Y108175D01*
X69724D01*
X69456Y108675D01*
X69494Y108732D01*
X69602Y109273D01*
X69592Y109325D01*
X70002Y109825D01*
X70025D01*
Y114175D01*
X69099D01*
X69094Y114238D01*
X69090Y114367D01*
X69060Y114434D01*
Y115566D01*
X69090Y115633D01*
X69094Y115765D01*
X69099Y115825D01*
X70025D01*
Y120175D01*
X67305D01*
X66617Y120863D01*
X66808Y121325D01*
X67547D01*
Y123000D01*
X66069D01*
Y122064D01*
X65607Y121873D01*
X60381Y127099D01*
X60440Y127342D01*
X60585Y127602D01*
X61041Y127693D01*
X61500Y128000D01*
X61807Y128459D01*
X61915Y129000D01*
X61807Y129541D01*
X61500Y130000D01*
X61418Y130055D01*
Y133993D01*
X61449Y134064D01*
X61449Y134069D01*
X62247D01*
X63164Y133153D01*
Y130888D01*
X66912D01*
X67001Y130871D01*
X67089Y130888D01*
X68301D01*
Y131720D01*
X68305Y131720D01*
X68376Y131752D01*
X79624D01*
X79694Y131720D01*
X79699Y131720D01*
Y130888D01*
X84836D01*
Y134450D01*
X79699D01*
Y133619D01*
X79694Y133618D01*
X79624Y133587D01*
X68376D01*
X68305Y133618D01*
X68301Y133619D01*
Y134450D01*
X64461D01*
X63175Y135737D01*
Y138025D01*
X59175D01*
Y138431D01*
X54825D01*
Y134475D01*
X58825D01*
Y134069D01*
X59551D01*
X59551Y134064D01*
X59582Y133993D01*
Y132748D01*
X59175Y132525D01*
X54903Y132525D01*
X54675Y132931D01*
X54597Y132931D01*
X54597Y132931D01*
X50325D01*
X50096Y133336D01*
Y134112D01*
X45156D01*
Y130666D01*
X43351Y128861D01*
X43152Y128564D01*
X43082Y128213D01*
Y108400D01*
X42851Y108266D01*
X42582Y108215D01*
X37012Y113785D01*
X37204Y114247D01*
X40775D01*
Y121353D01*
X39722D01*
Y125628D01*
X40844D01*
Y130372D01*
X35904D01*
Y125628D01*
X37478D01*
Y121353D01*
X36425D01*
Y115026D01*
X35963Y114834D01*
X31597Y119200D01*
X31603Y119208D01*
X31961Y120073D01*
X32083Y121000D01*
X31961Y121927D01*
X31603Y122792D01*
X31034Y123534D01*
X30292Y124103D01*
X29427Y124461D01*
X28500Y124583D01*
X27573Y124461D01*
X26708Y124103D01*
X25966Y123534D01*
X25397Y122792D01*
X25039Y121927D01*
X24917Y121000D01*
X25039Y120073D01*
X25397Y119208D01*
X25966Y118466D01*
X26708Y117897D01*
X27573Y117539D01*
X28500Y117417D01*
X29427Y117539D01*
X30292Y117897D01*
X30300Y117903D01*
X41082Y107120D01*
Y105556D01*
X40785Y105179D01*
X40582Y105179D01*
X36435D01*
Y98569D01*
X35935Y98362D01*
X34918Y99380D01*
Y105500D01*
X34848Y105851D01*
X34649Y106149D01*
X31597Y109200D01*
X31603Y109208D01*
X31961Y110073D01*
X32083Y111000D01*
X31961Y111927D01*
X31603Y112792D01*
X31034Y113534D01*
X30292Y114103D01*
X29427Y114461D01*
X28500Y114583D01*
X27573Y114461D01*
X26708Y114103D01*
X25966Y113534D01*
X25397Y112792D01*
X25039Y111927D01*
X24917Y111000D01*
X25039Y110073D01*
X25397Y109208D01*
X25966Y108466D01*
X26708Y107897D01*
X27573Y107539D01*
X28500Y107417D01*
X29427Y107539D01*
X30292Y107897D01*
X30300Y107903D01*
X33082Y105120D01*
Y99000D01*
X33152Y98649D01*
X33351Y98351D01*
X36851Y94851D01*
X37149Y94652D01*
X37500Y94582D01*
X41886D01*
X44617Y91851D01*
X44915Y91652D01*
X45266Y91582D01*
X60620D01*
X62873Y89329D01*
X62768Y88727D01*
X62705Y88698D01*
X62541Y88807D01*
X62000Y88915D01*
X61459Y88807D01*
X61000Y88500D01*
X60944Y88418D01*
X46880D01*
X41649Y93649D01*
X41351Y93848D01*
X41000Y93918D01*
X27552D01*
X27298Y94298D01*
X26702Y94696D01*
X26000Y94835D01*
X25298Y94696D01*
X24702Y94298D01*
X24304Y93702D01*
X24221Y93284D01*
X23679Y93119D01*
X16649Y100149D01*
X16351Y100348D01*
X16000Y100418D01*
X5000D01*
X4649Y100348D01*
X4351Y100149D01*
X1584Y97381D01*
X1122Y97573D01*
Y138000D01*
X1122D01*
X1235Y139147D01*
X1569Y140250D01*
X2112Y141266D01*
X2843Y142157D01*
X3734Y142888D01*
X4750Y143431D01*
X5853Y143765D01*
X7000Y143878D01*
Y143878D01*
X58825D01*
Y142453D01*
X61000D01*
Y141953D01*
X61500D01*
Y139975D01*
X63164D01*
Y139550D01*
X65232D01*
Y141331D01*
Y143112D01*
X63175D01*
Y143878D01*
X120000D01*
Y143878D01*
D02*
G37*
G36*
X59437Y135447D02*
X59431Y135504D01*
X59413Y135555D01*
X59383Y135600D01*
X59341Y135639D01*
X59287Y135672D01*
X59221Y135699D01*
X59143Y135720D01*
X59053Y135735D01*
X58998Y135740D01*
X58943Y135735D01*
X58851Y135720D01*
X58771Y135699D01*
X58704Y135672D01*
X58649Y135639D01*
X58606Y135600D01*
X58575Y135555D01*
X58557Y135504D01*
X58551Y135447D01*
Y136647D01*
X58557Y136590D01*
X58575Y136539D01*
X58606Y136494D01*
X58649Y136455D01*
X58704Y136422D01*
X58771Y136395D01*
X58851Y136374D01*
X58943Y136359D01*
X58998Y136354D01*
X59053Y136359D01*
X59143Y136374D01*
X59221Y136395D01*
X59287Y136422D01*
X59341Y136455D01*
X59383Y136494D01*
X59413Y136539D01*
X59431Y136590D01*
X59437Y136647D01*
Y135447D01*
D02*
G37*
G36*
X61043Y134687D02*
X60992Y134669D01*
X60947Y134638D01*
X60908Y134595D01*
X60875Y134540D01*
X60848Y134473D01*
X60827Y134393D01*
X60812Y134302D01*
X60803Y134198D01*
X60800Y134081D01*
X60200D01*
X60197Y134198D01*
X60188Y134302D01*
X60173Y134393D01*
X60152Y134473D01*
X60125Y134540D01*
X60092Y134595D01*
X60053Y134638D01*
X60008Y134669D01*
X59957Y134687D01*
X59900Y134693D01*
X61100D01*
X61043Y134687D01*
D02*
G37*
G36*
X80323Y132069D02*
X80317Y132126D01*
X80299Y132177D01*
X80268Y132222D01*
X80225Y132261D01*
X80170Y132294D01*
X80103Y132321D01*
X80023Y132342D01*
X79931Y132357D01*
X79827Y132366D01*
X79711Y132369D01*
Y132969D01*
X79827Y132972D01*
X79931Y132981D01*
X80023Y132996D01*
X80103Y133017D01*
X80170Y133044D01*
X80225Y133077D01*
X80268Y133116D01*
X80299Y133161D01*
X80317Y133212D01*
X80323Y133269D01*
Y132069D01*
D02*
G37*
G36*
X67683Y133212D02*
X67701Y133161D01*
X67732Y133116D01*
X67775Y133077D01*
X67830Y133044D01*
X67897Y133017D01*
X67977Y132996D01*
X68068Y132981D01*
X68173Y132972D01*
X68289Y132969D01*
Y132369D01*
X68173Y132366D01*
X68068Y132357D01*
X67977Y132342D01*
X67897Y132321D01*
X67830Y132294D01*
X67775Y132261D01*
X67732Y132222D01*
X67701Y132177D01*
X67683Y132126D01*
X67677Y132069D01*
Y133269D01*
X67683Y133212D01*
D02*
G37*
G36*
X50949Y129953D02*
X50939Y130048D01*
X50909Y130133D01*
X50858Y130208D01*
X50787Y130273D01*
X50696Y130328D01*
X50585Y130373D01*
X50453Y130408D01*
X50301Y130433D01*
X50208Y130441D01*
X50124Y130434D01*
X49974Y130410D01*
X49844Y130377D01*
X49734Y130335D01*
X49644Y130283D01*
X49574Y130221D01*
X49524Y130150D01*
X49494Y130070D01*
X49484Y129981D01*
X49472Y131953D01*
X49483Y131858D01*
X49514Y131773D01*
X49564Y131698D01*
X49635Y131633D01*
X49727Y131578D01*
X49838Y131533D01*
X49969Y131498D01*
X50121Y131473D01*
X50211Y131465D01*
X50301Y131473D01*
X50453Y131498D01*
X50585Y131533D01*
X50696Y131578D01*
X50787Y131633D01*
X50858Y131698D01*
X50909Y131773D01*
X50939Y131858D01*
X50949Y131953D01*
Y129953D01*
D02*
G37*
G36*
X58563Y129181D02*
X58565Y129173D01*
X58567Y129150D01*
X58572Y128984D01*
X58575Y128394D01*
X57787D01*
X57784Y128545D01*
X57772Y128680D01*
X57752Y128800D01*
X57724Y128904D01*
X57689Y128991D01*
X57646Y129063D01*
X57595Y129120D01*
X57535Y129160D01*
X57468Y129185D01*
X57394Y129193D01*
X58563Y129181D01*
D02*
G37*
G36*
X77347Y122764D02*
X77337Y122857D01*
X77307Y122941D01*
X77257Y123015D01*
X77187Y123079D01*
X77098Y123133D01*
X76988Y123177D01*
X76859Y123212D01*
X76709Y123236D01*
X76540Y123251D01*
X76351Y123256D01*
Y124240D01*
X76540Y124245D01*
X76709Y124260D01*
X76859Y124284D01*
X76988Y124319D01*
X77098Y124363D01*
X77187Y124417D01*
X77257Y124481D01*
X77307Y124555D01*
X77337Y124639D01*
X77347Y124732D01*
Y122764D01*
D02*
G37*
G36*
X75317Y124639D02*
X75347Y124555D01*
X75396Y124481D01*
X75466Y124417D01*
X75556Y124363D01*
X75665Y124319D01*
X75795Y124284D01*
X75944Y124260D01*
X76114Y124245D01*
X76303Y124240D01*
Y123256D01*
X76114Y123251D01*
X75944Y123236D01*
X75795Y123212D01*
X75665Y123177D01*
X75556Y123133D01*
X75466Y123079D01*
X75396Y123015D01*
X75347Y122941D01*
X75317Y122857D01*
X75307Y122764D01*
Y124732D01*
X75317Y124639D01*
D02*
G37*
G36*
X74292Y123133D02*
X74284Y123096D01*
X74276Y123040D01*
X74265Y122871D01*
X74253Y122126D01*
X73653D01*
X73605Y123152D01*
X74301D01*
X74292Y123133D01*
D02*
G37*
G36*
X74496Y121943D02*
X74445Y121925D01*
X74400Y121894D01*
X74361Y121851D01*
X74328Y121796D01*
X74301Y121729D01*
X74280Y121649D01*
X74265Y121557D01*
X74256Y121453D01*
X74253Y121337D01*
X73653D01*
X73650Y121453D01*
X73641Y121557D01*
X73626Y121649D01*
X73605Y121729D01*
X73578Y121796D01*
X73545Y121851D01*
X73506Y121894D01*
X73461Y121925D01*
X73410Y121943D01*
X73353Y121949D01*
X74553D01*
X74496Y121943D01*
D02*
G37*
G36*
X74256Y120049D02*
X74265Y119947D01*
X74280Y119857D01*
X74301Y119779D01*
X74328Y119713D01*
X74361Y119659D01*
X74400Y119617D01*
X74445Y119587D01*
X74496Y119569D01*
X74553Y119563D01*
X73353D01*
X73410Y119569D01*
X73461Y119587D01*
X73506Y119617D01*
X73545Y119659D01*
X73578Y119713D01*
X73605Y119779D01*
X73626Y119857D01*
X73641Y119947D01*
X73650Y120049D01*
X73653Y120163D01*
X74253D01*
X74256Y120049D01*
D02*
G37*
G36*
X75313Y118394D02*
X75331Y118343D01*
X75362Y118298D01*
X75405Y118260D01*
X75460Y118227D01*
X75527Y118200D01*
X75607Y118178D01*
X75698Y118164D01*
X75802Y118155D01*
X75919Y118151D01*
Y117552D01*
X75802Y117549D01*
X75698Y117540D01*
X75607Y117525D01*
X75527Y117503D01*
X75460Y117476D01*
X75405Y117444D01*
X75362Y117404D01*
X75331Y117359D01*
X75313Y117308D01*
X75307Y117252D01*
Y118451D01*
X75313Y118394D01*
D02*
G37*
G36*
X68760Y116441D02*
X68693Y116417D01*
X68634Y116377D01*
X68583Y116321D01*
X68539Y116249D01*
X68504Y116161D01*
X68476Y116058D01*
X68457Y115938D01*
X68445Y115802D01*
X68441Y115650D01*
X67654D01*
X67650Y115802D01*
X67638Y115938D01*
X67618Y116058D01*
X67590Y116161D01*
X67555Y116249D01*
X67512Y116321D01*
X67461Y116377D01*
X67402Y116417D01*
X67335Y116441D01*
X67260Y116449D01*
X68835D01*
X68760Y116441D01*
D02*
G37*
G36*
X68445Y114201D02*
X68457Y114067D01*
X68476Y113949D01*
X68504Y113846D01*
X68539Y113760D01*
X68583Y113689D01*
X68634Y113634D01*
X68693Y113594D01*
X68760Y113571D01*
X68835Y113563D01*
X67260D01*
X67335Y113571D01*
X67402Y113594D01*
X67461Y113634D01*
X67512Y113689D01*
X67555Y113760D01*
X67590Y113846D01*
X67618Y113949D01*
X67638Y114067D01*
X67650Y114201D01*
X67654Y114350D01*
X68441D01*
X68445Y114201D01*
D02*
G37*
G36*
X74496Y110443D02*
X74445Y110425D01*
X74400Y110394D01*
X74361Y110351D01*
X74328Y110296D01*
X74301Y110229D01*
X74280Y110149D01*
X74265Y110057D01*
X74256Y109953D01*
X74253Y109837D01*
X73653D01*
X73650Y109953D01*
X73641Y110057D01*
X73626Y110149D01*
X73605Y110229D01*
X73578Y110296D01*
X73545Y110351D01*
X73506Y110394D01*
X73461Y110425D01*
X73410Y110443D01*
X73353Y110449D01*
X74553D01*
X74496Y110443D01*
D02*
G37*
G36*
X68900Y110441D02*
X68833Y110417D01*
X68774Y110377D01*
X68723Y110321D01*
X68680Y110249D01*
X68644Y110161D01*
X68619Y110067D01*
X68621Y110060D01*
X68638Y110004D01*
X68658Y109953D01*
X68682Y109908D01*
X68709Y109869D01*
X68739Y109835D01*
X68588D01*
X68585Y109802D01*
X68581Y109650D01*
X67794D01*
X67790Y109802D01*
X67787Y109835D01*
X67636D01*
X67666Y109869D01*
X67693Y109908D01*
X67717Y109953D01*
X67737Y110004D01*
X67754Y110060D01*
X67756Y110067D01*
X67731Y110161D01*
X67695Y110249D01*
X67652Y110321D01*
X67601Y110377D01*
X67542Y110417D01*
X67475Y110441D01*
X67400Y110449D01*
X68975D01*
X68900Y110441D01*
D02*
G37*
G36*
X74256Y108049D02*
X74265Y107947D01*
X74280Y107857D01*
X74301Y107779D01*
X74328Y107713D01*
X74361Y107659D01*
X74400Y107617D01*
X74445Y107587D01*
X74496Y107569D01*
X74553Y107563D01*
X73353D01*
X73410Y107569D01*
X73461Y107587D01*
X73506Y107617D01*
X73545Y107659D01*
X73578Y107713D01*
X73605Y107779D01*
X73626Y107857D01*
X73641Y107947D01*
X73650Y108049D01*
X73653Y108163D01*
X74253D01*
X74256Y108049D01*
D02*
G37*
G36*
X74301Y106348D02*
X73605D01*
X73614Y106367D01*
X73622Y106404D01*
X73629Y106460D01*
X73641Y106629D01*
X73653Y107374D01*
X74253D01*
X74301Y106348D01*
D02*
G37*
G36*
X74844Y104439D02*
X74760Y104409D01*
X74686Y104359D01*
X74622Y104290D01*
X74568Y104200D01*
X74524Y104091D01*
X74489Y103961D01*
X74465Y103812D01*
X74450Y103642D01*
X74445Y103453D01*
X73461D01*
X73456Y103642D01*
X73441Y103812D01*
X73416Y103961D01*
X73382Y104091D01*
X73338Y104200D01*
X73283Y104290D01*
X73220Y104359D01*
X73146Y104409D01*
X73062Y104439D01*
X72969Y104449D01*
X74937D01*
X74844Y104439D01*
D02*
G37*
G36*
X77538Y95299D02*
X77901Y94990D01*
X78061Y94878D01*
X78208Y94793D01*
X78340Y94736D01*
X78458Y94707D01*
X78562Y94706D01*
X78651Y94732D01*
X78727Y94787D01*
X77347Y93407D01*
X77401Y93483D01*
X77428Y93572D01*
X77427Y93676D01*
X77398Y93794D01*
X77341Y93926D01*
X77256Y94072D01*
X77144Y94233D01*
X77003Y94407D01*
X76639Y94799D01*
X77335Y95495D01*
X77538Y95299D01*
D02*
G37*
G36*
X77347Y90804D02*
X77337Y90906D01*
X77307Y90986D01*
X77257Y91045D01*
X77188Y91083D01*
X77098Y91099D01*
X76988Y91095D01*
X76859Y91069D01*
X76710Y91021D01*
X76540Y90952D01*
X76351Y90863D01*
X76249Y92279D01*
X76458Y92390D01*
X76809Y92616D01*
X76952Y92730D01*
X77072Y92845D01*
X77171Y92962D01*
X77248Y93079D01*
X77303Y93197D01*
X77336Y93316D01*
X77347Y93436D01*
Y90804D01*
D02*
G37*
G36*
X38582Y90093D02*
X38531Y90141D01*
X38478Y90183D01*
X38421Y90221D01*
X38361Y90254D01*
X38299Y90281D01*
X38234Y90304D01*
X38166Y90321D01*
X38095Y90334D01*
X38021Y90342D01*
X37944Y90344D01*
Y90944D01*
X38021Y90947D01*
X38095Y90954D01*
X38166Y90967D01*
X38234Y90984D01*
X38299Y91007D01*
X38361Y91035D01*
X38421Y91067D01*
X38478Y91105D01*
X38531Y91148D01*
X38582Y91195D01*
Y90093D01*
D02*
G37*
G36*
X23266Y89800D02*
X23269Y89767D01*
X23279Y89731D01*
X23295Y89692D01*
X23317Y89651D01*
X23346Y89606D01*
X23381Y89559D01*
X23471Y89455D01*
X23526Y89399D01*
X23101Y88974D01*
X23045Y89029D01*
X22941Y89119D01*
X22894Y89154D01*
X22849Y89183D01*
X22808Y89205D01*
X22769Y89221D01*
X22733Y89231D01*
X22700Y89234D01*
X22670Y89231D01*
X23269Y89830D01*
X23266Y89800D01*
D02*
G37*
G36*
X56492Y84213D02*
X56475Y84210D01*
X56453Y84200D01*
X56426Y84183D01*
X56393Y84160D01*
X56313Y84094D01*
X56211Y84001D01*
X56089Y83882D01*
X55382Y84589D01*
X55445Y84653D01*
X55683Y84926D01*
X55700Y84953D01*
X55709Y84975D01*
X55713Y84992D01*
X56492Y84213D01*
D02*
G37*
G36*
X34927Y83275D02*
X35002Y83218D01*
X35083Y83167D01*
X35170Y83122D01*
X35262Y83085D01*
X35360Y83054D01*
X35464Y83031D01*
X35574Y83014D01*
X35690Y83003D01*
X35811Y83000D01*
Y82000D01*
X35690Y81997D01*
X35574Y81986D01*
X35464Y81969D01*
X35360Y81946D01*
X35262Y81915D01*
X35170Y81878D01*
X35083Y81833D01*
X35002Y81782D01*
X34927Y81725D01*
X34857Y81660D01*
Y83340D01*
X34927Y83275D01*
D02*
G37*
G36*
X33143Y81660D02*
X33073Y81725D01*
X32998Y81782D01*
X32917Y81833D01*
X32830Y81878D01*
X32738Y81915D01*
X32640Y81946D01*
X32536Y81969D01*
X32426Y81986D01*
X32310Y81997D01*
X32189Y82000D01*
Y83000D01*
X32310Y83003D01*
X32426Y83014D01*
X32536Y83031D01*
X32640Y83054D01*
X32738Y83085D01*
X32830Y83122D01*
X32917Y83167D01*
X32998Y83218D01*
X33073Y83275D01*
X33143Y83340D01*
Y81660D01*
D02*
G37*
G36*
X26963Y80737D02*
X27171Y80565D01*
X27275Y80494D01*
X27378Y80435D01*
X27480Y80386D01*
X27582Y80349D01*
X27682Y80322D01*
X27782Y80305D01*
X27882Y80300D01*
Y79700D01*
X27782Y79695D01*
X27682Y79678D01*
X27582Y79651D01*
X27480Y79614D01*
X27378Y79565D01*
X27275Y79506D01*
X27171Y79435D01*
X27067Y79354D01*
X26963Y79263D01*
X26857Y79160D01*
Y80840D01*
X26963Y80737D01*
D02*
G37*
G36*
X10010Y79125D02*
X10040Y79040D01*
X10091Y78966D01*
X10161Y78900D01*
X10253Y78846D01*
X10364Y78800D01*
X10496Y78765D01*
X10647Y78741D01*
X10819Y78725D01*
X11012Y78720D01*
Y77720D01*
X10819Y77715D01*
X10647Y77701D01*
X10496Y77675D01*
X10364Y77640D01*
X10253Y77596D01*
X10161Y77540D01*
X10091Y77476D01*
X10040Y77400D01*
X10010Y77315D01*
X10000Y77220D01*
Y79220D01*
X10010Y79125D01*
D02*
G37*
G36*
X58938Y76949D02*
X58887Y76996D01*
X58833Y77039D01*
X58777Y77077D01*
X58717Y77110D01*
X58655Y77137D01*
X58590Y77160D01*
X58522Y77177D01*
X58451Y77190D01*
X58376Y77197D01*
X58299Y77200D01*
Y77800D01*
X58376Y77802D01*
X58451Y77810D01*
X58522Y77823D01*
X58590Y77840D01*
X58655Y77863D01*
X58717Y77890D01*
X58777Y77923D01*
X58833Y77961D01*
X58887Y78004D01*
X58938Y78051D01*
Y76949D01*
D02*
G37*
G36*
X22963Y78237D02*
X23171Y78065D01*
X23275Y77994D01*
X23378Y77935D01*
X23480Y77886D01*
X23582Y77849D01*
X23682Y77822D01*
X23782Y77805D01*
X23882Y77800D01*
Y77200D01*
X23782Y77195D01*
X23682Y77178D01*
X23582Y77151D01*
X23480Y77114D01*
X23378Y77065D01*
X23275Y77006D01*
X23171Y76935D01*
X23067Y76854D01*
X22963Y76763D01*
X22857Y76660D01*
Y78340D01*
X22963Y78237D01*
D02*
G37*
G36*
X65492Y76213D02*
X65422Y76210D01*
X65354Y76203D01*
X65288Y76190D01*
X65223Y76171D01*
X65159Y76146D01*
X65097Y76116D01*
X65036Y76080D01*
X64977Y76039D01*
X64920Y75992D01*
X64863Y75939D01*
X64439Y76363D01*
X64492Y76420D01*
X64539Y76477D01*
X64580Y76536D01*
X64616Y76597D01*
X64646Y76659D01*
X64671Y76723D01*
X64689Y76788D01*
X64703Y76854D01*
X64710Y76923D01*
X64713Y76992D01*
X65492Y76213D01*
D02*
G37*
G36*
X64803Y69495D02*
X64812Y69391D01*
X64827Y69300D01*
X64848Y69220D01*
X64875Y69153D01*
X64908Y69098D01*
X64947Y69055D01*
X64992Y69024D01*
X65043Y69006D01*
X65100Y69000D01*
X63900D01*
X63957Y69006D01*
X64008Y69024D01*
X64053Y69055D01*
X64092Y69098D01*
X64125Y69153D01*
X64152Y69220D01*
X64173Y69300D01*
X64188Y69391D01*
X64197Y69495D01*
X64200Y69612D01*
X64800D01*
X64803Y69495D01*
D02*
G37*
G36*
X4130Y61872D02*
X4124Y61929D01*
X4106Y61980D01*
X4076Y62025D01*
X4034Y62064D01*
X3980Y62097D01*
X3914Y62124D01*
X3836Y62145D01*
X3746Y62160D01*
X3644Y62169D01*
X3530Y62172D01*
Y62772D01*
X3644Y62775D01*
X3746Y62784D01*
X3836Y62799D01*
X3914Y62820D01*
X3980Y62847D01*
X4034Y62880D01*
X4076Y62919D01*
X4106Y62964D01*
X4124Y63015D01*
X4130Y63072D01*
Y61872D01*
D02*
G37*
G36*
X77886Y56928D02*
X77837Y56878D01*
X77794Y56826D01*
X77756Y56770D01*
X77723Y56711D01*
X77694Y56649D01*
X77671Y56584D01*
X77654Y56516D01*
X77641Y56445D01*
X77633Y56371D01*
X77631Y56294D01*
X77031Y56305D01*
X77028Y56382D01*
X77021Y56456D01*
X77008Y56527D01*
X76991Y56596D01*
X76969Y56661D01*
X76942Y56724D01*
X76910Y56784D01*
X76872Y56841D01*
X76831Y56896D01*
X76784Y56947D01*
X77886Y56928D01*
D02*
G37*
G36*
X70025Y50866D02*
X70044Y50815D01*
X70074Y50770D01*
X70117Y50731D01*
X70172Y50698D01*
X70240Y50671D01*
X70319Y50650D01*
X70411Y50635D01*
X70515Y50626D01*
X70631Y50623D01*
Y50023D01*
X70515Y50020D01*
X70411Y50011D01*
X70319Y49996D01*
X70240Y49975D01*
X70172Y49948D01*
X70117Y49915D01*
X70074Y49876D01*
X70044Y49831D01*
X70025Y49780D01*
X70019Y49723D01*
Y50923D01*
X70025Y50866D01*
D02*
G37*
G36*
X29011Y44049D02*
X28960Y44031D01*
X28916Y44000D01*
X28877Y43958D01*
X28844Y43903D01*
X28817Y43835D01*
X28795Y43756D01*
X28780Y43664D01*
X28771Y43560D01*
X28769Y43444D01*
X28168D01*
X28166Y43560D01*
X28157Y43664D01*
X28141Y43756D01*
X28120Y43835D01*
X28093Y43903D01*
X28060Y43958D01*
X28021Y44000D01*
X27977Y44031D01*
X27926Y44049D01*
X27869Y44056D01*
X29068D01*
X29011Y44049D01*
D02*
G37*
G36*
X27043D02*
X26992Y44031D01*
X26947Y44000D01*
X26908Y43958D01*
X26875Y43903D01*
X26848Y43835D01*
X26827Y43756D01*
X26812Y43664D01*
X26803Y43560D01*
X26800Y43444D01*
X26200D01*
X26197Y43560D01*
X26188Y43664D01*
X26173Y43756D01*
X26152Y43835D01*
X26125Y43903D01*
X26092Y43958D01*
X26053Y44000D01*
X26008Y44031D01*
X25957Y44049D01*
X25900Y44056D01*
X27100D01*
X27043Y44049D01*
D02*
G37*
G36*
X70025Y42204D02*
X70044Y42153D01*
X70074Y42108D01*
X70117Y42069D01*
X70172Y42036D01*
X70240Y42009D01*
X70319Y41988D01*
X70411Y41973D01*
X70515Y41964D01*
X70631Y41961D01*
Y41361D01*
X70515Y41358D01*
X70411Y41349D01*
X70319Y41334D01*
X70240Y41313D01*
X70172Y41286D01*
X70117Y41253D01*
X70074Y41214D01*
X70044Y41169D01*
X70025Y41118D01*
X70019Y41061D01*
Y42261D01*
X70025Y42204D01*
D02*
G37*
G36*
X19537Y38543D02*
X19555Y38492D01*
X19585Y38447D01*
X19627Y38408D01*
X19681Y38375D01*
X19747Y38348D01*
X19825Y38327D01*
X19915Y38312D01*
X20017Y38303D01*
X20131Y38300D01*
Y37700D01*
X20017Y37697D01*
X19915Y37688D01*
X19825Y37673D01*
X19747Y37652D01*
X19681Y37625D01*
X19627Y37592D01*
X19585Y37553D01*
X19555Y37508D01*
X19537Y37457D01*
X19531Y37400D01*
Y38600D01*
X19537Y38543D01*
D02*
G37*
G36*
X70025Y37874D02*
X70044Y37823D01*
X70074Y37778D01*
X70117Y37739D01*
X70172Y37706D01*
X70240Y37679D01*
X70319Y37658D01*
X70411Y37643D01*
X70515Y37634D01*
X70631Y37631D01*
Y37031D01*
X70515Y37028D01*
X70411Y37019D01*
X70319Y37004D01*
X70240Y36983D01*
X70172Y36956D01*
X70117Y36923D01*
X70074Y36884D01*
X70044Y36839D01*
X70025Y36788D01*
X70019Y36731D01*
Y37931D01*
X70025Y37874D01*
D02*
G37*
G36*
X19537Y35984D02*
X19555Y35933D01*
X19585Y35888D01*
X19627Y35849D01*
X19681Y35816D01*
X19747Y35789D01*
X19825Y35768D01*
X19915Y35753D01*
X20017Y35744D01*
X20131Y35741D01*
Y35141D01*
X20017Y35138D01*
X19915Y35129D01*
X19825Y35114D01*
X19747Y35093D01*
X19681Y35066D01*
X19627Y35033D01*
X19585Y34994D01*
X19555Y34949D01*
X19537Y34898D01*
X19531Y34841D01*
Y36041D01*
X19537Y35984D01*
D02*
G37*
G36*
X19541Y33605D02*
X19571Y33558D01*
X19621Y33517D01*
X19691Y33481D01*
X19781Y33451D01*
X19891Y33426D01*
X20021Y33407D01*
X20171Y33393D01*
X20531Y33382D01*
Y32382D01*
X20341Y32379D01*
X20021Y32357D01*
X19891Y32338D01*
X19781Y32313D01*
X19691Y32283D01*
X19621Y32247D01*
X19571Y32206D01*
X19541Y32159D01*
X19531Y32107D01*
Y33657D01*
X19541Y33605D01*
D02*
G37*
G36*
X62357Y44014D02*
X62357D01*
Y43639D01*
X62357D01*
Y39683D01*
X62357D01*
Y39309D01*
X62357D01*
Y35353D01*
X62357D01*
Y34978D01*
X62357D01*
Y31022D01*
X69071D01*
X69262Y30560D01*
X54667Y15965D01*
X36251D01*
X36180Y15996D01*
X36175Y15997D01*
Y17025D01*
X31825D01*
Y13069D01*
X31388Y12918D01*
X31112D01*
X30675Y13069D01*
Y17025D01*
X26325D01*
Y13069D01*
X27551D01*
X27551Y13065D01*
X27585Y12988D01*
X27652Y12649D01*
X27851Y12351D01*
X28023Y12180D01*
X27831Y11718D01*
X25292D01*
X25196Y12202D01*
X24950Y12569D01*
X25175Y13069D01*
X25175D01*
Y14547D01*
X23000D01*
X20825D01*
Y13069D01*
X21782D01*
X22050Y12569D01*
X21804Y12202D01*
X21665Y11500D01*
X21804Y10798D01*
X21922Y10622D01*
X21655Y10122D01*
X20965D01*
X18122Y12965D01*
Y22035D01*
X20981Y24895D01*
X21481Y24688D01*
Y22931D01*
X20825D01*
Y18975D01*
X25175D01*
Y19500D01*
X26325D01*
Y18975D01*
X30675D01*
Y19500D01*
X31825D01*
Y18975D01*
X36175D01*
Y19500D01*
X36500D01*
X36429Y30964D01*
X36793Y31207D01*
X38500Y32914D01*
X47707Y23707D01*
X47707Y23707D01*
X48071Y23464D01*
X48500Y23378D01*
X48500Y23379D01*
X53414D01*
X53414Y23378D01*
X53843Y23464D01*
X54207Y23707D01*
X54793Y24293D01*
X54793Y24293D01*
X55036Y24657D01*
X55122Y25086D01*
Y29878D01*
X56607D01*
X56716Y29716D01*
X57305Y29322D01*
X58000Y29184D01*
X58695Y29322D01*
X59284Y29716D01*
X59678Y30305D01*
X59816Y31000D01*
X59678Y31695D01*
X59284Y32284D01*
X58695Y32678D01*
X58000Y32816D01*
X57305Y32678D01*
X56716Y32284D01*
X56607Y32122D01*
X55122D01*
Y38069D01*
X56500D01*
Y40047D01*
Y42025D01*
X55122D01*
Y42685D01*
X56411Y43975D01*
X59175D01*
Y44831D01*
X62357D01*
Y44014D01*
D02*
G37*
G36*
X32907Y29869D02*
X32948Y29219D01*
X32963Y29149D01*
X32981Y29099D01*
X33001Y29069D01*
X33023Y29059D01*
X31788D01*
X31810Y29069D01*
X31830Y29099D01*
X31848Y29149D01*
X31863Y29219D01*
X31876Y29309D01*
X31895Y29549D01*
X31905Y30059D01*
X32906D01*
X32907Y29869D01*
D02*
G37*
G36*
X27001D02*
X27042Y29219D01*
X27058Y29149D01*
X27075Y29099D01*
X27095Y29069D01*
X27118Y29059D01*
X25882D01*
X25905Y29069D01*
X25925Y29099D01*
X25942Y29149D01*
X25958Y29219D01*
X25971Y29309D01*
X25989Y29549D01*
X26000Y30059D01*
X27000D01*
X27001Y29869D01*
D02*
G37*
G36*
X30966Y25152D02*
X30918Y25134D01*
X30876Y25104D01*
X30839Y25063D01*
X30808Y25009D01*
X30782Y24944D01*
X30762Y24866D01*
X30748Y24777D01*
X30740Y24676D01*
X30737Y24563D01*
X30137D01*
X30134Y24676D01*
X30126Y24777D01*
X30112Y24866D01*
X30092Y24944D01*
X30066Y25009D01*
X30035Y25063D01*
X29998Y25104D01*
X29956Y25134D01*
X29908Y25152D01*
X29854Y25158D01*
X31020D01*
X30966Y25152D01*
D02*
G37*
G36*
X29086Y25146D02*
X29032Y25140D01*
X28983Y25122D01*
X28940Y25092D01*
X28903Y25050D01*
X28872Y24996D01*
X28846Y24930D01*
X28826Y24852D01*
X28811Y24762D01*
X28803Y24660D01*
X28800Y24546D01*
X28200D01*
X28197Y24662D01*
X28188Y24765D01*
X28173Y24857D01*
X28152Y24936D01*
X28125Y25003D01*
X28092Y25058D01*
X28053Y25102D01*
X28008Y25132D01*
X27957Y25151D01*
X27900Y25158D01*
X29086Y25146D01*
D02*
G37*
G36*
X34303Y22802D02*
X34312Y22698D01*
X34327Y22607D01*
X34348Y22527D01*
X34375Y22460D01*
X34408Y22405D01*
X34447Y22362D01*
X34492Y22331D01*
X34543Y22313D01*
X34600Y22307D01*
X33400D01*
X33457Y22313D01*
X33508Y22331D01*
X33553Y22362D01*
X33592Y22405D01*
X33625Y22460D01*
X33652Y22527D01*
X33673Y22607D01*
X33688Y22698D01*
X33697Y22802D01*
X33700Y22919D01*
X34300D01*
X34303Y22802D01*
D02*
G37*
G36*
X28803D02*
X28812Y22698D01*
X28827Y22607D01*
X28848Y22527D01*
X28875Y22460D01*
X28908Y22405D01*
X28947Y22362D01*
X28992Y22331D01*
X29043Y22313D01*
X29100Y22307D01*
X27900D01*
X27957Y22313D01*
X28008Y22331D01*
X28053Y22362D01*
X28092Y22405D01*
X28125Y22460D01*
X28152Y22527D01*
X28173Y22607D01*
X28188Y22698D01*
X28197Y22802D01*
X28200Y22919D01*
X28800D01*
X28803Y22802D01*
D02*
G37*
G36*
X35569Y15590D02*
X35587Y15539D01*
X35617Y15494D01*
X35659Y15455D01*
X35713Y15422D01*
X35779Y15395D01*
X35857Y15374D01*
X35947Y15359D01*
X36049Y15350D01*
X36163Y15347D01*
Y14747D01*
X36049Y14744D01*
X35947Y14735D01*
X35857Y14720D01*
X35779Y14699D01*
X35713Y14672D01*
X35659Y14639D01*
X35617Y14600D01*
X35587Y14555D01*
X35569Y14504D01*
X35563Y14447D01*
Y15647D01*
X35569Y15590D01*
D02*
G37*
G36*
X29043Y13687D02*
X28992Y13669D01*
X28947Y13638D01*
X28908Y13595D01*
X28875Y13540D01*
X28848Y13473D01*
X28827Y13393D01*
X28812Y13302D01*
X28803Y13198D01*
X28800Y13081D01*
X28200D01*
X28197Y13198D01*
X28188Y13302D01*
X28173Y13393D01*
X28152Y13473D01*
X28125Y13540D01*
X28092Y13595D01*
X28053Y13638D01*
X28008Y13669D01*
X27957Y13687D01*
X27900Y13693D01*
X29100D01*
X29043Y13687D01*
D02*
G37*
%LPC*%
G36*
X68301Y143112D02*
X66232D01*
Y141831D01*
X67677D01*
Y142331D01*
X67687Y142236D01*
X67717Y142151D01*
X67768Y142076D01*
X67839Y142011D01*
X67930Y141956D01*
X68041Y141911D01*
X68173Y141876D01*
X68301Y141855D01*
Y143112D01*
D02*
G37*
G36*
X84836D02*
X82768D01*
Y141831D01*
X84836D01*
Y143112D01*
D02*
G37*
G36*
X81768D02*
X79699D01*
Y141855D01*
X79827Y141876D01*
X79959Y141911D01*
X80070Y141956D01*
X80161Y142011D01*
X80232Y142076D01*
X80283Y142151D01*
X80313Y142236D01*
X80323Y142331D01*
Y141831D01*
X81768D01*
Y143112D01*
D02*
G37*
G36*
Y140831D02*
X80323D01*
Y140331D01*
X80313Y140426D01*
X80283Y140511D01*
X80232Y140586D01*
X80161Y140651D01*
X80070Y140706D01*
X79959Y140751D01*
X79827Y140786D01*
X79699Y140807D01*
Y139550D01*
X81768D01*
Y140831D01*
D02*
G37*
G36*
X60500Y141453D02*
X58825D01*
Y139975D01*
X60500D01*
Y141453D01*
D02*
G37*
G36*
X84836Y140831D02*
X82768D01*
Y139550D01*
X84836D01*
Y140831D01*
D02*
G37*
G36*
X67677D02*
X66232D01*
Y139550D01*
X68301D01*
Y140807D01*
X68173Y140786D01*
X68041Y140751D01*
X67930Y140706D01*
X67839Y140651D01*
X67768Y140586D01*
X67717Y140511D01*
X67687Y140426D01*
X67677Y140331D01*
Y140831D01*
D02*
G37*
G36*
X108041Y132222D02*
X105382D01*
Y129760D01*
X108041D01*
Y132222D01*
D02*
G37*
G36*
X104382D02*
X101723D01*
Y129760D01*
X104382D01*
Y132222D01*
D02*
G37*
G36*
X91899D02*
X89240D01*
Y129760D01*
X91899D01*
Y132222D01*
D02*
G37*
G36*
X88240D02*
X85581D01*
Y129760D01*
X88240D01*
Y132222D01*
D02*
G37*
G36*
X50325Y127025D02*
X50069Y126631D01*
X49825Y126631D01*
X48126D01*
Y124260D01*
Y121888D01*
X50096D01*
Y122664D01*
X50325Y123069D01*
X50596Y123069D01*
X52000D01*
Y125047D01*
Y127025D01*
X50325Y127025D01*
D02*
G37*
G36*
X108041Y128760D02*
X105382D01*
Y126298D01*
X108041D01*
Y128760D01*
D02*
G37*
G36*
X104382D02*
X101723D01*
Y126298D01*
X104382D01*
Y128760D01*
D02*
G37*
G36*
X91899Y128760D02*
X89240D01*
Y126298D01*
X91899D01*
Y128760D01*
D02*
G37*
G36*
X53000Y127025D02*
Y125547D01*
X54675D01*
Y127025D01*
X53000D01*
D02*
G37*
G36*
X70025Y125675D02*
X68547D01*
Y124000D01*
X70025D01*
Y125675D01*
D02*
G37*
G36*
X67547D02*
X66069D01*
Y124000D01*
X67547D01*
Y125675D01*
D02*
G37*
G36*
X54675Y124547D02*
X53000D01*
Y123069D01*
X54675D01*
Y124547D01*
D02*
G37*
G36*
X70025Y123000D02*
X68547D01*
Y121325D01*
X70025D01*
Y123000D01*
D02*
G37*
G36*
X121623Y122837D02*
X119882Y121096D01*
X121135Y119843D01*
X122877Y121584D01*
X121623Y122837D01*
D02*
G37*
G36*
X123584Y120877D02*
X121843Y119135D01*
X123096Y117882D01*
X124837Y119623D01*
X123584Y120877D01*
D02*
G37*
G36*
X119175Y120389D02*
X117433Y118648D01*
X118687Y117394D01*
X120428Y119135D01*
X119175Y120389D01*
D02*
G37*
G36*
X92283Y123792D02*
X91253Y123656D01*
X90293Y123258D01*
X89469Y122626D01*
X88836Y121801D01*
X88439Y120841D01*
X88303Y119811D01*
X88439Y118781D01*
X88836Y117821D01*
X89469Y116996D01*
X90293Y116364D01*
X91253Y115966D01*
X92283Y115831D01*
X93314Y115966D01*
X94274Y116364D01*
X95098Y116996D01*
X95731Y117821D01*
X96128Y118781D01*
X96264Y119811D01*
X96128Y120841D01*
X95731Y121801D01*
X95098Y122626D01*
X94274Y123258D01*
X93314Y123656D01*
X92283Y123792D01*
D02*
G37*
G36*
X121135Y118428D02*
X119394Y116687D01*
X120648Y115433D01*
X122389Y117174D01*
X121135Y118428D01*
D02*
G37*
G36*
X10500Y116217D02*
X9651Y116049D01*
X8932Y115568D01*
X8451Y114849D01*
X8283Y114000D01*
X8451Y113151D01*
X8932Y112432D01*
X9651Y111951D01*
X10500Y111783D01*
X11349Y111951D01*
X12068Y112432D01*
X12549Y113151D01*
X12717Y114000D01*
X12549Y114849D01*
X12068Y115568D01*
X11349Y116049D01*
X10500Y116217D01*
D02*
G37*
G36*
X70025Y105500D02*
X68547D01*
Y103825D01*
X70025D01*
Y105500D01*
D02*
G37*
G36*
X67547D02*
X66069D01*
Y103825D01*
X67547D01*
Y105500D01*
D02*
G37*
G36*
X10500Y107217D02*
X9651Y107049D01*
X8932Y106568D01*
X8451Y105849D01*
X8283Y105000D01*
X8451Y104151D01*
X8932Y103432D01*
X9651Y102951D01*
X10500Y102783D01*
X11349Y102951D01*
X12068Y103432D01*
X12549Y104151D01*
X12717Y105000D01*
X12549Y105849D01*
X12068Y106568D01*
X11349Y107049D01*
X10500Y107217D01*
D02*
G37*
G36*
X54565Y105179D02*
X50215D01*
Y98073D01*
X54565D01*
Y105179D01*
D02*
G37*
G36*
X120648Y100567D02*
X119394Y99313D01*
X121135Y97572D01*
X122389Y98826D01*
X120648Y100567D01*
D02*
G37*
G36*
X10500Y124717D02*
X9651Y124549D01*
X8932Y124068D01*
X8451Y123349D01*
X8283Y122500D01*
X8451Y121651D01*
X8932Y120932D01*
X9651Y120451D01*
X10500Y120283D01*
X11349Y120451D01*
X12068Y120932D01*
X12366Y121378D01*
X16035D01*
X16879Y120535D01*
Y111500D01*
X16878Y111500D01*
X16964Y111071D01*
X17207Y110707D01*
X24947Y102967D01*
Y97447D01*
X32053D01*
Y104553D01*
X26533D01*
X19121Y111965D01*
Y121000D01*
X19122Y121000D01*
X19036Y121429D01*
X18793Y121793D01*
X17293Y123293D01*
X16929Y123536D01*
X16500Y123622D01*
X16500Y123622D01*
X12366D01*
X12068Y124068D01*
X11349Y124549D01*
X10500Y124717D01*
D02*
G37*
G36*
X118687Y98606D02*
X117433Y97352D01*
X119175Y95611D01*
X120428Y96865D01*
X118687Y98606D01*
D02*
G37*
G36*
X123096Y98118D02*
X121843Y96865D01*
X123584Y95123D01*
X124837Y96377D01*
X123096Y98118D01*
D02*
G37*
G36*
X121135Y96157D02*
X119882Y94904D01*
X121623Y93163D01*
X122877Y94416D01*
X121135Y96157D01*
D02*
G37*
G36*
X108041Y89702D02*
X105382D01*
Y87240D01*
X108041D01*
Y89702D01*
D02*
G37*
G36*
X104382D02*
X101723D01*
Y87240D01*
X104382D01*
Y89702D01*
D02*
G37*
G36*
X10624Y89647D02*
X7571D01*
Y86594D01*
X10624D01*
Y89647D01*
D02*
G37*
G36*
X6571D02*
X3518D01*
Y86594D01*
X6571D01*
Y89647D01*
D02*
G37*
G36*
X15500Y86431D02*
X13825D01*
Y84953D01*
X15500D01*
Y86431D01*
D02*
G37*
G36*
X108041Y86240D02*
X105382D01*
Y83778D01*
X108041D01*
Y86240D01*
D02*
G37*
G36*
X104382D02*
X101723D01*
Y83778D01*
X104382D01*
Y86240D01*
D02*
G37*
G36*
X91899Y86240D02*
X89240D01*
Y83778D01*
X91899D01*
Y86240D01*
D02*
G37*
G36*
X10624Y85594D02*
X7571D01*
Y82542D01*
X10624D01*
Y85594D01*
D02*
G37*
G36*
X6571D02*
X3518D01*
Y82542D01*
X6571D01*
Y85594D01*
D02*
G37*
G36*
X15500Y83953D02*
X13825D01*
Y82475D01*
X15500D01*
Y83953D01*
D02*
G37*
G36*
X111695Y77364D02*
X107264D01*
Y73264D01*
X111695D01*
Y77364D01*
D02*
G37*
G36*
X106264D02*
X101833D01*
Y73264D01*
X106264D01*
Y77364D01*
D02*
G37*
G36*
X72324Y75726D02*
X69468D01*
Y73264D01*
X72324D01*
Y75726D01*
D02*
G37*
G36*
X41000Y74415D02*
X40459Y74307D01*
X40000Y74000D01*
X39693Y73541D01*
X39585Y73000D01*
X39605Y72903D01*
X38120Y71418D01*
X10699D01*
X10628Y71449D01*
X10624Y71449D01*
Y73899D01*
X3518D01*
Y66794D01*
X10624D01*
Y69551D01*
X10628Y69551D01*
X10699Y69582D01*
X38500D01*
X38851Y69652D01*
X39149Y69851D01*
X40903Y71605D01*
X41000Y71585D01*
X41541Y71693D01*
X42000Y72000D01*
X42307Y72459D01*
X42415Y73000D01*
X42307Y73541D01*
X42000Y74000D01*
X41541Y74307D01*
X41000Y74415D01*
D02*
G37*
G36*
X111695Y72264D02*
X107264D01*
Y68164D01*
X111695D01*
Y72264D01*
D02*
G37*
G36*
X106264D02*
X101833D01*
Y68164D01*
X106264D01*
Y72264D01*
D02*
G37*
G36*
X34000Y65510D02*
Y61500D01*
X38010D01*
X37920Y62184D01*
X37463Y63288D01*
X36736Y64236D01*
X35788Y64963D01*
X34684Y65420D01*
X34000Y65510D01*
D02*
G37*
G36*
X33000D02*
X32316Y65420D01*
X31212Y64963D01*
X30264Y64236D01*
X29537Y63288D01*
X29080Y62184D01*
X28990Y61500D01*
X33000D01*
Y65510D01*
D02*
G37*
G36*
X38010Y60500D02*
X34000D01*
Y56490D01*
X34684Y56580D01*
X35788Y57037D01*
X36736Y57764D01*
X37463Y58712D01*
X37920Y59816D01*
X38010Y60500D01*
D02*
G37*
G36*
X33000D02*
X28990D01*
X29080Y59816D01*
X29537Y58712D01*
X30264Y57764D01*
X31212Y57037D01*
X32316Y56580D01*
X33000Y56490D01*
Y60500D01*
D02*
G37*
G36*
X23000Y65576D02*
X21816Y65420D01*
X20712Y64963D01*
X20303Y64649D01*
X17500D01*
X17041Y64459D01*
X16851Y64000D01*
Y50500D01*
X17041Y50041D01*
X17500Y49851D01*
X18229D01*
X18298Y49804D01*
X19000Y49665D01*
X19702Y49804D01*
X19771Y49851D01*
X20500D01*
X20959Y50041D01*
X21149Y50500D01*
Y56406D01*
X21565Y56683D01*
X21816Y56580D01*
X23000Y56424D01*
X24184Y56580D01*
X25288Y57037D01*
X26236Y57764D01*
X26963Y58712D01*
X27420Y59816D01*
X27576Y61000D01*
X27420Y62184D01*
X26963Y63288D01*
X26236Y64236D01*
X25288Y64963D01*
X24184Y65420D01*
X23000Y65576D01*
D02*
G37*
G36*
X20143Y44506D02*
X17090D01*
Y43618D01*
X20143D01*
Y44506D01*
D02*
G37*
G36*
X16091D02*
X13038D01*
Y43618D01*
X16091D01*
Y44506D01*
D02*
G37*
G36*
X35604Y48568D02*
X30937D01*
Y46000D01*
Y43431D01*
X35604D01*
Y48568D01*
D02*
G37*
G36*
X72324Y18639D02*
X69468D01*
Y15390D01*
X72324D01*
Y18639D01*
D02*
G37*
G36*
X68468D02*
X65613D01*
Y15390D01*
X68468D01*
Y18639D01*
D02*
G37*
G36*
X111695Y16340D02*
X107264D01*
Y12240D01*
X111695D01*
Y16340D01*
D02*
G37*
G36*
X106264D02*
X101833D01*
Y12240D01*
X106264D01*
Y16340D01*
D02*
G37*
G36*
X111695Y11240D02*
X107264D01*
Y7140D01*
X111695D01*
Y11240D01*
D02*
G37*
G36*
X106264D02*
X101833D01*
Y7140D01*
X106264D01*
Y11240D01*
D02*
G37*
%LPD*%
G36*
X50949Y124047D02*
X50939Y124142D01*
X50909Y124227D01*
X50858Y124302D01*
X50787Y124367D01*
X50696Y124422D01*
X50585Y124467D01*
X50453Y124502D01*
X50301Y124527D01*
X50211Y124535D01*
X50121Y124527D01*
X49969Y124502D01*
X49838Y124467D01*
X49727Y124422D01*
X49635Y124367D01*
X49564Y124302D01*
X49514Y124227D01*
X49483Y124142D01*
X49472Y124047D01*
X49484Y126020D01*
X49494Y125930D01*
X49524Y125849D01*
X49574Y125779D01*
X49644Y125717D01*
X49734Y125665D01*
X49844Y125623D01*
X49974Y125590D01*
X50124Y125566D01*
X50208Y125559D01*
X50301Y125567D01*
X50453Y125592D01*
X50585Y125627D01*
X50696Y125672D01*
X50787Y125727D01*
X50858Y125792D01*
X50909Y125867D01*
X50939Y125952D01*
X50949Y126047D01*
Y124047D01*
D02*
G37*
G36*
X10006Y71043D02*
X10024Y70992D01*
X10055Y70947D01*
X10097Y70908D01*
X10153Y70875D01*
X10220Y70848D01*
X10300Y70827D01*
X10391Y70812D01*
X10495Y70803D01*
X10612Y70800D01*
Y70200D01*
X10495Y70197D01*
X10391Y70188D01*
X10300Y70173D01*
X10220Y70152D01*
X10153Y70125D01*
X10097Y70092D01*
X10055Y70053D01*
X10024Y70008D01*
X10006Y69957D01*
X10000Y69900D01*
Y71100D01*
X10006Y71043D01*
D02*
G37*
%LPC*%
G36*
X59175Y42025D02*
X57500D01*
Y40547D01*
X59175D01*
Y42025D01*
D02*
G37*
G36*
Y39547D02*
X57500D01*
Y38069D01*
X59175D01*
Y39547D01*
D02*
G37*
G36*
X25175Y17025D02*
X23500D01*
Y15547D01*
X25175D01*
Y17025D01*
D02*
G37*
G36*
X22500D02*
X20825D01*
Y15547D01*
X22500D01*
Y17025D01*
D02*
G37*
%LPD*%
D10*
X61000Y141953D02*
D03*
Y136047D02*
D03*
X52500Y125047D02*
D03*
Y130953D02*
D03*
X57000Y40047D02*
D03*
Y45953D02*
D03*
X34000Y20953D02*
D03*
Y15047D02*
D03*
X28500Y20953D02*
D03*
Y15047D02*
D03*
X23000D02*
D03*
Y20953D02*
D03*
X16000Y84453D02*
D03*
Y78547D02*
D03*
D12*
X73953Y112000D02*
D03*
X68047D02*
D03*
Y123500D02*
D03*
X73953D02*
D03*
X68047Y118000D02*
D03*
X73953D02*
D03*
X68047Y106000D02*
D03*
X73953D02*
D03*
D25*
X47626Y131740D02*
D03*
X38374Y128000D02*
D03*
D26*
X47626Y124260D02*
D03*
D34*
X68047Y118000D02*
Y118197D01*
Y112000D02*
Y118000D01*
Y112000D02*
X68187Y111860D01*
Y109273D02*
Y111860D01*
X58181Y127866D02*
Y129563D01*
X67063Y119181D02*
X68047Y118197D01*
X66866Y119181D02*
X67063D01*
X58181Y127866D02*
X66866Y119181D01*
X57000Y130547D02*
X57197D01*
X58181Y129563D01*
D35*
X94000Y87000D02*
Y89000D01*
X92000Y91000D02*
X94000Y89000D01*
X88872Y91000D02*
X92000D01*
X75000Y89000D02*
X75000D01*
X56500Y136047D02*
X61000D01*
X60500Y135547D02*
X61000Y136047D01*
X60500Y129000D02*
Y135547D01*
X64945Y132669D02*
X65732D01*
X66119D01*
X61567Y136047D02*
X64945Y132669D01*
X66119D02*
X67001Y131788D01*
X66119Y132669D02*
X82268D01*
X61000Y136047D02*
X61567D01*
X84372Y95500D02*
X88872Y91000D01*
X84824Y98176D02*
X85000Y98352D01*
Y115500D01*
X74352Y117851D02*
X82648D01*
X85000Y115500D01*
X42000Y99500D02*
X46000Y95500D01*
X28500Y121000D02*
X42000Y107500D01*
Y99500D02*
Y107500D01*
X28500Y121000D02*
Y121000D01*
X63500Y95500D02*
X73000Y86000D01*
X46000Y95500D02*
X63500D01*
X65699Y85307D02*
X65807D01*
X60392Y80000D02*
X65699Y85307D01*
X46500Y87500D02*
X62000D01*
X70000Y83500D02*
X76122D01*
X61000Y92500D02*
X70000Y83500D01*
X44000Y101500D02*
Y128213D01*
X28500Y111000D02*
X34000Y105500D01*
Y99000D02*
X37500Y95500D01*
X34000Y99000D02*
Y105500D01*
X37500Y95500D02*
X42266D01*
X45266Y92500D02*
X61000D01*
X42266Y95500D02*
X45266Y92500D01*
X41000Y93000D02*
X46500Y87500D01*
X26000Y80000D02*
X60392D01*
X22000Y77500D02*
X59500D01*
X57803Y76000D02*
X59901Y73901D01*
X23470Y76000D02*
X57803D01*
X22870Y75400D02*
X23470Y76000D01*
X20600Y75400D02*
X22870D01*
X63000Y74000D02*
Y78500D01*
X56843Y67843D02*
X63000Y74000D01*
X41500Y61500D02*
X47843Y67843D01*
X56843D01*
X64500Y76000D02*
X65500Y77000D01*
X7224Y70500D02*
X38500D01*
X41000Y73000D01*
X19000Y77000D02*
Y88500D01*
Y77000D02*
X20600Y75400D01*
X96000Y49000D02*
X102000D01*
X86208Y39208D02*
X96000Y49000D01*
X86208Y18208D02*
Y39208D01*
X24200Y10800D02*
X78800D01*
X86208Y18208D01*
X73953Y106000D02*
Y112000D01*
Y118000D02*
Y123500D01*
X60500Y129000D02*
X60501Y129000D01*
X44000Y128213D02*
X47528Y131740D01*
X47626D01*
X3528Y62472D02*
X7071D01*
X5000Y99500D02*
X16000D01*
X24856Y90644D01*
X1500Y64500D02*
X3528Y62472D01*
X1500Y64500D02*
Y96000D01*
X5000Y99500D01*
X24856Y90644D02*
X39144D01*
X51000Y29500D02*
Y54500D01*
X57314Y60813D01*
Y62313D01*
X57500Y62500D01*
X26000Y93000D02*
X41000D01*
X79600Y39600D02*
Y70600D01*
X80000Y71000D01*
X73500Y53000D02*
Y63973D01*
X70823Y50323D02*
X73500Y53000D01*
X75400Y66400D02*
X75500Y66500D01*
X75400Y44400D02*
Y66400D01*
X66500Y50323D02*
X70823D01*
X64500Y67000D02*
Y76000D01*
X77331Y57486D02*
X77344Y57500D01*
X77331Y41331D02*
Y57486D01*
X7071Y70346D02*
X7224Y70500D01*
X23313Y85186D02*
Y89187D01*
X22500Y90000D02*
X23313Y89187D01*
X12500Y95000D02*
X19000Y88500D01*
X23313Y85186D02*
X23500Y85000D01*
X28500Y20953D02*
Y27071D01*
X28468Y27102D02*
X28500Y27071D01*
X72661Y41661D02*
X75400Y44400D01*
X66500Y41661D02*
X72661D01*
X66500Y37331D02*
X73331D01*
X77331Y41331D01*
X34000Y15047D02*
X55047D01*
X79600Y39600D01*
X28500Y13000D02*
Y15047D01*
Y13000D02*
X29500Y12000D01*
X54500D01*
X81500Y39000D01*
Y63000D01*
X23500Y11500D02*
X24200Y10800D01*
X16591Y38000D02*
X25000D01*
X26500Y39500D01*
Y46000D01*
X16591Y35441D02*
X25441D01*
X28468Y38469D01*
Y46000D01*
X30437Y24563D02*
Y27102D01*
Y24563D02*
X31000Y24000D01*
X33000D01*
X34000Y23000D01*
Y20953D02*
Y23000D01*
D36*
X10500Y78220D02*
X15673D01*
X61311Y141642D02*
X65421D01*
X65732Y141331D01*
X82268D01*
X61000Y141953D02*
X61311Y141642D01*
X54000Y31000D02*
Y43150D01*
Y25086D02*
Y31000D01*
X58000D01*
X54000Y82500D02*
X56500Y85000D01*
X34000Y82500D02*
X54000D01*
X22000D02*
X34000D01*
X84480Y9000D02*
X91000Y15520D01*
Y34852D01*
X48413Y130953D02*
X52500D01*
X47626Y131740D02*
X48413Y130953D01*
X48413Y125047D02*
X52500D01*
X47626Y124260D02*
X48413Y125047D01*
X38600Y117800D02*
Y127774D01*
X38374Y128000D02*
X38600Y127774D01*
X7071Y78220D02*
X15673D01*
X32405Y32000D02*
X36000D01*
X54000Y43150D02*
X56803Y45953D01*
X27500Y32000D02*
X32405D01*
X48500Y24500D02*
X53414D01*
X54000Y25086D01*
X56803Y45953D02*
X57000D01*
X38500Y34500D02*
X48500Y24500D01*
X57000Y51000D02*
X60500Y54500D01*
X61500D01*
X57000Y45953D02*
Y51000D01*
X10500Y78220D02*
X15673D01*
X18000Y111500D02*
X28500Y101000D01*
X18000Y111500D02*
Y121000D01*
X10500Y122500D02*
X16500D01*
X18000Y121000D01*
X22602Y21350D02*
X23000Y20953D01*
X24602Y27102D02*
X26500D01*
X22602Y25102D02*
X24602Y27102D01*
X22602Y21350D02*
Y25102D01*
X26500Y31000D02*
X27500Y32000D01*
X26500Y27102D02*
Y31000D01*
X57000Y45953D02*
X66461D01*
X66500Y45992D01*
X17000Y12500D02*
X20500Y9000D01*
X38500Y34500D02*
Y49000D01*
X36000Y32000D02*
X38500Y34500D01*
X32405Y27102D02*
Y32000D01*
X16591Y32882D02*
X21118D01*
X17000Y12500D02*
Y22500D01*
X22000Y27500D01*
Y32000D01*
X21118Y32882D02*
X22000Y32000D01*
X15673Y78220D02*
X16000Y78547D01*
X21500Y82000D02*
X22000Y82500D01*
X21500Y80500D02*
Y82000D01*
X20500Y9000D02*
X84480D01*
X27000Y53500D02*
X27037Y53463D01*
X34037D01*
X38500Y49000D01*
D39*
Y101000D02*
D03*
X58000Y31000D02*
D03*
X108500Y12500D02*
D03*
X106453Y10500D02*
D03*
D40*
X28500Y101000D02*
D03*
D41*
Y111000D02*
D03*
Y121000D02*
D03*
Y131000D02*
D03*
D42*
X108339Y61347D02*
D03*
Y29850D02*
D03*
D43*
X15606Y28453D02*
D03*
Y47547D02*
D03*
D44*
X5173Y23728D02*
D03*
Y52272D02*
D03*
D45*
X81500Y114000D02*
D03*
X33500Y61000D02*
D03*
X61000Y54500D02*
D03*
D46*
X81500Y104500D02*
D03*
X105000Y89000D02*
D03*
X119500Y98500D02*
D03*
Y117500D02*
D03*
X105000Y128000D02*
D03*
X48500Y101500D02*
D03*
X71500Y54500D02*
D03*
X77500Y64000D02*
D03*
X68187Y109273D02*
D03*
X67500Y106500D02*
D03*
X69500Y95000D02*
D03*
X47000Y99000D02*
D03*
X67000Y73500D02*
D03*
X94000Y87000D02*
D03*
X84372Y95500D02*
D03*
X84824Y98176D02*
D03*
X56500Y85000D02*
D03*
X65807Y85307D02*
D03*
X62000Y87500D02*
D03*
X73000Y86000D02*
D03*
X44000Y101500D02*
D03*
X76122Y83500D02*
D03*
X63000Y78500D02*
D03*
X59500Y77500D02*
D03*
X59901Y73901D02*
D03*
X41500Y61500D02*
D03*
X65500Y77000D02*
D03*
X41000Y73000D02*
D03*
X75000Y89000D02*
D03*
X60500Y129000D02*
D03*
X39144Y90644D02*
D03*
X48421Y51521D02*
D03*
X57500Y62500D02*
D03*
X81500Y63000D02*
D03*
X80000Y71000D02*
D03*
X73500Y63973D02*
D03*
X65000Y59000D02*
D03*
X75500Y66500D02*
D03*
X77344Y57500D02*
D03*
X27500Y73500D02*
D03*
X22500Y90000D02*
D03*
X12500Y95000D02*
D03*
X23500Y85000D02*
D03*
D47*
X102000Y49000D02*
D03*
X91000Y36000D02*
D03*
Y38500D02*
D03*
X10500Y78500D02*
D03*
X5500Y84500D02*
D03*
X31000Y39500D02*
D03*
X26000Y93000D02*
D03*
X21500Y80500D02*
D03*
X22000Y77500D02*
D03*
X26000Y80000D02*
D03*
X23500Y11500D02*
D03*
X34000Y82500D02*
D03*
X51000Y29500D02*
D03*
X19000Y54000D02*
D03*
Y51500D02*
D03*
X27000Y53500D02*
D03*
X38000Y25000D02*
D03*
D48*
X10500Y105000D02*
D03*
Y114000D02*
D03*
Y122500D02*
D03*
Y131000D02*
D03*
D49*
X92283Y96189D02*
D03*
Y119811D02*
D03*
D50*
X78252Y92252D02*
G03*
X75000Y89000I0J-3252D01*
G01*
X78252Y92252D02*
X79685D01*
D51*
X52390Y101626D02*
D03*
X38600Y117800D02*
D03*
X38610Y101626D02*
D03*
D52*
X82268Y132669D02*
D03*
Y141331D02*
D03*
X65732Y132669D02*
D03*
Y141331D02*
D03*
D53*
X57000Y136453D02*
D03*
Y130547D02*
D03*
D54*
X7071Y62472D02*
D03*
Y70346D02*
D03*
Y78220D02*
D03*
Y86094D02*
D03*
D55*
X23000Y61000D02*
D03*
X33500D02*
D03*
D56*
X104882Y86740D02*
D03*
X88740D02*
D03*
Y129260D02*
D03*
X104882D02*
D03*
D57*
X79685Y92252D02*
D03*
Y102193D02*
D03*
Y113807D02*
D03*
Y123748D02*
D03*
D58*
X121135Y96865D02*
D03*
D59*
Y119135D02*
D03*
D60*
X66500Y54654D02*
D03*
Y67646D02*
D03*
Y63315D02*
D03*
Y58984D02*
D03*
Y50323D02*
D03*
Y45992D02*
D03*
Y41661D02*
D03*
Y37331D02*
D03*
Y33000D02*
D03*
D61*
X68968Y72764D02*
D03*
D62*
X106764Y72764D02*
D03*
Y11740D02*
D03*
D63*
X68968Y14890D02*
D03*
D64*
X16590Y43118D02*
D03*
X16591Y40559D02*
D03*
Y38000D02*
D03*
Y35441D02*
D03*
Y32882D02*
D03*
D65*
X26500Y46000D02*
D03*
X28468D02*
D03*
X30437D02*
D03*
X32405D02*
D03*
X34374D02*
D03*
Y27102D02*
D03*
X32405D02*
D03*
X30437D02*
D03*
X28468D02*
D03*
X26500D02*
D03*
D66*
X74201Y123748D02*
X79685D01*
X73953Y123500D02*
X74201Y123748D01*
X73953Y98181D02*
Y106000D01*
Y98181D02*
X79685Y92449D01*
Y92252D02*
Y92449D01*
D67*
X19000Y57250D02*
D03*
D68*
X91000Y37250D02*
D03*
D69*
X70000Y46000D02*
D03*
%TF.MD5,e838164db6d36478b12ca83e352452ad*%
M02*
