%TF.GenerationSoftware,Altium Limited,Altium Designer,20.0.13 (296)*%
G04 Layer_Color=65535*
%FSLAX25Y25*%
%MOIN*%
%TF.FileFunction,Legend,Top*%
%TF.Part,Single*%
G01*
G75*
%TA.AperFunction,NonConductor*%
%ADD70C,0.01000*%
%ADD71C,0.00600*%
%ADD73C,0.00787*%
%ADD74C,0.00500*%
%ADD106C,0.01968*%
%ADD107C,0.02000*%
%ADD108C,0.00591*%
%ADD109C,0.00800*%
%ADD110C,0.00700*%
G36*
X22899Y115076D02*
X22941Y115072D01*
X22991Y115069D01*
X23048Y115061D01*
X23112Y115054D01*
X23179Y115044D01*
X23250Y115030D01*
X23325Y115015D01*
X23400Y114994D01*
X23478Y114969D01*
X23552Y114944D01*
X23630Y114912D01*
X23705Y114877D01*
X23708Y114873D01*
X23722Y114866D01*
X23744Y114856D01*
X23769Y114841D01*
X23801Y114820D01*
X23840Y114795D01*
X23882Y114763D01*
X23928Y114731D01*
X23975Y114692D01*
X24024Y114650D01*
X24074Y114600D01*
X24124Y114550D01*
X24170Y114497D01*
X24216Y114437D01*
X24262Y114373D01*
X24301Y114305D01*
X24305Y114302D01*
X24308Y114288D01*
X24319Y114270D01*
X24333Y114241D01*
X24347Y114206D01*
X24365Y114167D01*
X24383Y114121D01*
X24401Y114067D01*
X24418Y114011D01*
X24436Y113950D01*
X24454Y113883D01*
X24468Y113815D01*
X24493Y113666D01*
X24496Y113588D01*
X24500Y113510D01*
Y113464D01*
X24496Y113432D01*
X24493Y113393D01*
X24489Y113343D01*
X24482Y113294D01*
X24472Y113233D01*
X24461Y113173D01*
X24447Y113105D01*
X24429Y113038D01*
X24408Y112967D01*
X24383Y112896D01*
X24351Y112825D01*
X24319Y112754D01*
X24280Y112683D01*
X24276Y112679D01*
X24269Y112669D01*
X24255Y112647D01*
X24237Y112623D01*
X24216Y112594D01*
X24188Y112559D01*
X24156Y112520D01*
X24120Y112477D01*
X24078Y112431D01*
X24031Y112388D01*
X23982Y112342D01*
X23928Y112296D01*
X23868Y112250D01*
X23808Y112207D01*
X23740Y112168D01*
X23669Y112129D01*
X23666Y112126D01*
X23652Y112122D01*
X23630Y112111D01*
X23602Y112101D01*
X23566Y112087D01*
X23524Y112072D01*
X23478Y112055D01*
X23421Y112037D01*
X23364Y112019D01*
X23300Y112001D01*
X23233Y111987D01*
X23162Y111973D01*
X23012Y111952D01*
X22931Y111948D01*
X22853Y111945D01*
X22849D01*
X22842D01*
X22831D01*
X22817D01*
X22796Y111948D01*
X22775D01*
X22718Y111952D01*
X22650Y111959D01*
X22569Y111969D01*
X22484Y111980D01*
X22388Y111998D01*
X22285Y112023D01*
X22182Y112051D01*
X22075Y112087D01*
X21969Y112129D01*
X21862Y112179D01*
X21763Y112236D01*
X21664Y112303D01*
X21575Y112381D01*
X21571Y112385D01*
X21553Y112402D01*
X21532Y112427D01*
X21504Y112459D01*
X21468Y112505D01*
X21429Y112555D01*
X21387Y112616D01*
X21344Y112687D01*
X21301Y112765D01*
X21259Y112850D01*
X21220Y112942D01*
X21184Y113045D01*
X21156Y113152D01*
X21135Y113265D01*
X21117Y113386D01*
X21113Y113514D01*
Y113556D01*
X21117Y113588D01*
X21120Y113631D01*
X21124Y113677D01*
X21131Y113727D01*
X21142Y113784D01*
X21152Y113847D01*
X21167Y113911D01*
X21184Y113979D01*
X21206Y114050D01*
X21230Y114121D01*
X21259Y114192D01*
X21291Y114259D01*
X21330Y114330D01*
X21333Y114334D01*
X21340Y114348D01*
X21351Y114366D01*
X21369Y114391D01*
X21390Y114423D01*
X21419Y114454D01*
X21451Y114494D01*
X21486Y114536D01*
X21529Y114582D01*
X21575Y114628D01*
X21624Y114674D01*
X21678Y114721D01*
X21734Y114763D01*
X21798Y114809D01*
X21866Y114848D01*
X21937Y114887D01*
X21940Y114891D01*
X21955Y114895D01*
X21976Y114905D01*
X22004Y114916D01*
X22040Y114934D01*
X22086Y114948D01*
X22136Y114966D01*
X22193Y114983D01*
X22253Y115001D01*
X22320Y115019D01*
X22395Y115037D01*
X22469Y115051D01*
X22551Y115061D01*
X22636Y115072D01*
X22721Y115076D01*
X22814Y115079D01*
X22821D01*
X22835D01*
X22863D01*
X22899Y115076D01*
D02*
G37*
G36*
X24447Y110880D02*
X21170D01*
Y111313D01*
X24447D01*
Y110880D01*
D02*
G37*
G36*
X22888Y110205D02*
X22927D01*
X22970Y110202D01*
X23016Y110198D01*
X23119Y110187D01*
X23229Y110170D01*
X23343Y110148D01*
X23456Y110120D01*
X23460D01*
X23471Y110116D01*
X23485Y110109D01*
X23502Y110106D01*
X23527Y110095D01*
X23556Y110084D01*
X23623Y110059D01*
X23698Y110028D01*
X23779Y109988D01*
X23857Y109946D01*
X23932Y109896D01*
X23935D01*
X23939Y109889D01*
X23950Y109882D01*
X23964Y109871D01*
X23996Y109846D01*
X24038Y109808D01*
X24088Y109765D01*
X24138Y109715D01*
X24184Y109658D01*
X24230Y109598D01*
Y109595D01*
X24234Y109591D01*
X24248Y109570D01*
X24266Y109534D01*
X24291Y109488D01*
X24315Y109431D01*
X24344Y109364D01*
X24369Y109286D01*
X24394Y109204D01*
Y109200D01*
X24397Y109193D01*
Y109183D01*
X24401Y109165D01*
X24404Y109144D01*
X24411Y109115D01*
X24415Y109087D01*
X24418Y109055D01*
X24429Y108977D01*
X24440Y108888D01*
X24443Y108789D01*
X24447Y108682D01*
Y107500D01*
X21170D01*
Y108721D01*
X21174Y108757D01*
Y108799D01*
X21177Y108842D01*
X21181Y108938D01*
X21191Y109034D01*
X21202Y109129D01*
X21213Y109172D01*
X21220Y109211D01*
Y109215D01*
X21223Y109225D01*
X21227Y109239D01*
X21234Y109257D01*
X21241Y109282D01*
X21248Y109310D01*
X21273Y109378D01*
X21305Y109452D01*
X21344Y109531D01*
X21394Y109612D01*
X21454Y109690D01*
X21458Y109694D01*
X21465Y109701D01*
X21475Y109715D01*
X21493Y109733D01*
X21514Y109754D01*
X21543Y109779D01*
X21571Y109808D01*
X21607Y109836D01*
X21646Y109868D01*
X21688Y109900D01*
X21734Y109932D01*
X21784Y109964D01*
X21894Y110024D01*
X22015Y110077D01*
X22018D01*
X22029Y110084D01*
X22050Y110088D01*
X22075Y110099D01*
X22107Y110109D01*
X22146Y110120D01*
X22189Y110131D01*
X22239Y110145D01*
X22295Y110155D01*
X22356Y110166D01*
X22420Y110177D01*
X22487Y110187D01*
X22558Y110198D01*
X22633Y110202D01*
X22792Y110209D01*
X22796D01*
X22810D01*
X22828D01*
X22856D01*
X22888Y110205D01*
D02*
G37*
G36*
X36447Y125090D02*
X34792Y123926D01*
X35311Y123390D01*
X36447D01*
Y122957D01*
X33170D01*
Y123390D01*
X34792D01*
X33170Y125016D01*
Y125605D01*
X34498Y124231D01*
X36447Y125665D01*
Y125090D01*
D02*
G37*
G36*
Y120412D02*
X33170D01*
Y120845D01*
X36060D01*
Y122460D01*
X36447D01*
Y120412D01*
D02*
G37*
G36*
X35431Y119890D02*
X35456Y119883D01*
X35495Y119868D01*
X35538Y119854D01*
X35591Y119833D01*
X35648Y119812D01*
X35708Y119783D01*
X35776Y119751D01*
X35840Y119716D01*
X35911Y119677D01*
X35978Y119631D01*
X36042Y119581D01*
X36106Y119528D01*
X36166Y119467D01*
X36223Y119403D01*
X36227Y119400D01*
X36234Y119386D01*
X36248Y119368D01*
X36266Y119339D01*
X36287Y119307D01*
X36312Y119265D01*
X36337Y119219D01*
X36362Y119162D01*
X36386Y119102D01*
X36411Y119038D01*
X36436Y118967D01*
X36457Y118889D01*
X36475Y118807D01*
X36489Y118722D01*
X36496Y118633D01*
X36500Y118537D01*
Y118487D01*
X36496Y118448D01*
X36493Y118406D01*
X36489Y118352D01*
X36482Y118296D01*
X36472Y118232D01*
X36461Y118164D01*
X36447Y118093D01*
X36429Y118022D01*
X36411Y117951D01*
X36386Y117877D01*
X36358Y117806D01*
X36326Y117738D01*
X36287Y117675D01*
X36283Y117671D01*
X36276Y117660D01*
X36266Y117642D01*
X36248Y117621D01*
X36223Y117593D01*
X36198Y117561D01*
X36166Y117525D01*
X36127Y117486D01*
X36085Y117447D01*
X36039Y117405D01*
X35989Y117366D01*
X35932Y117323D01*
X35872Y117280D01*
X35808Y117241D01*
X35737Y117206D01*
X35662Y117170D01*
X35659Y117167D01*
X35644Y117163D01*
X35620Y117156D01*
X35591Y117146D01*
X35552Y117131D01*
X35509Y117117D01*
X35456Y117103D01*
X35399Y117085D01*
X35336Y117071D01*
X35268Y117053D01*
X35197Y117039D01*
X35119Y117028D01*
X34956Y117007D01*
X34870Y117004D01*
X34785Y117000D01*
X34778D01*
X34764D01*
X34736D01*
X34700Y117004D01*
X34654Y117007D01*
X34601Y117011D01*
X34544Y117018D01*
X34480Y117025D01*
X34413Y117035D01*
X34342Y117046D01*
X34189Y117082D01*
X34114Y117106D01*
X34040Y117131D01*
X33962Y117160D01*
X33891Y117195D01*
X33887Y117199D01*
X33873Y117206D01*
X33855Y117217D01*
X33827Y117231D01*
X33795Y117252D01*
X33759Y117277D01*
X33720Y117305D01*
X33674Y117337D01*
X33632Y117376D01*
X33582Y117415D01*
X33536Y117462D01*
X33486Y117511D01*
X33440Y117564D01*
X33394Y117621D01*
X33351Y117685D01*
X33312Y117749D01*
X33309Y117753D01*
X33305Y117767D01*
X33294Y117785D01*
X33280Y117813D01*
X33266Y117845D01*
X33248Y117887D01*
X33230Y117934D01*
X33213Y117983D01*
X33195Y118040D01*
X33177Y118104D01*
X33159Y118168D01*
X33145Y118239D01*
X33120Y118385D01*
X33117Y118463D01*
X33113Y118544D01*
Y118590D01*
X33117Y118626D01*
X33120Y118668D01*
X33127Y118718D01*
X33135Y118771D01*
X33145Y118832D01*
X33159Y118896D01*
X33174Y118963D01*
X33195Y119031D01*
X33220Y119102D01*
X33248Y119173D01*
X33284Y119240D01*
X33319Y119307D01*
X33365Y119371D01*
X33369Y119375D01*
X33376Y119386D01*
X33390Y119403D01*
X33411Y119425D01*
X33436Y119453D01*
X33468Y119485D01*
X33504Y119517D01*
X33546Y119556D01*
X33593Y119595D01*
X33646Y119634D01*
X33703Y119673D01*
X33766Y119709D01*
X33834Y119748D01*
X33909Y119780D01*
X33987Y119812D01*
X34068Y119840D01*
X34168Y119414D01*
X34164D01*
X34153Y119407D01*
X34132Y119403D01*
X34107Y119393D01*
X34079Y119382D01*
X34047Y119364D01*
X33969Y119329D01*
X33884Y119283D01*
X33795Y119222D01*
X33713Y119158D01*
X33678Y119119D01*
X33646Y119080D01*
X33642Y119077D01*
X33639Y119070D01*
X33632Y119059D01*
X33621Y119041D01*
X33607Y119020D01*
X33593Y118995D01*
X33578Y118967D01*
X33564Y118931D01*
X33550Y118892D01*
X33536Y118853D01*
X33507Y118761D01*
X33490Y118654D01*
X33483Y118597D01*
Y118502D01*
X33486Y118473D01*
X33490Y118441D01*
X33493Y118402D01*
X33497Y118360D01*
X33504Y118317D01*
X33529Y118214D01*
X33561Y118108D01*
X33582Y118054D01*
X33607Y118001D01*
X33635Y117951D01*
X33667Y117902D01*
X33671Y117898D01*
X33674Y117891D01*
X33685Y117877D01*
X33699Y117859D01*
X33717Y117841D01*
X33742Y117816D01*
X33766Y117792D01*
X33795Y117763D01*
X33830Y117735D01*
X33866Y117703D01*
X33948Y117646D01*
X34043Y117593D01*
X34153Y117547D01*
X34157D01*
X34168Y117543D01*
X34185Y117536D01*
X34207Y117533D01*
X34235Y117525D01*
X34267Y117515D01*
X34306Y117508D01*
X34345Y117497D01*
X34391Y117486D01*
X34441Y117479D01*
X34547Y117462D01*
X34661Y117451D01*
X34782Y117447D01*
X34785D01*
X34800D01*
X34821D01*
X34853Y117451D01*
X34888D01*
X34931Y117454D01*
X34977Y117458D01*
X35030Y117462D01*
X35087Y117469D01*
X35144Y117476D01*
X35268Y117497D01*
X35392Y117529D01*
X35513Y117568D01*
X35517D01*
X35527Y117575D01*
X35541Y117582D01*
X35563Y117589D01*
X35591Y117604D01*
X35620Y117621D01*
X35687Y117660D01*
X35765Y117713D01*
X35840Y117777D01*
X35914Y117856D01*
X35946Y117898D01*
X35978Y117944D01*
Y117948D01*
X35985Y117955D01*
X35992Y117969D01*
X36003Y117990D01*
X36014Y118015D01*
X36028Y118044D01*
X36039Y118076D01*
X36053Y118111D01*
X36081Y118193D01*
X36106Y118289D01*
X36124Y118392D01*
X36127Y118445D01*
X36131Y118502D01*
Y118537D01*
X36127Y118562D01*
X36124Y118594D01*
X36120Y118629D01*
X36113Y118672D01*
X36106Y118715D01*
X36081Y118814D01*
X36063Y118864D01*
X36042Y118917D01*
X36017Y118970D01*
X35989Y119020D01*
X35957Y119070D01*
X35921Y119119D01*
X35918Y119123D01*
X35911Y119130D01*
X35900Y119144D01*
X35882Y119162D01*
X35861Y119180D01*
X35833Y119204D01*
X35801Y119229D01*
X35765Y119258D01*
X35723Y119286D01*
X35676Y119315D01*
X35627Y119343D01*
X35570Y119371D01*
X35509Y119396D01*
X35442Y119421D01*
X35371Y119446D01*
X35296Y119464D01*
X35407Y119897D01*
X35414D01*
X35431Y119890D01*
D02*
G37*
G36*
X34888Y136677D02*
X34927D01*
X34970Y136674D01*
X35016Y136670D01*
X35119Y136660D01*
X35229Y136642D01*
X35343Y136620D01*
X35456Y136592D01*
X35460D01*
X35471Y136589D01*
X35485Y136581D01*
X35502Y136578D01*
X35527Y136567D01*
X35556Y136557D01*
X35623Y136532D01*
X35698Y136500D01*
X35779Y136461D01*
X35857Y136418D01*
X35932Y136368D01*
X35936D01*
X35939Y136361D01*
X35950Y136354D01*
X35964Y136344D01*
X35996Y136319D01*
X36039Y136280D01*
X36088Y136237D01*
X36138Y136187D01*
X36184Y136131D01*
X36230Y136070D01*
Y136067D01*
X36234Y136063D01*
X36248Y136042D01*
X36266Y136006D01*
X36290Y135960D01*
X36315Y135903D01*
X36344Y135836D01*
X36369Y135758D01*
X36393Y135676D01*
Y135673D01*
X36397Y135666D01*
Y135655D01*
X36401Y135637D01*
X36404Y135616D01*
X36411Y135587D01*
X36415Y135559D01*
X36418Y135527D01*
X36429Y135449D01*
X36440Y135360D01*
X36443Y135261D01*
X36447Y135154D01*
Y133972D01*
X33170D01*
Y135193D01*
X33174Y135229D01*
Y135272D01*
X33177Y135314D01*
X33181Y135410D01*
X33191Y135506D01*
X33202Y135602D01*
X33213Y135644D01*
X33220Y135683D01*
Y135687D01*
X33223Y135697D01*
X33227Y135712D01*
X33234Y135729D01*
X33241Y135754D01*
X33248Y135783D01*
X33273Y135850D01*
X33305Y135925D01*
X33344Y136003D01*
X33394Y136084D01*
X33454Y136162D01*
X33458Y136166D01*
X33465Y136173D01*
X33475Y136187D01*
X33493Y136205D01*
X33514Y136226D01*
X33543Y136251D01*
X33571Y136280D01*
X33607Y136308D01*
X33646Y136340D01*
X33688Y136372D01*
X33735Y136404D01*
X33784Y136436D01*
X33894Y136496D01*
X34015Y136549D01*
X34018D01*
X34029Y136557D01*
X34051Y136560D01*
X34075Y136571D01*
X34107Y136581D01*
X34146Y136592D01*
X34189Y136603D01*
X34239Y136617D01*
X34295Y136628D01*
X34356Y136638D01*
X34420Y136649D01*
X34487Y136660D01*
X34558Y136670D01*
X34633Y136674D01*
X34792Y136681D01*
X34796D01*
X34810D01*
X34828D01*
X34856D01*
X34888Y136677D01*
D02*
G37*
G36*
X36447Y132797D02*
X33876Y131079D01*
X36447D01*
Y130664D01*
X33170D01*
Y131107D01*
X35744Y132829D01*
X33170D01*
Y133244D01*
X36447D01*
Y132797D01*
D02*
G37*
G36*
X35996Y130025D02*
X36003Y130014D01*
X36017Y129996D01*
X36035Y129971D01*
X36056Y129943D01*
X36077Y129907D01*
X36106Y129868D01*
X36134Y129826D01*
X36163Y129780D01*
X36195Y129726D01*
X36259Y129616D01*
X36319Y129496D01*
X36372Y129368D01*
Y129364D01*
X36379Y129354D01*
X36383Y129336D01*
X36393Y129307D01*
X36401Y129279D01*
X36411Y129240D01*
X36425Y129201D01*
X36436Y129155D01*
X36447Y129102D01*
X36461Y129048D01*
X36479Y128931D01*
X36493Y128803D01*
X36500Y128672D01*
Y128626D01*
X36496Y128590D01*
X36493Y128548D01*
X36489Y128498D01*
X36482Y128441D01*
X36475Y128381D01*
X36465Y128317D01*
X36450Y128246D01*
X36432Y128175D01*
X36411Y128097D01*
X36390Y128022D01*
X36362Y127948D01*
X36330Y127870D01*
X36294Y127795D01*
X36290Y127792D01*
X36283Y127777D01*
X36273Y127756D01*
X36255Y127731D01*
X36234Y127699D01*
X36209Y127660D01*
X36177Y127618D01*
X36141Y127571D01*
X36102Y127525D01*
X36056Y127476D01*
X36010Y127426D01*
X35957Y127376D01*
X35897Y127330D01*
X35836Y127284D01*
X35769Y127238D01*
X35698Y127199D01*
X35694Y127195D01*
X35680Y127192D01*
X35659Y127181D01*
X35630Y127167D01*
X35591Y127153D01*
X35549Y127135D01*
X35499Y127117D01*
X35442Y127099D01*
X35382Y127082D01*
X35314Y127064D01*
X35240Y127046D01*
X35165Y127032D01*
X35083Y127018D01*
X35002Y127007D01*
X34913Y127004D01*
X34824Y127000D01*
X34817D01*
X34803D01*
X34778D01*
X34743Y127004D01*
X34700Y127007D01*
X34650Y127011D01*
X34594Y127018D01*
X34533Y127025D01*
X34466Y127035D01*
X34395Y127050D01*
X34246Y127085D01*
X34168Y127106D01*
X34089Y127135D01*
X34011Y127163D01*
X33933Y127199D01*
X33930Y127202D01*
X33916Y127209D01*
X33894Y127220D01*
X33866Y127234D01*
X33830Y127256D01*
X33791Y127280D01*
X33749Y127312D01*
X33699Y127344D01*
X33649Y127383D01*
X33600Y127426D01*
X33550Y127472D01*
X33497Y127525D01*
X33447Y127579D01*
X33401Y127639D01*
X33355Y127703D01*
X33316Y127770D01*
X33312Y127774D01*
X33309Y127788D01*
X33298Y127809D01*
X33284Y127838D01*
X33270Y127873D01*
X33252Y127916D01*
X33234Y127966D01*
X33213Y128019D01*
X33195Y128079D01*
X33177Y128147D01*
X33159Y128218D01*
X33145Y128296D01*
X33131Y128374D01*
X33120Y128459D01*
X33117Y128548D01*
X33113Y128637D01*
Y128697D01*
X33117Y128729D01*
X33120Y128764D01*
X33124Y128803D01*
X33127Y128849D01*
X33142Y128949D01*
X33163Y129059D01*
X33191Y129169D01*
X33230Y129279D01*
Y129283D01*
X33234Y129293D01*
X33241Y129307D01*
X33252Y129325D01*
X33262Y129350D01*
X33277Y129378D01*
X33312Y129442D01*
X33358Y129517D01*
X33411Y129592D01*
X33475Y129663D01*
X33550Y129730D01*
X33553Y129734D01*
X33561Y129737D01*
X33571Y129744D01*
X33585Y129758D01*
X33607Y129769D01*
X33632Y129787D01*
X33660Y129805D01*
X33696Y129822D01*
X33731Y129843D01*
X33770Y129861D01*
X33816Y129883D01*
X33862Y129904D01*
X33969Y129943D01*
X34086Y129978D01*
X34192Y129584D01*
X34189D01*
X34182Y129581D01*
X34168Y129577D01*
X34150Y129570D01*
X34132Y129563D01*
X34107Y129556D01*
X34051Y129535D01*
X33987Y129506D01*
X33923Y129474D01*
X33859Y129439D01*
X33802Y129400D01*
X33795Y129396D01*
X33777Y129378D01*
X33752Y129354D01*
X33717Y129322D01*
X33681Y129276D01*
X33642Y129222D01*
X33607Y129158D01*
X33571Y129087D01*
Y129084D01*
X33568Y129077D01*
X33564Y129066D01*
X33557Y129052D01*
X33550Y129034D01*
X33543Y129009D01*
X33525Y128956D01*
X33511Y128889D01*
X33497Y128814D01*
X33486Y128729D01*
X33483Y128640D01*
Y128590D01*
X33486Y128566D01*
Y128534D01*
X33490Y128502D01*
X33493Y128463D01*
X33504Y128384D01*
X33522Y128296D01*
X33543Y128210D01*
X33575Y128125D01*
Y128122D01*
X33578Y128115D01*
X33585Y128104D01*
X33593Y128090D01*
X33610Y128051D01*
X33639Y128001D01*
X33674Y127944D01*
X33717Y127887D01*
X33763Y127827D01*
X33816Y127774D01*
X33823Y127767D01*
X33841Y127753D01*
X33873Y127728D01*
X33912Y127699D01*
X33958Y127667D01*
X34015Y127632D01*
X34075Y127600D01*
X34139Y127571D01*
X34143D01*
X34153Y127568D01*
X34168Y127561D01*
X34192Y127554D01*
X34221Y127543D01*
X34253Y127532D01*
X34292Y127522D01*
X34334Y127511D01*
X34381Y127497D01*
X34434Y127486D01*
X34544Y127469D01*
X34668Y127454D01*
X34800Y127447D01*
X34803D01*
X34817D01*
X34842D01*
X34870Y127451D01*
X34910D01*
X34952Y127454D01*
X35002Y127462D01*
X35055Y127465D01*
X35172Y127483D01*
X35293Y127511D01*
X35417Y127547D01*
X35534Y127596D01*
X35538Y127600D01*
X35549Y127603D01*
X35563Y127611D01*
X35584Y127625D01*
X35605Y127639D01*
X35634Y127660D01*
X35698Y127706D01*
X35769Y127770D01*
X35843Y127845D01*
X35911Y127930D01*
X35943Y127980D01*
X35971Y128033D01*
Y128037D01*
X35978Y128047D01*
X35985Y128061D01*
X35992Y128083D01*
X36003Y128111D01*
X36017Y128143D01*
X36028Y128179D01*
X36042Y128218D01*
X36056Y128260D01*
X36067Y128310D01*
X36092Y128413D01*
X36106Y128526D01*
X36113Y128647D01*
Y128676D01*
X36110Y128697D01*
Y128722D01*
X36106Y128750D01*
X36102Y128782D01*
X36099Y128821D01*
X36088Y128903D01*
X36067Y128995D01*
X36042Y129095D01*
X36007Y129194D01*
Y129197D01*
X36003Y129204D01*
X35996Y129219D01*
X35989Y129240D01*
X35978Y129261D01*
X35964Y129286D01*
X35936Y129347D01*
X35900Y129414D01*
X35861Y129481D01*
X35822Y129545D01*
X35776Y129602D01*
X35162D01*
Y128640D01*
X34775D01*
Y130028D01*
X35992D01*
X35996Y130025D01*
D02*
G37*
G36*
X23520Y104457D02*
X23549D01*
X23588Y104450D01*
X23630Y104443D01*
X23676Y104436D01*
X23730Y104421D01*
X23786Y104404D01*
X23843Y104382D01*
X23904Y104358D01*
X23964Y104325D01*
X24028Y104290D01*
X24088Y104247D01*
X24149Y104201D01*
X24205Y104145D01*
X24209Y104141D01*
X24220Y104130D01*
X24234Y104113D01*
X24251Y104088D01*
X24273Y104059D01*
X24298Y104020D01*
X24326Y103978D01*
X24351Y103928D01*
X24379Y103875D01*
X24408Y103814D01*
X24433Y103751D01*
X24454Y103679D01*
X24472Y103605D01*
X24486Y103527D01*
X24496Y103445D01*
X24500Y103356D01*
Y103339D01*
X24496Y103314D01*
Y103285D01*
X24493Y103246D01*
X24486Y103204D01*
X24479Y103158D01*
X24468Y103104D01*
X24454Y103048D01*
X24436Y102991D01*
X24418Y102930D01*
X24394Y102870D01*
X24362Y102810D01*
X24330Y102753D01*
X24291Y102693D01*
X24244Y102639D01*
X24241Y102636D01*
X24234Y102629D01*
X24220Y102614D01*
X24198Y102593D01*
X24173Y102572D01*
X24141Y102547D01*
X24106Y102522D01*
X24063Y102494D01*
X24021Y102465D01*
X23968Y102437D01*
X23914Y102409D01*
X23854Y102384D01*
X23790Y102362D01*
X23723Y102341D01*
X23652Y102327D01*
X23577Y102316D01*
X23524Y102717D01*
X23527D01*
X23538Y102721D01*
X23556Y102725D01*
X23581Y102732D01*
X23609Y102739D01*
X23641Y102746D01*
X23716Y102771D01*
X23797Y102803D01*
X23879Y102842D01*
X23953Y102891D01*
X23985Y102920D01*
X24017Y102948D01*
Y102952D01*
X24024Y102955D01*
X24031Y102966D01*
X24042Y102977D01*
X24063Y103012D01*
X24092Y103062D01*
X24120Y103122D01*
X24141Y103190D01*
X24159Y103271D01*
X24166Y103356D01*
Y103385D01*
X24163Y103406D01*
X24159Y103427D01*
X24156Y103459D01*
X24141Y103523D01*
X24120Y103601D01*
X24085Y103683D01*
X24060Y103722D01*
X24035Y103761D01*
X24006Y103800D01*
X23971Y103839D01*
X23968Y103843D01*
X23960Y103846D01*
X23950Y103857D01*
X23936Y103871D01*
X23918Y103885D01*
X23893Y103900D01*
X23868Y103917D01*
X23836Y103939D01*
X23765Y103974D01*
X23684Y104002D01*
X23588Y104027D01*
X23538Y104031D01*
X23485Y104034D01*
X23481D01*
X23474D01*
X23456D01*
X23439Y104031D01*
X23414Y104027D01*
X23389Y104024D01*
X23325Y104013D01*
X23250Y103988D01*
X23176Y103956D01*
X23137Y103935D01*
X23101Y103910D01*
X23066Y103882D01*
X23030Y103850D01*
X23027Y103846D01*
X23023Y103843D01*
X23012Y103832D01*
X23002Y103818D01*
X22988Y103800D01*
X22974Y103779D01*
X22938Y103726D01*
X22906Y103658D01*
X22878Y103580D01*
X22856Y103491D01*
X22853Y103442D01*
X22849Y103392D01*
Y103371D01*
X22853Y103346D01*
Y103314D01*
X22860Y103271D01*
X22867Y103225D01*
X22878Y103168D01*
X22892Y103108D01*
X22540Y103150D01*
Y103158D01*
X22544Y103175D01*
X22547Y103197D01*
Y103243D01*
X22544Y103261D01*
Y103285D01*
X22540Y103310D01*
X22530Y103371D01*
X22515Y103442D01*
X22491Y103520D01*
X22459Y103601D01*
X22413Y103679D01*
Y103683D01*
X22406Y103690D01*
X22398Y103697D01*
X22388Y103711D01*
X22356Y103747D01*
X22310Y103786D01*
X22253Y103822D01*
X22182Y103857D01*
X22143Y103871D01*
X22097Y103878D01*
X22050Y103885D01*
X22001Y103889D01*
X21997D01*
X21990D01*
X21980D01*
X21962Y103885D01*
X21923Y103882D01*
X21869Y103871D01*
X21813Y103853D01*
X21752Y103825D01*
X21688Y103786D01*
X21660Y103765D01*
X21632Y103736D01*
X21624Y103729D01*
X21610Y103708D01*
X21586Y103676D01*
X21557Y103633D01*
X21532Y103577D01*
X21507Y103509D01*
X21493Y103435D01*
X21486Y103349D01*
Y103328D01*
X21490Y103310D01*
Y103289D01*
X21493Y103268D01*
X21504Y103211D01*
X21521Y103150D01*
X21550Y103083D01*
X21586Y103019D01*
X21635Y102955D01*
X21642Y102948D01*
X21664Y102930D01*
X21696Y102902D01*
X21745Y102874D01*
X21805Y102838D01*
X21884Y102806D01*
X21972Y102778D01*
X22075Y102756D01*
X22004Y102355D01*
X22001D01*
X21987Y102359D01*
X21965Y102362D01*
X21937Y102369D01*
X21905Y102380D01*
X21866Y102391D01*
X21823Y102405D01*
X21777Y102423D01*
X21674Y102469D01*
X21624Y102494D01*
X21571Y102526D01*
X21521Y102561D01*
X21472Y102600D01*
X21422Y102643D01*
X21380Y102689D01*
X21376Y102693D01*
X21369Y102700D01*
X21358Y102717D01*
X21344Y102735D01*
X21326Y102764D01*
X21308Y102792D01*
X21287Y102827D01*
X21266Y102870D01*
X21248Y102913D01*
X21227Y102962D01*
X21209Y103016D01*
X21191Y103072D01*
X21177Y103136D01*
X21167Y103200D01*
X21159Y103268D01*
X21156Y103339D01*
Y103385D01*
X21159Y103410D01*
X21163Y103435D01*
X21170Y103502D01*
X21184Y103577D01*
X21206Y103662D01*
X21234Y103747D01*
X21273Y103832D01*
Y103836D01*
X21277Y103843D01*
X21284Y103853D01*
X21294Y103871D01*
X21319Y103910D01*
X21355Y103960D01*
X21401Y104017D01*
X21454Y104074D01*
X21514Y104130D01*
X21586Y104180D01*
X21589D01*
X21592Y104183D01*
X21607Y104191D01*
X21621Y104198D01*
X21639Y104208D01*
X21660Y104219D01*
X21713Y104240D01*
X21777Y104262D01*
X21848Y104283D01*
X21926Y104297D01*
X22008Y104301D01*
X22011D01*
X22018D01*
X22029D01*
X22043D01*
X22086Y104294D01*
X22136Y104287D01*
X22196Y104272D01*
X22260Y104251D01*
X22327Y104223D01*
X22395Y104183D01*
X22398D01*
X22402Y104180D01*
X22423Y104162D01*
X22455Y104137D01*
X22494Y104098D01*
X22540Y104052D01*
X22587Y103992D01*
X22629Y103924D01*
X22672Y103846D01*
Y103850D01*
X22675Y103860D01*
X22679Y103875D01*
X22686Y103896D01*
X22693Y103917D01*
X22704Y103946D01*
X22732Y104013D01*
X22771Y104084D01*
X22817Y104159D01*
X22878Y104233D01*
X22952Y104297D01*
X22956Y104301D01*
X22963Y104304D01*
X22974Y104311D01*
X22991Y104322D01*
X23009Y104336D01*
X23034Y104350D01*
X23062Y104365D01*
X23098Y104379D01*
X23133Y104393D01*
X23172Y104407D01*
X23261Y104436D01*
X23364Y104453D01*
X23421Y104460D01*
X23478D01*
X23481D01*
X23495D01*
X23520Y104457D01*
D02*
G37*
G36*
X24443Y101269D02*
X23985D01*
Y101727D01*
X24443D01*
Y101269D01*
D02*
G37*
G36*
X23520Y100641D02*
X23549D01*
X23588Y100634D01*
X23630Y100626D01*
X23676Y100619D01*
X23730Y100605D01*
X23786Y100587D01*
X23843Y100566D01*
X23904Y100541D01*
X23964Y100509D01*
X24028Y100474D01*
X24088Y100431D01*
X24149Y100385D01*
X24205Y100328D01*
X24209Y100325D01*
X24220Y100314D01*
X24234Y100296D01*
X24251Y100271D01*
X24273Y100243D01*
X24298Y100204D01*
X24326Y100161D01*
X24351Y100112D01*
X24379Y100058D01*
X24408Y99998D01*
X24433Y99934D01*
X24454Y99863D01*
X24472Y99789D01*
X24486Y99711D01*
X24496Y99629D01*
X24500Y99540D01*
Y99522D01*
X24496Y99498D01*
Y99469D01*
X24493Y99430D01*
X24486Y99388D01*
X24479Y99341D01*
X24468Y99288D01*
X24454Y99231D01*
X24436Y99174D01*
X24418Y99114D01*
X24394Y99054D01*
X24362Y98993D01*
X24330Y98937D01*
X24291Y98876D01*
X24244Y98823D01*
X24241Y98820D01*
X24234Y98812D01*
X24220Y98798D01*
X24198Y98777D01*
X24173Y98756D01*
X24141Y98731D01*
X24106Y98706D01*
X24063Y98677D01*
X24021Y98649D01*
X23968Y98621D01*
X23914Y98592D01*
X23854Y98567D01*
X23790Y98546D01*
X23723Y98525D01*
X23652Y98511D01*
X23577Y98500D01*
X23524Y98901D01*
X23527D01*
X23538Y98905D01*
X23556Y98908D01*
X23581Y98915D01*
X23609Y98922D01*
X23641Y98930D01*
X23716Y98954D01*
X23797Y98986D01*
X23879Y99025D01*
X23953Y99075D01*
X23985Y99103D01*
X24017Y99132D01*
Y99136D01*
X24024Y99139D01*
X24031Y99150D01*
X24042Y99160D01*
X24063Y99196D01*
X24092Y99246D01*
X24120Y99306D01*
X24141Y99373D01*
X24159Y99455D01*
X24166Y99540D01*
Y99569D01*
X24163Y99590D01*
X24159Y99611D01*
X24156Y99643D01*
X24141Y99707D01*
X24120Y99785D01*
X24085Y99867D01*
X24060Y99906D01*
X24035Y99945D01*
X24006Y99984D01*
X23971Y100023D01*
X23968Y100027D01*
X23960Y100030D01*
X23950Y100041D01*
X23936Y100055D01*
X23918Y100069D01*
X23893Y100083D01*
X23868Y100101D01*
X23836Y100122D01*
X23765Y100158D01*
X23684Y100186D01*
X23588Y100211D01*
X23538Y100215D01*
X23485Y100218D01*
X23481D01*
X23474D01*
X23456D01*
X23439Y100215D01*
X23414Y100211D01*
X23389Y100208D01*
X23325Y100197D01*
X23250Y100172D01*
X23176Y100140D01*
X23137Y100119D01*
X23101Y100094D01*
X23066Y100066D01*
X23030Y100034D01*
X23027Y100030D01*
X23023Y100027D01*
X23012Y100016D01*
X23002Y100002D01*
X22988Y99984D01*
X22974Y99963D01*
X22938Y99909D01*
X22906Y99842D01*
X22878Y99764D01*
X22856Y99675D01*
X22853Y99625D01*
X22849Y99576D01*
Y99554D01*
X22853Y99529D01*
Y99498D01*
X22860Y99455D01*
X22867Y99409D01*
X22878Y99352D01*
X22892Y99292D01*
X22540Y99334D01*
Y99341D01*
X22544Y99359D01*
X22547Y99380D01*
Y99427D01*
X22544Y99444D01*
Y99469D01*
X22540Y99494D01*
X22530Y99554D01*
X22515Y99625D01*
X22491Y99703D01*
X22459Y99785D01*
X22413Y99863D01*
Y99867D01*
X22406Y99874D01*
X22398Y99881D01*
X22388Y99895D01*
X22356Y99931D01*
X22310Y99970D01*
X22253Y100005D01*
X22182Y100041D01*
X22143Y100055D01*
X22097Y100062D01*
X22050Y100069D01*
X22001Y100073D01*
X21997D01*
X21990D01*
X21980D01*
X21962Y100069D01*
X21923Y100066D01*
X21869Y100055D01*
X21813Y100037D01*
X21752Y100009D01*
X21688Y99970D01*
X21660Y99948D01*
X21632Y99920D01*
X21624Y99913D01*
X21610Y99892D01*
X21586Y99860D01*
X21557Y99817D01*
X21532Y99760D01*
X21507Y99693D01*
X21493Y99618D01*
X21486Y99533D01*
Y99512D01*
X21490Y99494D01*
Y99473D01*
X21493Y99451D01*
X21504Y99395D01*
X21521Y99334D01*
X21550Y99267D01*
X21586Y99203D01*
X21635Y99139D01*
X21642Y99132D01*
X21664Y99114D01*
X21696Y99086D01*
X21745Y99057D01*
X21805Y99022D01*
X21884Y98990D01*
X21972Y98962D01*
X22075Y98940D01*
X22004Y98539D01*
X22001D01*
X21987Y98543D01*
X21965Y98546D01*
X21937Y98553D01*
X21905Y98564D01*
X21866Y98575D01*
X21823Y98589D01*
X21777Y98606D01*
X21674Y98653D01*
X21624Y98677D01*
X21571Y98709D01*
X21521Y98745D01*
X21472Y98784D01*
X21422Y98827D01*
X21380Y98873D01*
X21376Y98876D01*
X21369Y98883D01*
X21358Y98901D01*
X21344Y98919D01*
X21326Y98947D01*
X21308Y98976D01*
X21287Y99011D01*
X21266Y99054D01*
X21248Y99096D01*
X21227Y99146D01*
X21209Y99199D01*
X21191Y99256D01*
X21177Y99320D01*
X21167Y99384D01*
X21159Y99451D01*
X21156Y99522D01*
Y99569D01*
X21159Y99593D01*
X21163Y99618D01*
X21170Y99686D01*
X21184Y99760D01*
X21206Y99845D01*
X21234Y99931D01*
X21273Y100016D01*
Y100019D01*
X21277Y100027D01*
X21284Y100037D01*
X21294Y100055D01*
X21319Y100094D01*
X21355Y100144D01*
X21401Y100200D01*
X21454Y100257D01*
X21514Y100314D01*
X21586Y100364D01*
X21589D01*
X21592Y100367D01*
X21607Y100374D01*
X21621Y100382D01*
X21639Y100392D01*
X21660Y100403D01*
X21713Y100424D01*
X21777Y100445D01*
X21848Y100467D01*
X21926Y100481D01*
X22008Y100485D01*
X22011D01*
X22018D01*
X22029D01*
X22043D01*
X22086Y100477D01*
X22136Y100470D01*
X22196Y100456D01*
X22260Y100435D01*
X22327Y100406D01*
X22395Y100367D01*
X22398D01*
X22402Y100364D01*
X22423Y100346D01*
X22455Y100321D01*
X22494Y100282D01*
X22540Y100236D01*
X22587Y100176D01*
X22629Y100108D01*
X22672Y100030D01*
Y100034D01*
X22675Y100044D01*
X22679Y100058D01*
X22686Y100080D01*
X22693Y100101D01*
X22704Y100129D01*
X22732Y100197D01*
X22771Y100268D01*
X22817Y100342D01*
X22878Y100417D01*
X22952Y100481D01*
X22956Y100485D01*
X22963Y100488D01*
X22974Y100495D01*
X22991Y100506D01*
X23009Y100520D01*
X23034Y100534D01*
X23062Y100548D01*
X23098Y100563D01*
X23133Y100577D01*
X23172Y100591D01*
X23261Y100619D01*
X23364Y100637D01*
X23421Y100644D01*
X23478D01*
X23481D01*
X23495D01*
X23520Y100641D01*
D02*
G37*
G36*
X4082Y137837D02*
X4121D01*
X4163Y137833D01*
X4209Y137830D01*
X4312Y137819D01*
X4422Y137801D01*
X4536Y137780D01*
X4650Y137752D01*
X4653D01*
X4664Y137748D01*
X4678Y137741D01*
X4696Y137738D01*
X4721Y137727D01*
X4749Y137716D01*
X4817Y137691D01*
X4891Y137659D01*
X4973Y137620D01*
X5051Y137578D01*
X5125Y137528D01*
X5129D01*
X5132Y137521D01*
X5143Y137514D01*
X5157Y137503D01*
X5189Y137478D01*
X5232Y137439D01*
X5282Y137397D01*
X5331Y137347D01*
X5377Y137290D01*
X5424Y137230D01*
Y137226D01*
X5427Y137223D01*
X5441Y137201D01*
X5459Y137166D01*
X5484Y137120D01*
X5509Y137063D01*
X5537Y136995D01*
X5562Y136917D01*
X5587Y136836D01*
Y136832D01*
X5590Y136825D01*
Y136814D01*
X5594Y136797D01*
X5598Y136775D01*
X5605Y136747D01*
X5608Y136719D01*
X5612Y136687D01*
X5622Y136609D01*
X5633Y136520D01*
X5636Y136420D01*
X5640Y136314D01*
Y135132D01*
X2363D01*
Y136353D01*
X2367Y136389D01*
Y136431D01*
X2371Y136474D01*
X2374Y136569D01*
X2385Y136665D01*
X2395Y136761D01*
X2406Y136804D01*
X2413Y136843D01*
Y136846D01*
X2417Y136857D01*
X2420Y136871D01*
X2427Y136889D01*
X2434Y136914D01*
X2441Y136942D01*
X2466Y137010D01*
X2498Y137084D01*
X2537Y137162D01*
X2587Y137244D01*
X2647Y137322D01*
X2651Y137326D01*
X2658Y137333D01*
X2669Y137347D01*
X2686Y137365D01*
X2708Y137386D01*
X2736Y137411D01*
X2765Y137439D01*
X2800Y137468D01*
X2839Y137500D01*
X2882Y137532D01*
X2928Y137564D01*
X2978Y137595D01*
X3088Y137656D01*
X3208Y137709D01*
X3212D01*
X3223Y137716D01*
X3244Y137720D01*
X3269Y137730D01*
X3301Y137741D01*
X3340Y137752D01*
X3382Y137762D01*
X3432Y137777D01*
X3489Y137787D01*
X3549Y137798D01*
X3613Y137809D01*
X3681Y137819D01*
X3751Y137830D01*
X3826Y137833D01*
X3986Y137840D01*
X3989D01*
X4003D01*
X4021D01*
X4050D01*
X4082Y137837D01*
D02*
G37*
G36*
X5640Y133957D02*
X3070Y132238D01*
X5640D01*
Y131823D01*
X2363D01*
Y132267D01*
X4937Y133989D01*
X2363D01*
Y134404D01*
X5640D01*
Y133957D01*
D02*
G37*
G36*
X5189Y131184D02*
X5196Y131174D01*
X5210Y131156D01*
X5228Y131131D01*
X5250Y131103D01*
X5271Y131067D01*
X5299Y131028D01*
X5328Y130985D01*
X5356Y130939D01*
X5388Y130886D01*
X5452Y130776D01*
X5512Y130655D01*
X5565Y130527D01*
Y130524D01*
X5573Y130513D01*
X5576Y130496D01*
X5587Y130467D01*
X5594Y130439D01*
X5605Y130400D01*
X5619Y130361D01*
X5629Y130314D01*
X5640Y130261D01*
X5654Y130208D01*
X5672Y130091D01*
X5686Y129963D01*
X5693Y129832D01*
Y129786D01*
X5690Y129750D01*
X5686Y129707D01*
X5683Y129658D01*
X5676Y129601D01*
X5669Y129541D01*
X5658Y129477D01*
X5644Y129406D01*
X5626Y129335D01*
X5605Y129256D01*
X5583Y129182D01*
X5555Y129107D01*
X5523Y129029D01*
X5487Y128955D01*
X5484Y128951D01*
X5477Y128937D01*
X5466Y128916D01*
X5448Y128891D01*
X5427Y128859D01*
X5402Y128820D01*
X5370Y128777D01*
X5335Y128731D01*
X5296Y128685D01*
X5250Y128635D01*
X5203Y128586D01*
X5150Y128536D01*
X5090Y128490D01*
X5029Y128444D01*
X4962Y128397D01*
X4891Y128358D01*
X4888Y128355D01*
X4873Y128351D01*
X4852Y128341D01*
X4824Y128326D01*
X4784Y128312D01*
X4742Y128295D01*
X4692Y128277D01*
X4635Y128259D01*
X4575Y128241D01*
X4508Y128224D01*
X4433Y128206D01*
X4358Y128191D01*
X4277Y128177D01*
X4195Y128167D01*
X4106Y128163D01*
X4018Y128160D01*
X4011D01*
X3996D01*
X3972D01*
X3936Y128163D01*
X3893Y128167D01*
X3844Y128170D01*
X3787Y128177D01*
X3727Y128184D01*
X3659Y128195D01*
X3588Y128209D01*
X3439Y128245D01*
X3361Y128266D01*
X3283Y128295D01*
X3205Y128323D01*
X3127Y128358D01*
X3123Y128362D01*
X3109Y128369D01*
X3088Y128380D01*
X3059Y128394D01*
X3024Y128415D01*
X2985Y128440D01*
X2942Y128472D01*
X2892Y128504D01*
X2843Y128543D01*
X2793Y128586D01*
X2743Y128632D01*
X2690Y128685D01*
X2640Y128738D01*
X2594Y128799D01*
X2548Y128863D01*
X2509Y128930D01*
X2505Y128934D01*
X2502Y128948D01*
X2491Y128969D01*
X2477Y128997D01*
X2463Y129033D01*
X2445Y129076D01*
X2427Y129125D01*
X2406Y129178D01*
X2388Y129239D01*
X2371Y129306D01*
X2353Y129377D01*
X2339Y129455D01*
X2324Y129533D01*
X2314Y129619D01*
X2310Y129707D01*
X2307Y129796D01*
Y129857D01*
X2310Y129888D01*
X2314Y129924D01*
X2317Y129963D01*
X2321Y130009D01*
X2335Y130108D01*
X2356Y130219D01*
X2385Y130329D01*
X2424Y130439D01*
Y130442D01*
X2427Y130453D01*
X2434Y130467D01*
X2445Y130485D01*
X2456Y130510D01*
X2470Y130538D01*
X2505Y130602D01*
X2552Y130676D01*
X2605Y130751D01*
X2669Y130822D01*
X2743Y130889D01*
X2747Y130893D01*
X2754Y130897D01*
X2765Y130904D01*
X2779Y130918D01*
X2800Y130929D01*
X2825Y130946D01*
X2853Y130964D01*
X2889Y130982D01*
X2924Y131003D01*
X2963Y131021D01*
X3009Y131042D01*
X3056Y131063D01*
X3162Y131103D01*
X3279Y131138D01*
X3386Y130744D01*
X3382D01*
X3375Y130740D01*
X3361Y130737D01*
X3343Y130730D01*
X3325Y130723D01*
X3301Y130716D01*
X3244Y130694D01*
X3180Y130666D01*
X3116Y130634D01*
X3052Y130598D01*
X2995Y130559D01*
X2988Y130556D01*
X2970Y130538D01*
X2946Y130513D01*
X2910Y130481D01*
X2875Y130435D01*
X2836Y130382D01*
X2800Y130318D01*
X2765Y130247D01*
Y130243D01*
X2761Y130236D01*
X2757Y130226D01*
X2750Y130211D01*
X2743Y130194D01*
X2736Y130169D01*
X2718Y130116D01*
X2704Y130048D01*
X2690Y129974D01*
X2679Y129888D01*
X2676Y129800D01*
Y129750D01*
X2679Y129725D01*
Y129693D01*
X2683Y129661D01*
X2686Y129622D01*
X2697Y129544D01*
X2715Y129455D01*
X2736Y129370D01*
X2768Y129285D01*
Y129281D01*
X2772Y129274D01*
X2779Y129264D01*
X2786Y129249D01*
X2804Y129210D01*
X2832Y129161D01*
X2867Y129104D01*
X2910Y129047D01*
X2956Y128987D01*
X3009Y128934D01*
X3017Y128926D01*
X3034Y128912D01*
X3066Y128887D01*
X3105Y128859D01*
X3151Y128827D01*
X3208Y128791D01*
X3269Y128760D01*
X3333Y128731D01*
X3336D01*
X3347Y128728D01*
X3361Y128720D01*
X3386Y128713D01*
X3414Y128703D01*
X3446Y128692D01*
X3485Y128681D01*
X3528Y128671D01*
X3574Y128657D01*
X3627Y128646D01*
X3737Y128628D01*
X3861Y128614D01*
X3993Y128607D01*
X3996D01*
X4011D01*
X4036D01*
X4064Y128610D01*
X4103D01*
X4146Y128614D01*
X4195Y128621D01*
X4248Y128625D01*
X4366Y128642D01*
X4486Y128671D01*
X4611Y128706D01*
X4728Y128756D01*
X4731Y128760D01*
X4742Y128763D01*
X4756Y128770D01*
X4777Y128784D01*
X4799Y128799D01*
X4827Y128820D01*
X4891Y128866D01*
X4962Y128930D01*
X5037Y129005D01*
X5104Y129090D01*
X5136Y129139D01*
X5164Y129193D01*
Y129196D01*
X5172Y129207D01*
X5179Y129221D01*
X5186Y129242D01*
X5196Y129271D01*
X5210Y129303D01*
X5221Y129338D01*
X5235Y129377D01*
X5250Y129420D01*
X5260Y129470D01*
X5285Y129572D01*
X5299Y129686D01*
X5306Y129807D01*
Y129835D01*
X5303Y129857D01*
Y129881D01*
X5299Y129910D01*
X5296Y129942D01*
X5292Y129981D01*
X5282Y130062D01*
X5260Y130155D01*
X5235Y130254D01*
X5200Y130353D01*
Y130357D01*
X5196Y130364D01*
X5189Y130378D01*
X5182Y130400D01*
X5172Y130421D01*
X5157Y130446D01*
X5129Y130506D01*
X5093Y130574D01*
X5054Y130641D01*
X5015Y130705D01*
X4969Y130762D01*
X4355D01*
Y129800D01*
X3968D01*
Y131188D01*
X5186D01*
X5189Y131184D01*
D02*
G37*
G36*
X4671Y124977D02*
X4699D01*
X4738Y124970D01*
X4781Y124962D01*
X4827Y124955D01*
X4880Y124941D01*
X4937Y124923D01*
X4994Y124902D01*
X5054Y124877D01*
X5115Y124845D01*
X5179Y124810D01*
X5239Y124767D01*
X5299Y124721D01*
X5356Y124664D01*
X5360Y124661D01*
X5370Y124650D01*
X5384Y124632D01*
X5402Y124608D01*
X5424Y124579D01*
X5448Y124540D01*
X5477Y124497D01*
X5502Y124448D01*
X5530Y124395D01*
X5559Y124334D01*
X5583Y124270D01*
X5605Y124199D01*
X5622Y124125D01*
X5637Y124047D01*
X5647Y123965D01*
X5651Y123876D01*
Y123858D01*
X5647Y123834D01*
Y123805D01*
X5644Y123766D01*
X5637Y123723D01*
X5630Y123677D01*
X5619Y123624D01*
X5605Y123567D01*
X5587Y123511D01*
X5569Y123450D01*
X5544Y123390D01*
X5512Y123329D01*
X5480Y123273D01*
X5441Y123212D01*
X5395Y123159D01*
X5392Y123155D01*
X5384Y123148D01*
X5370Y123134D01*
X5349Y123113D01*
X5324Y123092D01*
X5292Y123067D01*
X5257Y123042D01*
X5214Y123013D01*
X5172Y122985D01*
X5118Y122957D01*
X5065Y122928D01*
X5005Y122904D01*
X4941Y122882D01*
X4873Y122861D01*
X4802Y122847D01*
X4728Y122836D01*
X4674Y123237D01*
X4678D01*
X4689Y123241D01*
X4707Y123244D01*
X4731Y123251D01*
X4760Y123258D01*
X4792Y123266D01*
X4866Y123290D01*
X4948Y123322D01*
X5029Y123361D01*
X5104Y123411D01*
X5136Y123440D01*
X5168Y123468D01*
Y123471D01*
X5175Y123475D01*
X5182Y123486D01*
X5193Y123496D01*
X5214Y123532D01*
X5243Y123582D01*
X5271Y123642D01*
X5292Y123709D01*
X5310Y123791D01*
X5317Y123876D01*
Y123905D01*
X5314Y123926D01*
X5310Y123947D01*
X5306Y123979D01*
X5292Y124043D01*
X5271Y124121D01*
X5235Y124203D01*
X5211Y124242D01*
X5186Y124281D01*
X5157Y124320D01*
X5122Y124359D01*
X5118Y124363D01*
X5111Y124366D01*
X5100Y124377D01*
X5086Y124391D01*
X5069Y124405D01*
X5044Y124419D01*
X5019Y124437D01*
X4987Y124458D01*
X4916Y124494D01*
X4834Y124522D01*
X4738Y124547D01*
X4689Y124551D01*
X4636Y124554D01*
X4632D01*
X4625D01*
X4607D01*
X4589Y124551D01*
X4564Y124547D01*
X4540Y124544D01*
X4476Y124533D01*
X4401Y124508D01*
X4327Y124476D01*
X4288Y124455D01*
X4252Y124430D01*
X4217Y124402D01*
X4181Y124370D01*
X4177Y124366D01*
X4174Y124363D01*
X4163Y124352D01*
X4153Y124338D01*
X4138Y124320D01*
X4124Y124299D01*
X4089Y124245D01*
X4057Y124178D01*
X4028Y124100D01*
X4007Y124011D01*
X4004Y123961D01*
X4000Y123912D01*
Y123890D01*
X4004Y123865D01*
Y123834D01*
X4011Y123791D01*
X4018Y123745D01*
X4028Y123688D01*
X4043Y123628D01*
X3691Y123670D01*
Y123677D01*
X3695Y123695D01*
X3698Y123716D01*
Y123763D01*
X3695Y123780D01*
Y123805D01*
X3691Y123830D01*
X3681Y123890D01*
X3666Y123961D01*
X3641Y124039D01*
X3610Y124121D01*
X3563Y124199D01*
Y124203D01*
X3556Y124210D01*
X3549Y124217D01*
X3539Y124231D01*
X3507Y124267D01*
X3460Y124306D01*
X3404Y124341D01*
X3333Y124377D01*
X3294Y124391D01*
X3247Y124398D01*
X3201Y124405D01*
X3152Y124409D01*
X3148D01*
X3141D01*
X3130D01*
X3112Y124405D01*
X3073Y124402D01*
X3020Y124391D01*
X2963Y124373D01*
X2903Y124345D01*
X2839Y124306D01*
X2811Y124284D01*
X2782Y124256D01*
X2775Y124249D01*
X2761Y124228D01*
X2736Y124196D01*
X2708Y124153D01*
X2683Y124096D01*
X2658Y124029D01*
X2644Y123954D01*
X2637Y123869D01*
Y123848D01*
X2640Y123830D01*
Y123809D01*
X2644Y123787D01*
X2655Y123731D01*
X2672Y123670D01*
X2701Y123603D01*
X2736Y123539D01*
X2786Y123475D01*
X2793Y123468D01*
X2814Y123450D01*
X2846Y123422D01*
X2896Y123393D01*
X2956Y123358D01*
X3034Y123326D01*
X3123Y123298D01*
X3226Y123276D01*
X3155Y122875D01*
X3152D01*
X3137Y122879D01*
X3116Y122882D01*
X3088Y122889D01*
X3056Y122900D01*
X3017Y122911D01*
X2974Y122925D01*
X2928Y122942D01*
X2825Y122989D01*
X2775Y123013D01*
X2722Y123046D01*
X2672Y123081D01*
X2623Y123120D01*
X2573Y123163D01*
X2530Y123209D01*
X2527Y123212D01*
X2520Y123219D01*
X2509Y123237D01*
X2495Y123255D01*
X2477Y123283D01*
X2459Y123312D01*
X2438Y123347D01*
X2417Y123390D01*
X2399Y123432D01*
X2378Y123482D01*
X2360Y123535D01*
X2342Y123592D01*
X2328Y123656D01*
X2317Y123720D01*
X2310Y123787D01*
X2307Y123858D01*
Y123905D01*
X2310Y123929D01*
X2314Y123954D01*
X2321Y124022D01*
X2335Y124096D01*
X2356Y124181D01*
X2385Y124267D01*
X2424Y124352D01*
Y124355D01*
X2427Y124363D01*
X2434Y124373D01*
X2445Y124391D01*
X2470Y124430D01*
X2506Y124480D01*
X2552Y124537D01*
X2605Y124593D01*
X2665Y124650D01*
X2736Y124700D01*
X2740D01*
X2743Y124703D01*
X2757Y124710D01*
X2772Y124717D01*
X2789Y124728D01*
X2811Y124739D01*
X2864Y124760D01*
X2928Y124781D01*
X2999Y124803D01*
X3077Y124817D01*
X3159Y124820D01*
X3162D01*
X3169D01*
X3180D01*
X3194D01*
X3237Y124813D01*
X3286Y124806D01*
X3347Y124792D01*
X3411Y124771D01*
X3478Y124742D01*
X3546Y124703D01*
X3549D01*
X3553Y124700D01*
X3574Y124682D01*
X3606Y124657D01*
X3645Y124618D01*
X3691Y124572D01*
X3737Y124512D01*
X3780Y124444D01*
X3822Y124366D01*
Y124370D01*
X3826Y124380D01*
X3830Y124395D01*
X3837Y124416D01*
X3844Y124437D01*
X3855Y124466D01*
X3883Y124533D01*
X3922Y124604D01*
X3968Y124679D01*
X4028Y124753D01*
X4103Y124817D01*
X4106Y124820D01*
X4114Y124824D01*
X4124Y124831D01*
X4142Y124842D01*
X4160Y124856D01*
X4185Y124870D01*
X4213Y124884D01*
X4248Y124899D01*
X4284Y124913D01*
X4323Y124927D01*
X4412Y124955D01*
X4515Y124973D01*
X4572Y124980D01*
X4628D01*
X4632D01*
X4646D01*
X4671Y124977D01*
D02*
G37*
G36*
X5594Y121789D02*
X5136D01*
Y122247D01*
X5594D01*
Y121789D01*
D02*
G37*
G36*
X4671Y121160D02*
X4699D01*
X4738Y121153D01*
X4781Y121146D01*
X4827Y121139D01*
X4880Y121125D01*
X4937Y121107D01*
X4994Y121086D01*
X5054Y121061D01*
X5115Y121029D01*
X5179Y120994D01*
X5239Y120951D01*
X5299Y120905D01*
X5356Y120848D01*
X5360Y120844D01*
X5370Y120834D01*
X5384Y120816D01*
X5402Y120791D01*
X5424Y120763D01*
X5448Y120724D01*
X5477Y120681D01*
X5502Y120632D01*
X5530Y120578D01*
X5559Y120518D01*
X5583Y120454D01*
X5605Y120383D01*
X5622Y120308D01*
X5637Y120230D01*
X5647Y120149D01*
X5651Y120060D01*
Y120042D01*
X5647Y120017D01*
Y119989D01*
X5644Y119950D01*
X5637Y119907D01*
X5630Y119861D01*
X5619Y119808D01*
X5605Y119751D01*
X5587Y119694D01*
X5569Y119634D01*
X5544Y119574D01*
X5512Y119513D01*
X5480Y119456D01*
X5441Y119396D01*
X5395Y119343D01*
X5392Y119339D01*
X5384Y119332D01*
X5370Y119318D01*
X5349Y119297D01*
X5324Y119275D01*
X5292Y119251D01*
X5257Y119226D01*
X5214Y119197D01*
X5172Y119169D01*
X5118Y119141D01*
X5065Y119112D01*
X5005Y119087D01*
X4941Y119066D01*
X4873Y119045D01*
X4802Y119030D01*
X4728Y119020D01*
X4674Y119421D01*
X4678D01*
X4689Y119424D01*
X4707Y119428D01*
X4731Y119435D01*
X4760Y119442D01*
X4792Y119449D01*
X4866Y119474D01*
X4948Y119506D01*
X5029Y119545D01*
X5104Y119595D01*
X5136Y119623D01*
X5168Y119652D01*
Y119655D01*
X5175Y119659D01*
X5182Y119669D01*
X5193Y119680D01*
X5214Y119716D01*
X5243Y119765D01*
X5271Y119826D01*
X5292Y119893D01*
X5310Y119975D01*
X5317Y120060D01*
Y120088D01*
X5314Y120110D01*
X5310Y120131D01*
X5306Y120163D01*
X5292Y120227D01*
X5271Y120305D01*
X5235Y120387D01*
X5211Y120426D01*
X5186Y120465D01*
X5157Y120504D01*
X5122Y120543D01*
X5118Y120546D01*
X5111Y120550D01*
X5100Y120561D01*
X5086Y120575D01*
X5069Y120589D01*
X5044Y120603D01*
X5019Y120621D01*
X4987Y120642D01*
X4916Y120678D01*
X4834Y120706D01*
X4738Y120731D01*
X4689Y120734D01*
X4636Y120738D01*
X4632D01*
X4625D01*
X4607D01*
X4589Y120734D01*
X4564Y120731D01*
X4540Y120727D01*
X4476Y120717D01*
X4401Y120692D01*
X4327Y120660D01*
X4288Y120639D01*
X4252Y120614D01*
X4217Y120585D01*
X4181Y120553D01*
X4177Y120550D01*
X4174Y120546D01*
X4163Y120536D01*
X4153Y120521D01*
X4138Y120504D01*
X4124Y120482D01*
X4089Y120429D01*
X4057Y120362D01*
X4028Y120284D01*
X4007Y120195D01*
X4004Y120145D01*
X4000Y120095D01*
Y120074D01*
X4004Y120049D01*
Y120017D01*
X4011Y119975D01*
X4018Y119929D01*
X4028Y119872D01*
X4043Y119811D01*
X3691Y119854D01*
Y119861D01*
X3695Y119879D01*
X3698Y119900D01*
Y119946D01*
X3695Y119964D01*
Y119989D01*
X3691Y120014D01*
X3681Y120074D01*
X3666Y120145D01*
X3641Y120223D01*
X3610Y120305D01*
X3563Y120383D01*
Y120387D01*
X3556Y120394D01*
X3549Y120401D01*
X3539Y120415D01*
X3507Y120450D01*
X3460Y120490D01*
X3404Y120525D01*
X3333Y120561D01*
X3294Y120575D01*
X3247Y120582D01*
X3201Y120589D01*
X3152Y120592D01*
X3148D01*
X3141D01*
X3130D01*
X3112Y120589D01*
X3073Y120585D01*
X3020Y120575D01*
X2963Y120557D01*
X2903Y120528D01*
X2839Y120490D01*
X2811Y120468D01*
X2782Y120440D01*
X2775Y120433D01*
X2761Y120411D01*
X2736Y120379D01*
X2708Y120337D01*
X2683Y120280D01*
X2658Y120213D01*
X2644Y120138D01*
X2637Y120053D01*
Y120031D01*
X2640Y120014D01*
Y119992D01*
X2644Y119971D01*
X2655Y119914D01*
X2672Y119854D01*
X2701Y119787D01*
X2736Y119723D01*
X2786Y119659D01*
X2793Y119652D01*
X2814Y119634D01*
X2846Y119606D01*
X2896Y119577D01*
X2956Y119542D01*
X3034Y119510D01*
X3123Y119481D01*
X3226Y119460D01*
X3155Y119059D01*
X3152D01*
X3137Y119062D01*
X3116Y119066D01*
X3088Y119073D01*
X3056Y119084D01*
X3017Y119094D01*
X2974Y119108D01*
X2928Y119126D01*
X2825Y119172D01*
X2775Y119197D01*
X2722Y119229D01*
X2672Y119265D01*
X2623Y119304D01*
X2573Y119346D01*
X2530Y119393D01*
X2527Y119396D01*
X2520Y119403D01*
X2509Y119421D01*
X2495Y119439D01*
X2477Y119467D01*
X2459Y119495D01*
X2438Y119531D01*
X2417Y119574D01*
X2399Y119616D01*
X2378Y119666D01*
X2360Y119719D01*
X2342Y119776D01*
X2328Y119840D01*
X2317Y119904D01*
X2310Y119971D01*
X2307Y120042D01*
Y120088D01*
X2310Y120113D01*
X2314Y120138D01*
X2321Y120205D01*
X2335Y120280D01*
X2356Y120365D01*
X2385Y120450D01*
X2424Y120536D01*
Y120539D01*
X2427Y120546D01*
X2434Y120557D01*
X2445Y120575D01*
X2470Y120614D01*
X2506Y120663D01*
X2552Y120720D01*
X2605Y120777D01*
X2665Y120834D01*
X2736Y120884D01*
X2740D01*
X2743Y120887D01*
X2757Y120894D01*
X2772Y120901D01*
X2789Y120912D01*
X2811Y120923D01*
X2864Y120944D01*
X2928Y120965D01*
X2999Y120986D01*
X3077Y121001D01*
X3159Y121004D01*
X3162D01*
X3169D01*
X3180D01*
X3194D01*
X3237Y120997D01*
X3286Y120990D01*
X3347Y120976D01*
X3411Y120955D01*
X3478Y120926D01*
X3546Y120887D01*
X3549D01*
X3553Y120884D01*
X3574Y120866D01*
X3606Y120841D01*
X3645Y120802D01*
X3691Y120756D01*
X3737Y120695D01*
X3780Y120628D01*
X3822Y120550D01*
Y120553D01*
X3826Y120564D01*
X3830Y120578D01*
X3837Y120599D01*
X3844Y120621D01*
X3855Y120649D01*
X3883Y120717D01*
X3922Y120788D01*
X3968Y120862D01*
X4028Y120937D01*
X4103Y121001D01*
X4106Y121004D01*
X4114Y121008D01*
X4124Y121015D01*
X4142Y121026D01*
X4160Y121040D01*
X4185Y121054D01*
X4213Y121068D01*
X4248Y121082D01*
X4284Y121097D01*
X4323Y121111D01*
X4412Y121139D01*
X4515Y121157D01*
X4572Y121164D01*
X4628D01*
X4632D01*
X4646D01*
X4671Y121160D01*
D02*
G37*
G36*
X5640Y109111D02*
X4650Y108731D01*
Y107354D01*
X5640Y106999D01*
Y106541D01*
X2363Y107794D01*
Y108262D01*
X5640Y109604D01*
Y109111D01*
D02*
G37*
G36*
X4082Y106296D02*
X4121D01*
X4163Y106292D01*
X4209Y106289D01*
X4312Y106278D01*
X4422Y106260D01*
X4536Y106239D01*
X4650Y106210D01*
X4653D01*
X4664Y106207D01*
X4678Y106200D01*
X4696Y106196D01*
X4721Y106186D01*
X4749Y106175D01*
X4817Y106150D01*
X4891Y106118D01*
X4973Y106079D01*
X5051Y106037D01*
X5125Y105987D01*
X5129D01*
X5133Y105980D01*
X5143Y105973D01*
X5157Y105962D01*
X5189Y105937D01*
X5232Y105898D01*
X5282Y105856D01*
X5331Y105806D01*
X5377Y105749D01*
X5424Y105689D01*
Y105685D01*
X5427Y105682D01*
X5441Y105660D01*
X5459Y105625D01*
X5484Y105579D01*
X5509Y105522D01*
X5537Y105454D01*
X5562Y105376D01*
X5587Y105295D01*
Y105291D01*
X5590Y105284D01*
Y105273D01*
X5594Y105256D01*
X5598Y105234D01*
X5605Y105206D01*
X5608Y105177D01*
X5612Y105146D01*
X5622Y105068D01*
X5633Y104979D01*
X5636Y104879D01*
X5640Y104773D01*
Y103591D01*
X2363D01*
Y104812D01*
X2367Y104847D01*
Y104890D01*
X2371Y104932D01*
X2374Y105028D01*
X2385Y105124D01*
X2395Y105220D01*
X2406Y105263D01*
X2413Y105302D01*
Y105305D01*
X2417Y105316D01*
X2420Y105330D01*
X2427Y105348D01*
X2434Y105373D01*
X2442Y105401D01*
X2466Y105469D01*
X2498Y105543D01*
X2537Y105621D01*
X2587Y105703D01*
X2647Y105781D01*
X2651Y105784D01*
X2658Y105792D01*
X2669Y105806D01*
X2686Y105824D01*
X2708Y105845D01*
X2736Y105870D01*
X2765Y105898D01*
X2800Y105927D01*
X2839Y105958D01*
X2882Y105991D01*
X2928Y106022D01*
X2978Y106054D01*
X3088Y106115D01*
X3208Y106168D01*
X3212D01*
X3223Y106175D01*
X3244Y106179D01*
X3269Y106189D01*
X3301Y106200D01*
X3340Y106210D01*
X3382Y106221D01*
X3432Y106235D01*
X3489Y106246D01*
X3549Y106257D01*
X3613Y106267D01*
X3681Y106278D01*
X3751Y106289D01*
X3826Y106292D01*
X3986Y106299D01*
X3989D01*
X4003D01*
X4021D01*
X4050D01*
X4082Y106296D01*
D02*
G37*
G36*
X4760Y102998D02*
X4785D01*
X4809Y102994D01*
X4877Y102984D01*
X4951Y102966D01*
X5033Y102937D01*
X5118Y102898D01*
X5164Y102877D01*
X5207Y102849D01*
X5210D01*
X5218Y102842D01*
X5228Y102834D01*
X5246Y102820D01*
X5285Y102788D01*
X5338Y102739D01*
X5395Y102678D01*
X5455Y102604D01*
X5512Y102519D01*
X5566Y102419D01*
Y102416D01*
X5573Y102405D01*
X5576Y102391D01*
X5587Y102369D01*
X5594Y102345D01*
X5605Y102313D01*
X5619Y102277D01*
X5629Y102235D01*
X5640Y102192D01*
X5654Y102142D01*
X5672Y102036D01*
X5686Y101919D01*
X5693Y101791D01*
Y101748D01*
X5690Y101716D01*
Y101677D01*
X5686Y101635D01*
X5683Y101585D01*
X5676Y101528D01*
X5661Y101411D01*
X5640Y101287D01*
X5608Y101163D01*
X5566Y101042D01*
Y101038D01*
X5558Y101028D01*
X5551Y101013D01*
X5541Y100992D01*
X5526Y100967D01*
X5512Y100939D01*
X5470Y100871D01*
X5416Y100797D01*
X5349Y100719D01*
X5271Y100641D01*
X5179Y100573D01*
X5175Y100570D01*
X5168Y100566D01*
X5154Y100559D01*
X5133Y100548D01*
X5108Y100534D01*
X5079Y100520D01*
X5044Y100502D01*
X5005Y100488D01*
X4966Y100470D01*
X4919Y100456D01*
X4817Y100428D01*
X4707Y100406D01*
X4646Y100399D01*
X4586Y100396D01*
X4550Y100804D01*
X4554D01*
X4561D01*
X4575Y100807D01*
X4593Y100811D01*
X4614Y100814D01*
X4636Y100818D01*
X4696Y100832D01*
X4760Y100850D01*
X4827Y100871D01*
X4895Y100900D01*
X4958Y100935D01*
X4966Y100939D01*
X4983Y100957D01*
X5012Y100981D01*
X5047Y101017D01*
X5090Y101063D01*
X5129Y101120D01*
X5172Y101187D01*
X5210Y101265D01*
Y101269D01*
X5214Y101276D01*
X5218Y101287D01*
X5225Y101304D01*
X5232Y101326D01*
X5243Y101351D01*
X5250Y101379D01*
X5257Y101411D01*
X5274Y101486D01*
X5292Y101574D01*
X5303Y101666D01*
X5306Y101769D01*
Y101812D01*
X5303Y101833D01*
Y101858D01*
X5296Y101915D01*
X5289Y101982D01*
X5278Y102057D01*
X5260Y102132D01*
X5235Y102203D01*
Y102206D01*
X5232Y102210D01*
X5228Y102220D01*
X5221Y102235D01*
X5204Y102267D01*
X5182Y102309D01*
X5154Y102355D01*
X5118Y102405D01*
X5079Y102448D01*
X5033Y102487D01*
X5026Y102490D01*
X5012Y102501D01*
X4983Y102519D01*
X4948Y102536D01*
X4905Y102550D01*
X4859Y102568D01*
X4806Y102579D01*
X4753Y102582D01*
X4749D01*
X4746D01*
X4728D01*
X4696Y102579D01*
X4660Y102572D01*
X4618Y102561D01*
X4572Y102543D01*
X4525Y102522D01*
X4483Y102490D01*
X4479Y102487D01*
X4465Y102472D01*
X4444Y102451D01*
X4415Y102419D01*
X4387Y102380D01*
X4355Y102327D01*
X4323Y102267D01*
X4291Y102196D01*
X4288Y102188D01*
X4284Y102181D01*
X4280Y102167D01*
X4277Y102153D01*
X4270Y102132D01*
X4259Y102103D01*
X4252Y102075D01*
X4241Y102036D01*
X4227Y101997D01*
X4217Y101947D01*
X4202Y101894D01*
X4185Y101833D01*
X4170Y101769D01*
X4149Y101695D01*
X4131Y101613D01*
Y101610D01*
X4128Y101596D01*
X4121Y101571D01*
X4114Y101542D01*
X4103Y101503D01*
X4092Y101461D01*
X4078Y101418D01*
X4064Y101368D01*
X4032Y101262D01*
X3997Y101159D01*
X3979Y101109D01*
X3961Y101063D01*
X3943Y101021D01*
X3926Y100985D01*
Y100981D01*
X3918Y100974D01*
X3911Y100964D01*
X3904Y100946D01*
X3879Y100903D01*
X3844Y100854D01*
X3798Y100793D01*
X3748Y100736D01*
X3688Y100680D01*
X3624Y100634D01*
X3620D01*
X3617Y100630D01*
X3606Y100623D01*
X3592Y100616D01*
X3553Y100598D01*
X3503Y100577D01*
X3443Y100555D01*
X3372Y100538D01*
X3294Y100523D01*
X3212Y100520D01*
X3208D01*
X3201D01*
X3187D01*
X3169Y100523D01*
X3148D01*
X3123Y100527D01*
X3059Y100538D01*
X2988Y100555D01*
X2914Y100577D01*
X2832Y100612D01*
X2750Y100658D01*
X2747D01*
X2740Y100665D01*
X2729Y100673D01*
X2715Y100683D01*
X2676Y100719D01*
X2626Y100765D01*
X2573Y100822D01*
X2520Y100893D01*
X2466Y100974D01*
X2420Y101070D01*
Y101074D01*
X2417Y101081D01*
X2410Y101099D01*
X2403Y101116D01*
X2395Y101141D01*
X2385Y101173D01*
X2374Y101209D01*
X2363Y101248D01*
X2353Y101290D01*
X2342Y101336D01*
X2324Y101436D01*
X2310Y101549D01*
X2307Y101670D01*
Y101730D01*
X2310Y101762D01*
X2314Y101801D01*
X2317Y101840D01*
X2321Y101887D01*
X2335Y101986D01*
X2356Y102096D01*
X2388Y102206D01*
X2427Y102313D01*
Y102316D01*
X2434Y102323D01*
X2438Y102341D01*
X2449Y102359D01*
X2463Y102380D01*
X2477Y102409D01*
X2513Y102469D01*
X2562Y102540D01*
X2623Y102611D01*
X2690Y102678D01*
X2772Y102739D01*
X2775Y102742D01*
X2782Y102746D01*
X2793Y102753D01*
X2811Y102763D01*
X2832Y102774D01*
X2857Y102788D01*
X2889Y102799D01*
X2921Y102817D01*
X2995Y102845D01*
X3084Y102870D01*
X3180Y102891D01*
X3286Y102902D01*
X3318Y102487D01*
X3315D01*
X3304Y102483D01*
X3290D01*
X3269Y102480D01*
X3240Y102472D01*
X3212Y102465D01*
X3145Y102444D01*
X3070Y102416D01*
X2992Y102373D01*
X2917Y102323D01*
X2885Y102291D01*
X2853Y102256D01*
X2850Y102252D01*
X2846Y102249D01*
X2839Y102235D01*
X2829Y102220D01*
X2818Y102199D01*
X2804Y102174D01*
X2789Y102146D01*
X2772Y102114D01*
X2757Y102075D01*
X2743Y102032D01*
X2729Y101986D01*
X2718Y101936D01*
X2708Y101880D01*
X2701Y101819D01*
X2694Y101755D01*
Y101652D01*
X2697Y101624D01*
Y101592D01*
X2701Y101557D01*
X2704Y101514D01*
X2711Y101471D01*
X2729Y101375D01*
X2754Y101283D01*
X2789Y101194D01*
X2814Y101152D01*
X2839Y101116D01*
Y101113D01*
X2846Y101109D01*
X2864Y101088D01*
X2896Y101059D01*
X2939Y101028D01*
X2988Y100996D01*
X3049Y100967D01*
X3112Y100946D01*
X3148Y100942D01*
X3187Y100939D01*
X3191D01*
X3194D01*
X3215Y100942D01*
X3247Y100946D01*
X3286Y100953D01*
X3333Y100971D01*
X3382Y100992D01*
X3429Y101021D01*
X3475Y101063D01*
X3478Y101070D01*
X3485Y101077D01*
X3496Y101091D01*
X3507Y101109D01*
X3517Y101130D01*
X3531Y101159D01*
X3549Y101191D01*
X3567Y101230D01*
X3585Y101276D01*
X3602Y101329D01*
X3624Y101390D01*
X3645Y101461D01*
X3666Y101535D01*
X3691Y101620D01*
X3712Y101716D01*
Y101723D01*
X3716Y101741D01*
X3723Y101766D01*
X3734Y101801D01*
X3741Y101844D01*
X3755Y101894D01*
X3766Y101947D01*
X3783Y102004D01*
X3815Y102125D01*
X3847Y102245D01*
X3865Y102302D01*
X3883Y102352D01*
X3901Y102401D01*
X3918Y102441D01*
Y102444D01*
X3926Y102455D01*
X3932Y102469D01*
X3943Y102487D01*
X3954Y102511D01*
X3972Y102540D01*
X4011Y102600D01*
X4057Y102671D01*
X4114Y102739D01*
X4181Y102806D01*
X4217Y102834D01*
X4252Y102863D01*
X4256D01*
X4263Y102870D01*
X4273Y102877D01*
X4288Y102884D01*
X4305Y102895D01*
X4330Y102905D01*
X4387Y102934D01*
X4454Y102959D01*
X4532Y102980D01*
X4621Y102994D01*
X4717Y103001D01*
X4721D01*
X4728D01*
X4742D01*
X4760Y102998D01*
D02*
G37*
G36*
X5640Y116717D02*
X2363D01*
Y117150D01*
X5253D01*
Y118765D01*
X5640D01*
Y116717D01*
D02*
G37*
G36*
X4625Y116195D02*
X4650Y116188D01*
X4689Y116174D01*
X4731Y116160D01*
X4784Y116138D01*
X4841Y116117D01*
X4902Y116089D01*
X4969Y116057D01*
X5033Y116021D01*
X5104Y115982D01*
X5172Y115936D01*
X5235Y115886D01*
X5299Y115833D01*
X5360Y115773D01*
X5416Y115709D01*
X5420Y115705D01*
X5427Y115691D01*
X5441Y115673D01*
X5459Y115645D01*
X5480Y115613D01*
X5505Y115570D01*
X5530Y115524D01*
X5555Y115467D01*
X5580Y115407D01*
X5605Y115343D01*
X5629Y115272D01*
X5651Y115194D01*
X5669Y115112D01*
X5683Y115027D01*
X5690Y114938D01*
X5693Y114843D01*
Y114793D01*
X5690Y114754D01*
X5686Y114711D01*
X5683Y114658D01*
X5676Y114601D01*
X5665Y114537D01*
X5654Y114470D01*
X5640Y114399D01*
X5622Y114328D01*
X5605Y114257D01*
X5580Y114182D01*
X5551Y114111D01*
X5519Y114044D01*
X5480Y113980D01*
X5477Y113976D01*
X5470Y113966D01*
X5459Y113948D01*
X5441Y113927D01*
X5416Y113898D01*
X5392Y113866D01*
X5360Y113831D01*
X5321Y113792D01*
X5278Y113753D01*
X5232Y113710D01*
X5182Y113671D01*
X5125Y113628D01*
X5065Y113586D01*
X5001Y113547D01*
X4930Y113511D01*
X4856Y113476D01*
X4852Y113472D01*
X4838Y113469D01*
X4813Y113462D01*
X4784Y113451D01*
X4746Y113437D01*
X4703Y113423D01*
X4650Y113408D01*
X4593Y113391D01*
X4529Y113376D01*
X4462Y113359D01*
X4391Y113345D01*
X4312Y113334D01*
X4149Y113312D01*
X4064Y113309D01*
X3979Y113305D01*
X3972D01*
X3957D01*
X3929D01*
X3893Y113309D01*
X3847Y113312D01*
X3794Y113316D01*
X3737Y113323D01*
X3673Y113330D01*
X3606Y113341D01*
X3535Y113352D01*
X3382Y113387D01*
X3308Y113412D01*
X3233Y113437D01*
X3155Y113465D01*
X3084Y113501D01*
X3080Y113504D01*
X3066Y113511D01*
X3049Y113522D01*
X3020Y113536D01*
X2988Y113558D01*
X2953Y113582D01*
X2914Y113611D01*
X2867Y113643D01*
X2825Y113682D01*
X2775Y113721D01*
X2729Y113767D01*
X2679Y113817D01*
X2633Y113870D01*
X2587Y113927D01*
X2544Y113991D01*
X2505Y114055D01*
X2502Y114058D01*
X2498Y114072D01*
X2488Y114090D01*
X2473Y114118D01*
X2459Y114150D01*
X2441Y114193D01*
X2424Y114239D01*
X2406Y114289D01*
X2388Y114346D01*
X2371Y114409D01*
X2353Y114473D01*
X2339Y114544D01*
X2314Y114690D01*
X2310Y114768D01*
X2307Y114850D01*
Y114896D01*
X2310Y114931D01*
X2314Y114974D01*
X2321Y115024D01*
X2328Y115077D01*
X2339Y115137D01*
X2353Y115201D01*
X2367Y115269D01*
X2388Y115336D01*
X2413Y115407D01*
X2441Y115478D01*
X2477Y115545D01*
X2513Y115613D01*
X2559Y115677D01*
X2562Y115680D01*
X2569Y115691D01*
X2583Y115709D01*
X2605Y115730D01*
X2630Y115759D01*
X2662Y115790D01*
X2697Y115822D01*
X2740Y115861D01*
X2786Y115901D01*
X2839Y115939D01*
X2896Y115979D01*
X2960Y116014D01*
X3027Y116053D01*
X3102Y116085D01*
X3180Y116117D01*
X3262Y116145D01*
X3361Y115719D01*
X3357D01*
X3347Y115712D01*
X3325Y115709D01*
X3301Y115698D01*
X3272Y115688D01*
X3240Y115670D01*
X3162Y115634D01*
X3077Y115588D01*
X2988Y115528D01*
X2907Y115464D01*
X2871Y115425D01*
X2839Y115386D01*
X2836Y115382D01*
X2832Y115375D01*
X2825Y115364D01*
X2814Y115347D01*
X2800Y115325D01*
X2786Y115301D01*
X2772Y115272D01*
X2757Y115237D01*
X2743Y115198D01*
X2729Y115158D01*
X2701Y115066D01*
X2683Y114960D01*
X2676Y114903D01*
Y114807D01*
X2679Y114779D01*
X2683Y114747D01*
X2686Y114708D01*
X2690Y114665D01*
X2697Y114622D01*
X2722Y114520D01*
X2754Y114413D01*
X2775Y114360D01*
X2800Y114306D01*
X2829Y114257D01*
X2860Y114207D01*
X2864Y114204D01*
X2867Y114197D01*
X2878Y114182D01*
X2892Y114164D01*
X2910Y114147D01*
X2935Y114122D01*
X2960Y114097D01*
X2988Y114069D01*
X3024Y114040D01*
X3059Y114008D01*
X3141Y113952D01*
X3237Y113898D01*
X3347Y113852D01*
X3350D01*
X3361Y113849D01*
X3379Y113841D01*
X3400Y113838D01*
X3428Y113831D01*
X3460Y113820D01*
X3499Y113813D01*
X3539Y113802D01*
X3585Y113792D01*
X3634Y113785D01*
X3741Y113767D01*
X3854Y113756D01*
X3975Y113753D01*
X3979D01*
X3993D01*
X4014D01*
X4046Y113756D01*
X4082D01*
X4124Y113760D01*
X4170Y113763D01*
X4224Y113767D01*
X4280Y113774D01*
X4337Y113781D01*
X4462Y113802D01*
X4586Y113834D01*
X4706Y113873D01*
X4710D01*
X4721Y113881D01*
X4735Y113888D01*
X4756Y113895D01*
X4784Y113909D01*
X4813Y113927D01*
X4880Y113966D01*
X4958Y114019D01*
X5033Y114083D01*
X5108Y114161D01*
X5139Y114204D01*
X5172Y114250D01*
Y114253D01*
X5179Y114260D01*
X5186Y114275D01*
X5196Y114296D01*
X5207Y114321D01*
X5221Y114349D01*
X5232Y114381D01*
X5246Y114417D01*
X5274Y114498D01*
X5299Y114594D01*
X5317Y114697D01*
X5321Y114750D01*
X5324Y114807D01*
Y114843D01*
X5321Y114867D01*
X5317Y114899D01*
X5314Y114935D01*
X5306Y114978D01*
X5299Y115020D01*
X5274Y115120D01*
X5257Y115169D01*
X5235Y115222D01*
X5210Y115276D01*
X5182Y115325D01*
X5150Y115375D01*
X5115Y115425D01*
X5111Y115428D01*
X5104Y115435D01*
X5093Y115450D01*
X5076Y115467D01*
X5054Y115485D01*
X5026Y115510D01*
X4994Y115535D01*
X4958Y115563D01*
X4916Y115592D01*
X4870Y115620D01*
X4820Y115648D01*
X4763Y115677D01*
X4703Y115702D01*
X4635Y115726D01*
X4564Y115751D01*
X4490Y115769D01*
X4600Y116202D01*
X4607D01*
X4625Y116195D01*
D02*
G37*
G36*
X4760Y112837D02*
X4784D01*
X4809Y112833D01*
X4877Y112823D01*
X4951Y112805D01*
X5033Y112777D01*
X5118Y112737D01*
X5164Y112716D01*
X5207Y112688D01*
X5210D01*
X5218Y112681D01*
X5228Y112673D01*
X5246Y112659D01*
X5285Y112627D01*
X5338Y112578D01*
X5395Y112517D01*
X5455Y112443D01*
X5512Y112358D01*
X5565Y112258D01*
Y112255D01*
X5573Y112244D01*
X5576Y112230D01*
X5587Y112208D01*
X5594Y112184D01*
X5605Y112152D01*
X5619Y112116D01*
X5629Y112074D01*
X5640Y112031D01*
X5654Y111981D01*
X5672Y111875D01*
X5686Y111758D01*
X5693Y111630D01*
Y111587D01*
X5690Y111555D01*
Y111516D01*
X5686Y111474D01*
X5683Y111424D01*
X5676Y111367D01*
X5661Y111250D01*
X5640Y111126D01*
X5608Y111002D01*
X5565Y110881D01*
Y110877D01*
X5558Y110867D01*
X5551Y110852D01*
X5541Y110831D01*
X5526Y110806D01*
X5512Y110778D01*
X5470Y110710D01*
X5416Y110636D01*
X5349Y110558D01*
X5271Y110480D01*
X5179Y110412D01*
X5175Y110409D01*
X5168Y110405D01*
X5154Y110398D01*
X5132Y110387D01*
X5108Y110373D01*
X5079Y110359D01*
X5044Y110341D01*
X5005Y110327D01*
X4966Y110309D01*
X4919Y110295D01*
X4817Y110267D01*
X4706Y110245D01*
X4646Y110238D01*
X4586Y110235D01*
X4550Y110643D01*
X4554D01*
X4561D01*
X4575Y110646D01*
X4593Y110650D01*
X4614Y110654D01*
X4635Y110657D01*
X4696Y110671D01*
X4760Y110689D01*
X4827Y110710D01*
X4895Y110739D01*
X4958Y110774D01*
X4966Y110778D01*
X4983Y110796D01*
X5012Y110820D01*
X5047Y110856D01*
X5090Y110902D01*
X5129Y110959D01*
X5172Y111026D01*
X5210Y111104D01*
Y111108D01*
X5214Y111115D01*
X5218Y111126D01*
X5225Y111144D01*
X5232Y111165D01*
X5243Y111190D01*
X5250Y111218D01*
X5257Y111250D01*
X5274Y111325D01*
X5292Y111413D01*
X5303Y111506D01*
X5306Y111609D01*
Y111651D01*
X5303Y111672D01*
Y111697D01*
X5296Y111754D01*
X5289Y111821D01*
X5278Y111896D01*
X5260Y111971D01*
X5235Y112042D01*
Y112045D01*
X5232Y112049D01*
X5228Y112059D01*
X5221Y112074D01*
X5203Y112106D01*
X5182Y112148D01*
X5154Y112194D01*
X5118Y112244D01*
X5079Y112287D01*
X5033Y112326D01*
X5026Y112329D01*
X5012Y112340D01*
X4983Y112358D01*
X4948Y112375D01*
X4905Y112390D01*
X4859Y112407D01*
X4806Y112418D01*
X4753Y112422D01*
X4749D01*
X4746D01*
X4728D01*
X4696Y112418D01*
X4660Y112411D01*
X4618Y112400D01*
X4572Y112382D01*
X4525Y112361D01*
X4483Y112329D01*
X4479Y112326D01*
X4465Y112311D01*
X4444Y112290D01*
X4415Y112258D01*
X4387Y112219D01*
X4355Y112166D01*
X4323Y112106D01*
X4291Y112034D01*
X4287Y112027D01*
X4284Y112020D01*
X4280Y112006D01*
X4277Y111992D01*
X4270Y111971D01*
X4259Y111942D01*
X4252Y111914D01*
X4241Y111875D01*
X4227Y111836D01*
X4216Y111786D01*
X4202Y111733D01*
X4185Y111672D01*
X4170Y111609D01*
X4149Y111534D01*
X4131Y111452D01*
Y111449D01*
X4128Y111435D01*
X4121Y111410D01*
X4114Y111381D01*
X4103Y111342D01*
X4092Y111300D01*
X4078Y111257D01*
X4064Y111207D01*
X4032Y111101D01*
X3996Y110998D01*
X3979Y110948D01*
X3961Y110902D01*
X3943Y110860D01*
X3925Y110824D01*
Y110820D01*
X3918Y110813D01*
X3911Y110803D01*
X3904Y110785D01*
X3879Y110742D01*
X3844Y110693D01*
X3798Y110632D01*
X3748Y110575D01*
X3688Y110519D01*
X3624Y110473D01*
X3620D01*
X3617Y110469D01*
X3606Y110462D01*
X3592Y110455D01*
X3553Y110437D01*
X3503Y110416D01*
X3443Y110394D01*
X3372Y110377D01*
X3294Y110363D01*
X3212Y110359D01*
X3208D01*
X3201D01*
X3187D01*
X3169Y110363D01*
X3148D01*
X3123Y110366D01*
X3059Y110377D01*
X2988Y110394D01*
X2914Y110416D01*
X2832Y110451D01*
X2750Y110497D01*
X2747D01*
X2740Y110504D01*
X2729Y110512D01*
X2715Y110522D01*
X2676Y110558D01*
X2626Y110604D01*
X2573Y110661D01*
X2520Y110732D01*
X2466Y110813D01*
X2420Y110909D01*
Y110913D01*
X2417Y110920D01*
X2410Y110938D01*
X2403Y110955D01*
X2395Y110980D01*
X2385Y111012D01*
X2374Y111048D01*
X2363Y111087D01*
X2353Y111129D01*
X2342Y111175D01*
X2324Y111275D01*
X2310Y111388D01*
X2307Y111509D01*
Y111569D01*
X2310Y111601D01*
X2314Y111641D01*
X2317Y111679D01*
X2321Y111726D01*
X2335Y111825D01*
X2356Y111935D01*
X2388Y112045D01*
X2427Y112152D01*
Y112155D01*
X2434Y112162D01*
X2438Y112180D01*
X2449Y112198D01*
X2463Y112219D01*
X2477Y112248D01*
X2513Y112308D01*
X2562Y112379D01*
X2623Y112450D01*
X2690Y112517D01*
X2772Y112578D01*
X2775Y112581D01*
X2782Y112585D01*
X2793Y112592D01*
X2811Y112602D01*
X2832Y112613D01*
X2857Y112627D01*
X2889Y112638D01*
X2921Y112656D01*
X2995Y112684D01*
X3084Y112709D01*
X3180Y112730D01*
X3286Y112741D01*
X3318Y112326D01*
X3315D01*
X3304Y112322D01*
X3290D01*
X3269Y112319D01*
X3240Y112311D01*
X3212Y112304D01*
X3144Y112283D01*
X3070Y112255D01*
X2992Y112212D01*
X2917Y112162D01*
X2885Y112130D01*
X2853Y112095D01*
X2850Y112091D01*
X2846Y112088D01*
X2839Y112074D01*
X2829Y112059D01*
X2818Y112038D01*
X2804Y112013D01*
X2789Y111985D01*
X2772Y111953D01*
X2757Y111914D01*
X2743Y111871D01*
X2729Y111825D01*
X2718Y111775D01*
X2708Y111719D01*
X2701Y111658D01*
X2694Y111594D01*
Y111491D01*
X2697Y111463D01*
Y111431D01*
X2701Y111396D01*
X2704Y111353D01*
X2711Y111310D01*
X2729Y111214D01*
X2754Y111122D01*
X2789Y111033D01*
X2814Y110991D01*
X2839Y110955D01*
Y110952D01*
X2846Y110948D01*
X2864Y110927D01*
X2896Y110898D01*
X2939Y110867D01*
X2988Y110835D01*
X3049Y110806D01*
X3112Y110785D01*
X3148Y110781D01*
X3187Y110778D01*
X3191D01*
X3194D01*
X3215Y110781D01*
X3247Y110785D01*
X3286Y110792D01*
X3333Y110810D01*
X3382Y110831D01*
X3428Y110860D01*
X3475Y110902D01*
X3478Y110909D01*
X3485Y110916D01*
X3496Y110931D01*
X3506Y110948D01*
X3517Y110969D01*
X3531Y110998D01*
X3549Y111030D01*
X3567Y111069D01*
X3585Y111115D01*
X3602Y111168D01*
X3624Y111229D01*
X3645Y111300D01*
X3666Y111374D01*
X3691Y111459D01*
X3712Y111555D01*
Y111562D01*
X3716Y111580D01*
X3723Y111605D01*
X3734Y111641D01*
X3741Y111683D01*
X3755Y111733D01*
X3766Y111786D01*
X3783Y111843D01*
X3815Y111963D01*
X3847Y112084D01*
X3865Y112141D01*
X3883Y112191D01*
X3901Y112240D01*
X3918Y112279D01*
Y112283D01*
X3925Y112294D01*
X3932Y112308D01*
X3943Y112326D01*
X3954Y112350D01*
X3972Y112379D01*
X4011Y112439D01*
X4057Y112510D01*
X4114Y112578D01*
X4181Y112645D01*
X4216Y112673D01*
X4252Y112702D01*
X4256D01*
X4263Y112709D01*
X4273Y112716D01*
X4287Y112723D01*
X4305Y112734D01*
X4330Y112744D01*
X4387Y112773D01*
X4454Y112798D01*
X4532Y112819D01*
X4621Y112833D01*
X4717Y112840D01*
X4721D01*
X4728D01*
X4742D01*
X4760Y112837D01*
D02*
G37*
%LPC*%
G36*
X22814Y114632D02*
X22810D01*
X22796D01*
X22775D01*
X22746Y114628D01*
X22711D01*
X22672Y114625D01*
X22626Y114621D01*
X22576Y114614D01*
X22466Y114600D01*
X22349Y114575D01*
X22231Y114540D01*
X22114Y114494D01*
X22111D01*
X22100Y114486D01*
X22086Y114479D01*
X22065Y114469D01*
X22040Y114454D01*
X22011Y114437D01*
X21944Y114394D01*
X21869Y114337D01*
X21795Y114270D01*
X21720Y114192D01*
X21653Y114099D01*
X21649Y114096D01*
X21646Y114089D01*
X21639Y114075D01*
X21628Y114053D01*
X21614Y114028D01*
X21600Y114000D01*
X21585Y113968D01*
X21568Y113929D01*
X21553Y113886D01*
X21539Y113844D01*
X21511Y113744D01*
X21493Y113634D01*
X21486Y113574D01*
Y113492D01*
X21490Y113471D01*
Y113436D01*
X21497Y113397D01*
X21504Y113350D01*
X21514Y113301D01*
X21525Y113244D01*
X21543Y113183D01*
X21564Y113120D01*
X21589Y113052D01*
X21621Y112988D01*
X21656Y112921D01*
X21699Y112853D01*
X21749Y112786D01*
X21805Y112722D01*
X21809Y112718D01*
X21820Y112708D01*
X21841Y112690D01*
X21866Y112672D01*
X21901Y112644D01*
X21944Y112619D01*
X21997Y112587D01*
X22054Y112559D01*
X22125Y112527D01*
X22203Y112495D01*
X22288Y112470D01*
X22384Y112445D01*
X22487Y112424D01*
X22601Y112406D01*
X22725Y112395D01*
X22860Y112392D01*
X22867D01*
X22885D01*
X22917Y112395D01*
X22959D01*
X23009Y112402D01*
X23066Y112410D01*
X23130Y112417D01*
X23197Y112431D01*
X23272Y112449D01*
X23350Y112470D01*
X23424Y112495D01*
X23502Y112527D01*
X23581Y112562D01*
X23655Y112605D01*
X23726Y112651D01*
X23794Y112708D01*
X23797Y112711D01*
X23808Y112722D01*
X23825Y112740D01*
X23847Y112765D01*
X23872Y112797D01*
X23900Y112836D01*
X23932Y112878D01*
X23960Y112928D01*
X23992Y112981D01*
X24024Y113045D01*
X24053Y113109D01*
X24078Y113180D01*
X24099Y113254D01*
X24117Y113336D01*
X24127Y113418D01*
X24131Y113507D01*
Y113528D01*
X24127Y113553D01*
X24124Y113588D01*
X24120Y113631D01*
X24113Y113677D01*
X24102Y113734D01*
X24088Y113791D01*
X24070Y113855D01*
X24049Y113918D01*
X24021Y113986D01*
X23985Y114053D01*
X23946Y114121D01*
X23904Y114188D01*
X23850Y114252D01*
X23790Y114312D01*
X23786Y114316D01*
X23772Y114327D01*
X23754Y114341D01*
X23726Y114362D01*
X23691Y114387D01*
X23648Y114415D01*
X23598Y114444D01*
X23538Y114472D01*
X23474Y114501D01*
X23400Y114532D01*
X23321Y114557D01*
X23233Y114582D01*
X23137Y114603D01*
X23037Y114618D01*
X22927Y114628D01*
X22814Y114632D01*
D02*
G37*
G36*
X22785Y109761D02*
X22778D01*
X22764D01*
X22736D01*
X22700Y109758D01*
X22658D01*
X22608Y109754D01*
X22555Y109747D01*
X22494Y109740D01*
X22366Y109719D01*
X22235Y109690D01*
X22111Y109648D01*
X22050Y109619D01*
X21997Y109591D01*
X21994Y109587D01*
X21987Y109584D01*
X21972Y109573D01*
X21951Y109559D01*
X21930Y109545D01*
X21905Y109523D01*
X21848Y109477D01*
X21784Y109417D01*
X21724Y109346D01*
X21667Y109268D01*
X21646Y109225D01*
X21624Y109179D01*
Y109176D01*
X21621Y109172D01*
X21617Y109161D01*
X21614Y109147D01*
X21610Y109126D01*
X21603Y109105D01*
X21596Y109076D01*
X21589Y109044D01*
X21585Y109009D01*
X21578Y108966D01*
X21571Y108920D01*
X21568Y108870D01*
X21564Y108814D01*
X21561Y108753D01*
X21557Y108689D01*
Y107933D01*
X24060D01*
Y108686D01*
X24056Y108714D01*
Y108746D01*
X24053Y108817D01*
X24046Y108899D01*
X24035Y108984D01*
X24021Y109065D01*
X24003Y109140D01*
Y109144D01*
X23999Y109147D01*
X23996Y109158D01*
X23992Y109172D01*
X23978Y109204D01*
X23960Y109247D01*
X23935Y109293D01*
X23907Y109342D01*
X23872Y109392D01*
X23833Y109435D01*
X23829Y109438D01*
X23825Y109442D01*
X23804Y109460D01*
X23769Y109488D01*
X23722Y109523D01*
X23662Y109559D01*
X23591Y109598D01*
X23509Y109637D01*
X23417Y109673D01*
X23414D01*
X23407Y109676D01*
X23392Y109680D01*
X23371Y109687D01*
X23346Y109694D01*
X23314Y109701D01*
X23279Y109708D01*
X23240Y109719D01*
X23197Y109726D01*
X23147Y109733D01*
X23098Y109740D01*
X23041Y109747D01*
X22920Y109758D01*
X22785Y109761D01*
D02*
G37*
G36*
X34785Y136233D02*
X34778D01*
X34764D01*
X34736D01*
X34700Y136230D01*
X34657D01*
X34608Y136226D01*
X34555Y136219D01*
X34494Y136212D01*
X34366Y136191D01*
X34235Y136162D01*
X34111Y136120D01*
X34051Y136091D01*
X33997Y136063D01*
X33994Y136060D01*
X33987Y136056D01*
X33972Y136045D01*
X33951Y136031D01*
X33930Y136017D01*
X33905Y135996D01*
X33848Y135950D01*
X33784Y135889D01*
X33724Y135818D01*
X33667Y135740D01*
X33646Y135697D01*
X33625Y135651D01*
Y135648D01*
X33621Y135644D01*
X33617Y135634D01*
X33614Y135619D01*
X33610Y135598D01*
X33603Y135577D01*
X33596Y135548D01*
X33589Y135516D01*
X33585Y135481D01*
X33578Y135438D01*
X33571Y135392D01*
X33568Y135343D01*
X33564Y135286D01*
X33561Y135225D01*
X33557Y135161D01*
Y134405D01*
X36060D01*
Y135158D01*
X36056Y135186D01*
Y135218D01*
X36053Y135289D01*
X36046Y135371D01*
X36035Y135456D01*
X36021Y135538D01*
X36003Y135612D01*
Y135616D01*
X35999Y135619D01*
X35996Y135630D01*
X35992Y135644D01*
X35978Y135676D01*
X35960Y135719D01*
X35936Y135765D01*
X35907Y135815D01*
X35872Y135864D01*
X35833Y135907D01*
X35829Y135910D01*
X35825Y135914D01*
X35804Y135932D01*
X35769Y135960D01*
X35723Y135996D01*
X35662Y136031D01*
X35591Y136070D01*
X35509Y136109D01*
X35417Y136145D01*
X35414D01*
X35407Y136148D01*
X35392Y136152D01*
X35371Y136159D01*
X35346Y136166D01*
X35314Y136173D01*
X35279Y136180D01*
X35240Y136191D01*
X35197Y136198D01*
X35147Y136205D01*
X35098Y136212D01*
X35041Y136219D01*
X34920Y136230D01*
X34785Y136233D01*
D02*
G37*
G36*
X3979Y137393D02*
X3972D01*
X3957D01*
X3929D01*
X3893Y137390D01*
X3851D01*
X3801Y137386D01*
X3748Y137379D01*
X3688Y137372D01*
X3560Y137350D01*
X3428Y137322D01*
X3304Y137279D01*
X3244Y137251D01*
X3191Y137223D01*
X3187Y137219D01*
X3180Y137216D01*
X3166Y137205D01*
X3144Y137191D01*
X3123Y137177D01*
X3098Y137155D01*
X3042Y137109D01*
X2978Y137049D01*
X2917Y136978D01*
X2860Y136900D01*
X2839Y136857D01*
X2818Y136811D01*
Y136807D01*
X2814Y136804D01*
X2811Y136793D01*
X2807Y136779D01*
X2804Y136758D01*
X2796Y136736D01*
X2789Y136708D01*
X2782Y136676D01*
X2779Y136641D01*
X2772Y136598D01*
X2765Y136552D01*
X2761Y136502D01*
X2757Y136445D01*
X2754Y136385D01*
X2750Y136321D01*
Y135565D01*
X5253D01*
Y136318D01*
X5250Y136346D01*
Y136378D01*
X5246Y136449D01*
X5239Y136530D01*
X5228Y136616D01*
X5214Y136697D01*
X5196Y136772D01*
Y136775D01*
X5193Y136779D01*
X5189Y136790D01*
X5186Y136804D01*
X5172Y136836D01*
X5154Y136878D01*
X5129Y136925D01*
X5100Y136974D01*
X5065Y137024D01*
X5026Y137066D01*
X5022Y137070D01*
X5019Y137074D01*
X4998Y137091D01*
X4962Y137120D01*
X4916Y137155D01*
X4856Y137191D01*
X4784Y137230D01*
X4703Y137269D01*
X4611Y137304D01*
X4607D01*
X4600Y137308D01*
X4586Y137311D01*
X4564Y137319D01*
X4540Y137326D01*
X4508Y137333D01*
X4472Y137340D01*
X4433Y137350D01*
X4391Y137358D01*
X4341Y137365D01*
X4291Y137372D01*
X4234Y137379D01*
X4114Y137390D01*
X3979Y137393D01*
D02*
G37*
G36*
X4298Y108596D02*
X3389Y108252D01*
X3386D01*
X3372Y108245D01*
X3350Y108238D01*
X3318Y108227D01*
X3286Y108213D01*
X3244Y108199D01*
X3198Y108181D01*
X3148Y108163D01*
X3038Y108127D01*
X2924Y108089D01*
X2811Y108049D01*
X2704Y108018D01*
X2708D01*
X2718Y108014D01*
X2736Y108010D01*
X2757Y108007D01*
X2789Y108000D01*
X2821Y107993D01*
X2860Y107982D01*
X2903Y107971D01*
X2949Y107961D01*
X2999Y107947D01*
X3105Y107915D01*
X3219Y107879D01*
X3336Y107840D01*
X4298Y107478D01*
Y108596D01*
D02*
G37*
G36*
X3979Y105852D02*
X3972D01*
X3957D01*
X3929D01*
X3893Y105849D01*
X3851D01*
X3801Y105845D01*
X3748Y105838D01*
X3688Y105831D01*
X3560Y105809D01*
X3429Y105781D01*
X3304Y105738D01*
X3244Y105710D01*
X3191Y105682D01*
X3187Y105678D01*
X3180Y105675D01*
X3166Y105664D01*
X3145Y105650D01*
X3123Y105635D01*
X3098Y105614D01*
X3042Y105568D01*
X2978Y105508D01*
X2917Y105437D01*
X2860Y105359D01*
X2839Y105316D01*
X2818Y105270D01*
Y105266D01*
X2814Y105263D01*
X2811Y105252D01*
X2807Y105238D01*
X2804Y105217D01*
X2796Y105195D01*
X2789Y105167D01*
X2782Y105135D01*
X2779Y105099D01*
X2772Y105057D01*
X2765Y105011D01*
X2761Y104961D01*
X2757Y104904D01*
X2754Y104844D01*
X2750Y104780D01*
Y104024D01*
X5253D01*
Y104776D01*
X5250Y104805D01*
Y104837D01*
X5246Y104908D01*
X5239Y104989D01*
X5228Y105075D01*
X5214Y105156D01*
X5196Y105231D01*
Y105234D01*
X5193Y105238D01*
X5189Y105248D01*
X5186Y105263D01*
X5172Y105295D01*
X5154Y105337D01*
X5129Y105383D01*
X5100Y105433D01*
X5065Y105483D01*
X5026Y105525D01*
X5022Y105529D01*
X5019Y105533D01*
X4998Y105550D01*
X4962Y105579D01*
X4916Y105614D01*
X4856Y105650D01*
X4785Y105689D01*
X4703Y105728D01*
X4611Y105763D01*
X4607D01*
X4600Y105767D01*
X4586Y105770D01*
X4564Y105777D01*
X4540Y105784D01*
X4508Y105792D01*
X4472Y105799D01*
X4433Y105809D01*
X4391Y105816D01*
X4341Y105824D01*
X4291Y105831D01*
X4234Y105838D01*
X4114Y105849D01*
X3979Y105852D01*
D02*
G37*
%LPD*%
D70*
X28555Y61256D02*
G03*
X27374Y62437I-1181J0D01*
G01*
Y54563D02*
G03*
X28555Y55744I0J1181D01*
G01*
X10445D02*
G03*
X11626Y54563I1181J0D01*
G01*
Y62437D02*
G03*
X10445Y61256I0J-1181D01*
G01*
X48944Y85500D02*
X64500Y101056D01*
X80056Y85500D01*
X64500Y69944D02*
X80056Y85500D01*
X48944D02*
X64500Y69944D01*
X10445Y55744D02*
Y61256D01*
X11626Y54563D02*
X27374D01*
X28555Y55744D02*
Y61256D01*
X11626Y62437D02*
X27374D01*
X87138Y21488D02*
X91862D01*
X87138D02*
Y25032D01*
X91862Y21488D02*
Y25032D01*
X87138Y32512D02*
X91862D01*
Y28969D02*
Y32512D01*
X87138Y28969D02*
Y32512D01*
X1453Y6492D02*
Y139248D01*
X125547Y6492D02*
Y139248D01*
X1453Y6492D02*
X125547D01*
X1453Y139248D02*
X125547D01*
X41059Y6492D02*
Y49799D01*
X85941Y6492D02*
Y49799D01*
X41059D02*
X85941D01*
D71*
X121362Y23331D02*
G03*
X120575Y24118I-787J0D01*
G01*
X117425D02*
G03*
X116638Y23331I0J-787D01*
G01*
Y14669D02*
G03*
X117425Y13882I787J0D01*
G01*
X120575D02*
G03*
X121362Y14669I0J787D01*
G01*
X59882Y52925D02*
G03*
X60669Y52138I787J0D01*
G01*
X60669Y56862D02*
G03*
X59882Y56075I0J-787D01*
G01*
X70118Y56075D02*
G03*
X69331Y56862I-787J0D01*
G01*
X69331Y52138D02*
G03*
X70118Y52925I0J787D01*
G01*
X43733Y113392D02*
G03*
X43733Y114506I-557J557D01*
G01*
X41506Y116733D02*
G03*
X40392Y116733I-557J-557D01*
G01*
X34267Y110608D02*
G03*
X34267Y109494I557J-557D01*
G01*
X36494Y107267D02*
G03*
X37608Y107267I557J557D01*
G01*
X41267Y117608D02*
G03*
X41267Y116495I557J-557D01*
G01*
X43494Y114267D02*
G03*
X44608Y114267I557J557D01*
G01*
X50733Y120392D02*
G03*
X50733Y121505I-557J557D01*
G01*
X48505Y123733D02*
G03*
X47392Y123733I-557J-557D01*
G01*
X64831Y115638D02*
G03*
X65618Y116425I0J787D01*
G01*
Y119575D02*
G03*
X64831Y120362I-787J0D01*
G01*
X56169D02*
G03*
X55382Y119575I0J-787D01*
G01*
Y116425D02*
G03*
X56169Y115638I787J0D01*
G01*
X69108Y116233D02*
G03*
X67994Y116233I-557J-557D01*
G01*
X65767Y114005D02*
G03*
X65767Y112892I557J-557D01*
G01*
X71892Y106767D02*
G03*
X73005Y106767I557J557D01*
G01*
X75233Y108994D02*
G03*
X75233Y110108I-557J557D01*
G01*
X8033Y89346D02*
G03*
X7246Y90134I-787J0D01*
G01*
X4096D02*
G03*
X3309Y89346I0J-787D01*
G01*
Y80685D02*
G03*
X4096Y79898I787J0D01*
G01*
X7246D02*
G03*
X8033Y80685I0J787D01*
G01*
X3841Y69878D02*
G03*
X3053Y69090I0J-787D01*
G01*
Y65941D02*
G03*
X3841Y65153I787J0D01*
G01*
X12502D02*
G03*
X13289Y65941I0J787D01*
G01*
Y69090D02*
G03*
X12502Y69878I-787J0D01*
G01*
X12502Y70653D02*
G03*
X13289Y71441I0J787D01*
G01*
Y74590D02*
G03*
X12502Y75378I-787J0D01*
G01*
X3841D02*
G03*
X3053Y74590I0J-787D01*
G01*
Y71441D02*
G03*
X3841Y70653I787J0D01*
G01*
X35831Y63638D02*
G03*
X36618Y64425I0J787D01*
G01*
Y67575D02*
G03*
X35831Y68362I-787J0D01*
G01*
X27169D02*
G03*
X26382Y67575I0J-787D01*
G01*
Y64425D02*
G03*
X27169Y63638I787J0D01*
G01*
X27169Y38362D02*
G03*
X26382Y37575I0J-787D01*
G01*
Y34425D02*
G03*
X27169Y33638I787J0D01*
G01*
X35831D02*
G03*
X36618Y34425I0J787D01*
G01*
Y37575D02*
G03*
X35831Y38362I-787J0D01*
G01*
X27169Y32862D02*
G03*
X26382Y32075I0J-787D01*
G01*
Y28925D02*
G03*
X27169Y28138I787J0D01*
G01*
X35831D02*
G03*
X36618Y28925I0J787D01*
G01*
Y32075D02*
G03*
X35831Y32862I-787J0D01*
G01*
X74362Y26331D02*
G03*
X73575Y27118I-787J0D01*
G01*
X70425D02*
G03*
X69638Y26331I0J-787D01*
G01*
Y17669D02*
G03*
X70425Y16882I787J0D01*
G01*
X73575D02*
G03*
X74362Y17669I0J787D01*
G01*
X33638Y71669D02*
G03*
X34425Y70882I787J0D01*
G01*
X37575D02*
G03*
X38362Y71669I0J787D01*
G01*
Y80331D02*
G03*
X37575Y81118I-787J0D01*
G01*
X34425D02*
G03*
X33638Y80331I0J-787D01*
G01*
X98005Y76138D02*
G03*
X98793Y76925I0J787D01*
G01*
Y80075D02*
G03*
X98005Y80862I-787J0D01*
G01*
X89344D02*
G03*
X88557Y80075I0J-787D01*
G01*
Y76925D02*
G03*
X89344Y76138I787J0D01*
G01*
X121362Y14669D02*
Y23331D01*
X116638Y14669D02*
Y23331D01*
X117425Y24118D02*
X120575D01*
X117425Y13882D02*
X120575D01*
X59882Y52925D02*
Y56075D01*
X70118Y52925D02*
Y56075D01*
X60669Y56862D02*
X69331D01*
X60669Y52138D02*
X69331D01*
X10450Y91221D02*
X11417D01*
X10450Y88285D02*
Y91221D01*
X19925D02*
X20893D01*
Y88285D02*
Y91221D01*
X10450Y78810D02*
X11417D01*
X10450D02*
Y81746D01*
X19925Y78810D02*
X20893D01*
Y81746D01*
X37608Y107267D02*
X43733Y113392D01*
X34267Y110608D02*
X40392Y116733D01*
X41506D02*
X43733Y114506D01*
X34267Y109494D02*
X36494Y107267D01*
X41267Y117608D02*
X47392Y123733D01*
X44608Y114267D02*
X50733Y120392D01*
X41267Y116495D02*
X43494Y114267D01*
X48505Y123733D02*
X50733Y121505D01*
X56169Y115638D02*
X64831D01*
X56169Y120362D02*
X64831D01*
X65618Y116425D02*
Y119575D01*
X55382Y116425D02*
Y119575D01*
X69108Y116233D02*
X75233Y110108D01*
X65767Y112892D02*
X71892Y106767D01*
X65767Y114005D02*
X67994Y116233D01*
X73005Y106767D02*
X75233Y108994D01*
X8033Y80685D02*
Y89346D01*
X3309Y80685D02*
Y89346D01*
X4096Y90134D02*
X7246D01*
X4096Y79898D02*
X7246D01*
X3841Y69878D02*
X12502D01*
X3841Y65153D02*
X12502D01*
X3053Y65941D02*
Y69090D01*
X13289Y65941D02*
Y69090D01*
X3841Y70653D02*
X12502D01*
X3841Y75378D02*
X12502D01*
X13289Y71441D02*
Y74590D01*
X3053Y71441D02*
Y74590D01*
X34289Y85154D02*
Y89878D01*
X24053Y85154D02*
Y89878D01*
X34289D01*
X24053Y85154D02*
X34289D01*
Y79654D02*
Y84378D01*
X24053Y79654D02*
Y84378D01*
X34289D01*
X24053Y79654D02*
X34289D01*
X27169Y63638D02*
X35831D01*
X27169Y68362D02*
X35831D01*
X36618Y64425D02*
Y67575D01*
X26382Y64425D02*
Y67575D01*
X27169Y38362D02*
X35831D01*
X27169Y33638D02*
X35831D01*
X26382Y34425D02*
Y37575D01*
X36618Y34425D02*
Y37575D01*
X27169Y32862D02*
X35831D01*
X27169Y28138D02*
X35831D01*
X26382Y28925D02*
Y32075D01*
X36618Y28925D02*
Y32075D01*
X26638Y25618D02*
X31362D01*
X26638Y15382D02*
X31362D01*
X26638D02*
Y25618D01*
X31362Y15382D02*
Y25618D01*
X32138Y15382D02*
X36862D01*
X32138Y25618D02*
X36862D01*
Y15382D02*
Y25618D01*
X32138Y15382D02*
Y25618D01*
X24618Y9138D02*
Y13862D01*
X14382Y9138D02*
Y13862D01*
X24618D01*
X14382Y9138D02*
X24618D01*
X48638Y27118D02*
X53362D01*
X48638Y16882D02*
X53362D01*
X48638D02*
Y27118D01*
X53362Y16882D02*
Y27118D01*
X74362Y17669D02*
Y26331D01*
X69638Y17669D02*
Y26331D01*
X70425Y27118D02*
X73575D01*
X70425Y16882D02*
X73575D01*
X75638Y27118D02*
X80362D01*
X75638Y16882D02*
X80362D01*
X75638D02*
Y27118D01*
X80362Y16882D02*
Y27118D01*
X87138Y20118D02*
X91862D01*
X87138Y9882D02*
X91862D01*
X87138D02*
Y20118D01*
X91862Y9882D02*
Y20118D01*
X87532Y27984D02*
X91469D01*
X87532D02*
X89500Y26016D01*
X91469Y27984D01*
X87532Y26016D02*
X91469D01*
X93382Y8138D02*
Y12862D01*
X103618Y8138D02*
Y12862D01*
X93382Y8138D02*
X103618D01*
X93382Y12862D02*
X103618D01*
X118618Y34138D02*
Y38862D01*
X108382Y34138D02*
Y38862D01*
X118618D01*
X108382Y34138D02*
X118618D01*
X33638Y71669D02*
Y80331D01*
X38362Y71669D02*
Y80331D01*
X34425Y70882D02*
X37575D01*
X34425Y81118D02*
X37575D01*
X89344Y76138D02*
X98005D01*
X89344Y80862D02*
X98005D01*
X98793Y76925D02*
Y80075D01*
X88557Y76925D02*
Y80075D01*
X44500Y11499D02*
X46499D01*
Y10999D01*
X44500Y9000D01*
Y8500D01*
X46499D01*
X49498Y11499D02*
X48499D01*
X48999D01*
Y9000D01*
X48499Y8500D01*
X47999D01*
X47499Y9000D01*
X50498Y11499D02*
Y10999D01*
X51498Y10000D01*
X52497Y10999D01*
Y11499D01*
X51498Y10000D02*
Y8500D01*
X53497D02*
X54497D01*
X53997D01*
Y11499D01*
X53497Y10999D01*
X57996Y11499D02*
X55996D01*
Y10000D01*
X56996Y10499D01*
X57496D01*
X57996Y10000D01*
Y9000D01*
X57496Y8500D01*
X56496D01*
X55996Y9000D01*
X60495Y8500D02*
Y11499D01*
X58995Y10000D01*
X60995D01*
X61994Y11499D02*
X63994D01*
X62994D01*
Y8500D01*
X64993Y10000D02*
X66993D01*
X67992Y8500D02*
Y11499D01*
X69492D01*
X69992Y10999D01*
Y10000D01*
X69492Y9500D01*
X67992D01*
X72991Y10999D02*
X72491Y11499D01*
X71491D01*
X70991Y10999D01*
Y9000D01*
X71491Y8500D01*
X72491D01*
X72991Y9000D01*
Y10000D01*
X71991D01*
X73990Y10999D02*
X74490Y11499D01*
X75490D01*
X75990Y10999D01*
Y9000D01*
X75490Y8500D01*
X74490D01*
X73990Y9000D01*
Y10999D01*
X78489Y8500D02*
Y11499D01*
X76990Y10000D01*
X78989D01*
X120499Y10501D02*
X120999Y11000D01*
Y12000D01*
X120499Y12500D01*
X118500D01*
X118000Y12000D01*
Y11000D01*
X118500Y10501D01*
X118000Y7502D02*
Y9501D01*
X119999Y7502D01*
X120499D01*
X120999Y8001D01*
Y9001D01*
X120499Y9501D01*
X113499Y9501D02*
X113999Y10001D01*
Y11000D01*
X113499Y11500D01*
X111500D01*
X111000Y11000D01*
Y10001D01*
X111500Y9501D01*
X111000Y8501D02*
Y7501D01*
Y8001D01*
X113999D01*
X113499Y8501D01*
X113499Y30499D02*
X112999Y30999D01*
X112000D01*
X111500Y30499D01*
Y28500D01*
X112000Y28000D01*
X112999D01*
X113499Y28500D01*
X114499Y30499D02*
X114999Y30999D01*
X115999D01*
X116498Y30499D01*
Y29999D01*
X115999Y29500D01*
X115499D01*
X115999D01*
X116498Y29000D01*
Y28500D01*
X115999Y28000D01*
X114999D01*
X114499Y28500D01*
X22499Y31499D02*
X22000Y31999D01*
X21000D01*
X20500Y31499D01*
Y29500D01*
X21000Y29000D01*
X22000D01*
X22499Y29500D01*
X24999Y29000D02*
Y31999D01*
X23499Y30500D01*
X25498D01*
X22499Y36999D02*
X22000Y37499D01*
X21000D01*
X20500Y36999D01*
Y35000D01*
X21000Y34500D01*
X22000D01*
X22499Y35000D01*
X25498Y37499D02*
X23499D01*
Y36000D01*
X24499Y36499D01*
X24999D01*
X25498Y36000D01*
Y35000D01*
X24999Y34500D01*
X23999D01*
X23499Y35000D01*
X32499Y58999D02*
X31999Y59499D01*
X31000D01*
X30500Y58999D01*
Y57000D01*
X31000Y56500D01*
X31999D01*
X32499Y57000D01*
X35498Y59499D02*
X34499Y58999D01*
X33499Y57999D01*
Y57000D01*
X33999Y56500D01*
X34999D01*
X35498Y57000D01*
Y57500D01*
X34999Y57999D01*
X33499D01*
X39999Y66999D02*
X39500Y67499D01*
X38500D01*
X38000Y66999D01*
Y65000D01*
X38500Y64500D01*
X39500D01*
X39999Y65000D01*
X40999Y67499D02*
X42998D01*
Y66999D01*
X40999Y65000D01*
Y64500D01*
X70999Y119999D02*
X70499Y120499D01*
X69500D01*
X69000Y119999D01*
Y118000D01*
X69500Y117500D01*
X70499D01*
X70999Y118000D01*
X71999Y119999D02*
X72499Y120499D01*
X73499D01*
X73998Y119999D01*
Y119499D01*
X73499Y119000D01*
X73998Y118500D01*
Y118000D01*
X73499Y117500D01*
X72499D01*
X71999Y118000D01*
Y118500D01*
X72499Y119000D01*
X71999Y119499D01*
Y119999D01*
X72499Y119000D02*
X73499D01*
X102999Y78999D02*
X102499Y79499D01*
X101500D01*
X101000Y78999D01*
Y77000D01*
X101500Y76500D01*
X102499D01*
X102999Y77000D01*
X103999D02*
X104499Y76500D01*
X105499D01*
X105998Y77000D01*
Y78999D01*
X105499Y79499D01*
X104499D01*
X103999Y78999D01*
Y78499D01*
X104499Y78000D01*
X105998D01*
X79181Y110853D02*
X79181Y111560D01*
X78474Y112267D01*
X77767D01*
X76353Y110853D01*
Y110147D01*
X77060Y109440D01*
X77767Y109440D01*
X78121Y108379D02*
X78828Y107673D01*
X78474Y108026D01*
X80595Y110147D01*
X79888D01*
X81655Y108379D02*
X82362D01*
X83069Y107673D01*
Y106966D01*
X81655Y105552D01*
X80948Y105552D01*
X80241Y106259D01*
Y106966D01*
X81655Y108379D01*
X73499Y55499D02*
X73000Y55999D01*
X72000D01*
X71500Y55499D01*
Y53500D01*
X72000Y53000D01*
X73000D01*
X73499Y53500D01*
X74499Y53000D02*
X75499D01*
X74999D01*
Y55999D01*
X74499Y55499D01*
X76998Y53000D02*
X77998D01*
X77498D01*
Y55999D01*
X76998Y55499D01*
X35501Y84499D02*
X35001Y84000D01*
Y83000D01*
X35501Y82500D01*
X37500D01*
X38000Y83000D01*
Y84000D01*
X37500Y84499D01*
X38000Y85499D02*
Y86499D01*
Y85999D01*
X35001D01*
X35501Y85499D01*
X38000Y89998D02*
Y87998D01*
X36001Y89998D01*
X35501D01*
X35001Y89498D01*
Y88498D01*
X35501Y87998D01*
X42647Y125681D02*
X41940Y125681D01*
X41233Y124974D01*
Y124267D01*
X42647Y122853D01*
X43353D01*
X44060Y123560D01*
X44060Y124267D01*
X45121Y124621D02*
X45827Y125328D01*
X45474Y124974D01*
X43353Y127095D01*
Y126388D01*
X47948Y127448D02*
X45827Y129569D01*
Y127448D01*
X47241Y128862D01*
X35147Y103181D02*
X34440Y103181D01*
X33733Y102474D01*
Y101767D01*
X35147Y100353D01*
X35853D01*
X36560Y101060D01*
X36560Y101767D01*
X37621Y102121D02*
X38328Y102828D01*
X37974Y102474D01*
X35853Y104595D01*
Y103888D01*
X38681Y107422D02*
X37267Y106009D01*
X38328Y104948D01*
X38681Y106009D01*
X39034Y106362D01*
X39741D01*
X40448Y105655D01*
X40448Y104948D01*
X39741Y104241D01*
X39034D01*
X4999Y63499D02*
X4499Y63999D01*
X3500D01*
X3000Y63499D01*
Y61500D01*
X3500Y61000D01*
X4499D01*
X4999Y61500D01*
X5999Y61000D02*
X6999D01*
X6499D01*
Y63999D01*
X5999Y63499D01*
X8498Y61500D02*
X8998Y61000D01*
X9998D01*
X10498Y61500D01*
Y63499D01*
X9998Y63999D01*
X8998D01*
X8498Y63499D01*
Y62999D01*
X8998Y62499D01*
X10498D01*
X4499Y78499D02*
X3999Y78999D01*
X3000D01*
X2500Y78499D01*
Y76500D01*
X3000Y76000D01*
X3999D01*
X4499Y76500D01*
X7498Y76000D02*
X5499D01*
X7498Y77999D01*
Y78499D01*
X6999Y78999D01*
X5999D01*
X5499Y78499D01*
X8498D02*
X8998Y78999D01*
X9998D01*
X10497Y78499D01*
Y76500D01*
X9998Y76000D01*
X8998D01*
X8498Y76500D01*
Y78499D01*
X4501Y93999D02*
X4001Y93499D01*
Y92500D01*
X4501Y92000D01*
X6500D01*
X7000Y92500D01*
Y93499D01*
X6500Y93999D01*
X7000Y96998D02*
Y94999D01*
X5001Y96998D01*
X4501D01*
X4001Y96499D01*
Y95499D01*
X4501Y94999D01*
X7000Y97998D02*
Y98998D01*
Y98498D01*
X4001D01*
X4501Y97998D01*
X70501Y30499D02*
X70001Y30000D01*
Y29000D01*
X70501Y28500D01*
X72500D01*
X73000Y29000D01*
Y30000D01*
X72500Y30499D01*
X73000Y33498D02*
Y31499D01*
X71001Y33498D01*
X70501D01*
X70001Y32999D01*
Y31999D01*
X70501Y31499D01*
X73000Y36497D02*
Y34498D01*
X71001Y36497D01*
X70501D01*
X70001Y35998D01*
Y34998D01*
X70501Y34498D01*
X82501Y25000D02*
X85500D01*
Y26500D01*
X85000Y26999D01*
X83001D01*
X82501Y26500D01*
Y25000D01*
X85500Y27999D02*
Y28999D01*
Y28499D01*
X82501D01*
X83001Y27999D01*
X85500Y50999D02*
Y48000D01*
X86999D01*
X87499Y48500D01*
Y50499D01*
X86999Y50999D01*
X85500D01*
X90498Y48000D02*
X88499D01*
X90498Y49999D01*
Y50499D01*
X89999Y50999D01*
X88999D01*
X88499Y50499D01*
X85500Y56999D02*
Y54000D01*
X86999D01*
X87499Y54500D01*
Y56499D01*
X86999Y56999D01*
X85500D01*
X88499Y56499D02*
X88999Y56999D01*
X89999D01*
X90498Y56499D01*
Y55999D01*
X89999Y55500D01*
X89499D01*
X89999D01*
X90498Y55000D01*
Y54500D01*
X89999Y54000D01*
X88999D01*
X88499Y54500D01*
X86000Y38499D02*
Y35500D01*
X87499D01*
X87999Y36000D01*
Y37999D01*
X87499Y38499D01*
X86000D01*
X90499Y35500D02*
Y38499D01*
X88999Y36999D01*
X90998D01*
X85500Y44499D02*
Y41500D01*
X86999D01*
X87499Y42000D01*
Y43999D01*
X86999Y44499D01*
X85500D01*
X90498D02*
X88499D01*
Y43000D01*
X89499Y43499D01*
X89999D01*
X90498Y43000D01*
Y42000D01*
X89999Y41500D01*
X88999D01*
X88499Y42000D01*
X72000Y126499D02*
Y123500D01*
X73500D01*
X73999Y124000D01*
Y125999D01*
X73500Y126499D01*
X72000D01*
X76998D02*
X75999Y125999D01*
X74999Y124999D01*
Y124000D01*
X75499Y123500D01*
X76499D01*
X76998Y124000D01*
Y124500D01*
X76499Y124999D01*
X74999D01*
X10999Y15500D02*
Y17499D01*
X10499Y17999D01*
X9500D01*
X9000Y17499D01*
Y15500D01*
X9500Y15000D01*
X10499D01*
X10000Y16000D02*
X10999Y15000D01*
X10499D02*
X10999Y15500D01*
X11999Y15000D02*
X12999D01*
X12499D01*
Y17999D01*
X11999Y17499D01*
X104500Y8700D02*
Y11699D01*
X106000D01*
X106499Y11199D01*
Y10199D01*
X106000Y9700D01*
X104500D01*
X105500D02*
X106499Y8700D01*
X107499D02*
X108499D01*
X107999D01*
Y11699D01*
X107499Y11199D01*
X85000Y12000D02*
X82001D01*
Y13499D01*
X82501Y13999D01*
X83500D01*
X84000Y13499D01*
Y12000D01*
Y13000D02*
X85000Y13999D01*
Y16998D02*
Y14999D01*
X83001Y16998D01*
X82501D01*
X82001Y16499D01*
Y15499D01*
X82501Y14999D01*
X27500Y14500D02*
X30499D01*
Y13001D01*
X29999Y12501D01*
X29000D01*
X28500Y13001D01*
Y14500D01*
Y13500D02*
X27500Y12501D01*
X29999Y11501D02*
X30499Y11001D01*
Y10001D01*
X29999Y9502D01*
X29499D01*
X29000Y10001D01*
Y10501D01*
Y10001D01*
X28500Y9502D01*
X28000D01*
X27500Y10001D01*
Y11001D01*
X28000Y11501D01*
X8000Y9500D02*
Y12499D01*
X9499D01*
X9999Y11999D01*
Y11000D01*
X9499Y10500D01*
X8000D01*
X9000D02*
X9999Y9500D01*
X12499D02*
Y12499D01*
X10999Y11000D01*
X12998D01*
X33000Y14000D02*
X35999D01*
Y12501D01*
X35499Y12001D01*
X34499D01*
X34000Y12501D01*
Y14000D01*
Y13000D02*
X33000Y12001D01*
X35999Y9002D02*
Y11001D01*
X34499D01*
X34999Y10001D01*
Y9501D01*
X34499Y9002D01*
X33500D01*
X33000Y9501D01*
Y10501D01*
X33500Y11001D01*
X120000Y35000D02*
Y37999D01*
X121500D01*
X121999Y37499D01*
Y36500D01*
X121500Y36000D01*
X120000D01*
X121000D02*
X121999Y35000D01*
X124998Y37999D02*
X123999Y37499D01*
X122999Y36500D01*
Y35500D01*
X123499Y35000D01*
X124499D01*
X124998Y35500D01*
Y36000D01*
X124499Y36500D01*
X122999D01*
X27000Y75500D02*
Y78499D01*
X28499D01*
X28999Y77999D01*
Y76999D01*
X28499Y76500D01*
X27000D01*
X28000D02*
X28999Y75500D01*
X29999Y77999D02*
X30499Y78499D01*
X31499D01*
X31998Y77999D01*
Y77499D01*
X31499Y76999D01*
X31998Y76500D01*
Y76000D01*
X31499Y75500D01*
X30499D01*
X29999Y76000D01*
Y76500D01*
X30499Y76999D01*
X29999Y77499D01*
Y77999D01*
X30499Y76999D02*
X31499D01*
X26000Y92000D02*
Y94999D01*
X27499D01*
X27999Y94499D01*
Y93499D01*
X27499Y93000D01*
X26000D01*
X27000D02*
X27999Y92000D01*
X28999D02*
X29999D01*
X29499D01*
Y94999D01*
X28999Y94499D01*
X31498Y92000D02*
X32498D01*
X31998D01*
Y94999D01*
X31498Y94499D01*
X79500Y28000D02*
X76501D01*
Y29500D01*
X77001Y29999D01*
X78000D01*
X78500Y29500D01*
Y28000D01*
Y29000D02*
X79500Y29999D01*
Y30999D02*
Y31999D01*
Y31499D01*
X76501D01*
X77001Y30999D01*
X79500Y35498D02*
Y33498D01*
X77501Y35498D01*
X77001D01*
X76501Y34998D01*
Y33998D01*
X77001Y33498D01*
X49500Y28000D02*
X46501D01*
Y29500D01*
X47001Y29999D01*
X48000D01*
X48500Y29500D01*
Y28000D01*
Y29000D02*
X49500Y29999D01*
Y30999D02*
Y31999D01*
Y31499D01*
X46501D01*
X47001Y30999D01*
X46501Y35498D02*
Y33498D01*
X48000D01*
X47501Y34498D01*
Y34998D01*
X48000Y35498D01*
X49000D01*
X49500Y34998D01*
Y33998D01*
X49000Y33498D01*
X98449Y19999D02*
Y17500D01*
X98949Y17000D01*
X99948D01*
X100448Y17500D01*
Y19999D01*
X101448Y17000D02*
X102447D01*
X101948D01*
Y19999D01*
X101448Y19499D01*
X19000Y46999D02*
Y44500D01*
X19500Y44000D01*
X20500D01*
X20999Y44500D01*
Y46999D01*
X23998Y44000D02*
X21999D01*
X23998Y45999D01*
Y46499D01*
X23499Y46999D01*
X22499D01*
X21999Y46499D01*
X14000Y96999D02*
Y94500D01*
X14500Y94000D01*
X15499D01*
X15999Y94500D01*
Y96999D01*
X16999D02*
X18998D01*
Y96499D01*
X16999Y94500D01*
Y94000D01*
X50976Y105403D02*
X51329Y105050D01*
X52743Y105050D01*
Y106463D01*
X52389Y106817D01*
X52743Y105050D02*
X53803Y103989D01*
X55217Y105403D02*
X55924Y106110D01*
X55570Y105757D01*
X53450Y107877D01*
Y107170D01*
X114499Y55500D02*
Y57499D01*
X113999Y57999D01*
X113000D01*
X112500Y57499D01*
Y55500D01*
X113000Y55000D01*
X113999D01*
X113500Y56000D02*
X114499Y55000D01*
X113999D02*
X114499Y55500D01*
X117498Y55000D02*
X115499D01*
X117498Y56999D01*
Y57499D01*
X116999Y57999D01*
X115999D01*
X115499Y57499D01*
X63500Y30999D02*
X61501D01*
X61001Y30500D01*
Y29500D01*
X61501Y29000D01*
X63500D01*
X64000Y29500D01*
Y30500D01*
X63000Y30000D02*
X64000Y30999D01*
Y30500D02*
X63500Y30999D01*
X61501Y31999D02*
X61001Y32499D01*
Y33499D01*
X61501Y33998D01*
X62001D01*
X62501Y33499D01*
Y32999D01*
Y33499D01*
X63000Y33998D01*
X63500D01*
X64000Y33499D01*
Y32499D01*
X63500Y31999D01*
D73*
X48918Y106242D02*
X52258Y109582D01*
X44742Y110418D02*
X48082Y113758D01*
X14374Y25618D02*
X20181D01*
X14374Y15382D02*
X20181D01*
X14374D02*
Y17154D01*
Y23846D02*
Y25618D01*
X60319Y16882D02*
X66126D01*
X60319Y27118D02*
X66126D01*
Y25346D02*
Y27118D01*
Y16882D02*
Y18654D01*
X119618Y46319D02*
Y52126D01*
X109382Y46319D02*
Y52126D01*
X111153D01*
X117847D02*
X119618D01*
D74*
X100000Y55000D02*
X101300D01*
X96700D02*
X98000D01*
X100000Y53000D02*
Y57000D01*
X98000Y53000D02*
Y57000D01*
Y53000D02*
X100000Y55000D01*
X98000Y57000D02*
X100000Y55000D01*
X96700Y49000D02*
X98000D01*
X100000D02*
X101300D01*
X98000Y47000D02*
Y51000D01*
X100000Y47000D02*
Y51000D01*
X98000Y49000D02*
X100000Y51000D01*
X98000Y49000D02*
X100000Y47000D01*
Y43000D02*
X101300D01*
X96700D02*
X98000D01*
X100000Y41000D02*
Y45000D01*
X98000Y41000D02*
Y45000D01*
Y41000D02*
X100000Y43000D01*
X98000Y45000D02*
X100000Y43000D01*
Y37000D02*
X101300D01*
X96700D02*
X98000D01*
X100000Y35000D02*
Y39000D01*
X98000Y35000D02*
Y39000D01*
Y35000D02*
X100000Y37000D01*
X98000Y39000D02*
X100000Y37000D01*
X60000Y125000D02*
X62000Y123000D01*
X60000Y125000D02*
X62000Y127000D01*
Y123000D02*
Y127000D01*
X60000Y123000D02*
Y127000D01*
X62000Y125000D02*
X63300D01*
X58700D02*
X60000D01*
D106*
X65484Y95399D02*
G03*
X65484Y95399I-984J0D01*
G01*
D107*
X63717Y107774D02*
G03*
X63717Y107774I-984J0D01*
G01*
D108*
X18919Y93225D02*
G03*
X18919Y93225I-295J0D01*
G01*
X22919Y75754D02*
G03*
X22919Y75754I-295J0D01*
G01*
D109*
X90701Y28032D02*
G03*
X91882Y26850I1181J0D01*
G01*
X91882Y33150D02*
G03*
X90701Y31969I0J-1181D01*
G01*
X103299Y31969D02*
G03*
X102118Y33150I-1181J0D01*
G01*
X102118Y26850D02*
G03*
X103299Y28032I0J1181D01*
G01*
X110031Y25299D02*
G03*
X108850Y24118I0J-1181D01*
G01*
X115150Y24118D02*
G03*
X113969Y25299I-1181J0D01*
G01*
X113969Y12701D02*
G03*
X115150Y13882I0J1181D01*
G01*
X108850Y13882D02*
G03*
X110031Y12701I1181J0D01*
G01*
X91882Y26850D02*
X102118D01*
X90701Y28032D02*
Y31969D01*
X91882Y33150D02*
X102118D01*
X103299Y28032D02*
Y31969D01*
X108850Y13882D02*
Y24118D01*
X110031Y25299D02*
X113969D01*
X115150Y13882D02*
Y24118D01*
X110031Y12701D02*
X113969D01*
D110*
X25335Y43075D02*
X37146D01*
X25335Y49374D02*
X37146D01*
Y43075D02*
Y49374D01*
X25335Y43075D02*
Y49374D01*
X103874Y12835D02*
Y24646D01*
X97575Y12835D02*
Y24646D01*
X103874D01*
X97575Y12835D02*
X103874D01*
%TF.MD5,1b73386b0f4461bd78980b86c62300a9*%
M02*
