%TF.GenerationSoftware,Altium Limited,Altium Designer,20.0.13 (296)*%
G04 Layer_Color=2752767*
%FSLAX25Y25*%
%MOIN*%
%TF.FileFunction,Drawing*%
%TF.Part,Single*%
G01*
G75*
%TA.AperFunction,NonConductor*%
%ADD74C,0.00500*%
%ADD152C,0.00667*%
D74*
X36500Y99000D02*
Y103000D01*
X40500D01*
Y99000D01*
X36500D01*
X56000Y29000D02*
Y33000D01*
X60000D01*
Y29000D01*
X56000D01*
X106500Y10500D02*
Y14500D01*
X110500D01*
Y10500D01*
X106500D01*
X104453Y8500D02*
Y12500D01*
X108453D01*
Y8500D01*
X104453D01*
X108339Y59346D02*
X106339Y63346D01*
X110339D01*
X108339Y59346D01*
Y27850D02*
X106339Y31850D01*
X110339D01*
X108339Y27850D01*
X15606Y26453D02*
X16606Y27453D01*
X17606D01*
X16606Y28453D01*
X17606Y29453D01*
X16606D01*
X15606Y30453D01*
X14606Y29453D01*
X13606D01*
X14606Y28453D01*
X13606Y27453D01*
X14606D01*
X15606Y26453D01*
Y45547D02*
X16606Y46547D01*
X17606D01*
X16606Y47547D01*
X17606Y48547D01*
X16606D01*
X15606Y49547D01*
X14606Y48547D01*
X13606D01*
X14606Y47547D01*
X13606Y46547D01*
X14606D01*
X15606Y45547D01*
X3173Y21728D02*
X4173Y23728D01*
X3173Y25728D01*
X5173Y24728D01*
X7173Y25728D01*
X6173Y23728D01*
X7173Y21728D01*
X5173Y22728D01*
X3173Y21728D01*
Y50272D02*
X4173Y52272D01*
X3173Y54272D01*
X5173Y53272D01*
X7173Y54272D01*
X6173Y52272D01*
X7173Y50272D01*
X5173Y51272D01*
X3173Y50272D01*
X79500Y112000D02*
Y116000D01*
X83500D01*
Y112000D01*
X79500D01*
X80500Y103500D02*
Y102500D01*
X82500D01*
Y103500D01*
X83500D01*
Y105500D01*
X82500D01*
Y106500D01*
X80500D01*
Y105500D01*
X79500D01*
Y103500D01*
X80500D01*
X104000Y88000D02*
Y87000D01*
X106000D01*
Y88000D01*
X107000D01*
Y90000D01*
X106000D01*
Y91000D01*
X104000D01*
Y90000D01*
X103000D01*
Y88000D01*
X104000D01*
X118500Y97500D02*
Y96500D01*
X120500D01*
Y97500D01*
X121500D01*
Y99500D01*
X120500D01*
Y100500D01*
X118500D01*
Y99500D01*
X117500D01*
Y97500D01*
X118500D01*
Y116500D02*
Y115500D01*
X120500D01*
Y116500D01*
X121500D01*
Y118500D01*
X120500D01*
Y119500D01*
X118500D01*
Y118500D01*
X117500D01*
Y116500D01*
X118500D01*
X104000Y127000D02*
Y126000D01*
X106000D01*
Y127000D01*
X107000D01*
Y129000D01*
X106000D01*
Y130000D01*
X104000D01*
Y129000D01*
X103000D01*
Y127000D01*
X104000D01*
X47500Y100500D02*
Y99500D01*
X49500D01*
Y100500D01*
X50500D01*
Y102500D01*
X49500D01*
Y103500D01*
X47500D01*
Y102500D01*
X46500D01*
Y100500D01*
X47500D01*
X70500Y53500D02*
Y52500D01*
X72500D01*
Y53500D01*
X73500D01*
Y55500D01*
X72500D01*
Y56500D01*
X70500D01*
Y55500D01*
X69500D01*
Y53500D01*
X70500D01*
X76500Y63000D02*
Y62000D01*
X78500D01*
Y63000D01*
X79500D01*
Y65000D01*
X78500D01*
Y66000D01*
X76500D01*
Y65000D01*
X75500D01*
Y63000D01*
X76500D01*
X67188Y108273D02*
Y107273D01*
X69187D01*
Y108273D01*
X70187D01*
Y110273D01*
X69187D01*
Y111273D01*
X67188D01*
Y110273D01*
X66188D01*
Y108273D01*
X67188D01*
X66500Y105500D02*
Y104500D01*
X68500D01*
Y105500D01*
X69500D01*
Y107500D01*
X68500D01*
Y108500D01*
X66500D01*
Y107500D01*
X65500D01*
Y105500D01*
X66500D01*
X68500Y94000D02*
Y93000D01*
X70500D01*
Y94000D01*
X71500D01*
Y96000D01*
X70500D01*
Y97000D01*
X68500D01*
Y96000D01*
X67500D01*
Y94000D01*
X68500D01*
X46000Y98000D02*
Y97000D01*
X48000D01*
Y98000D01*
X49000D01*
Y100000D01*
X48000D01*
Y101000D01*
X46000D01*
Y100000D01*
X45000D01*
Y98000D01*
X46000D01*
X66000Y72500D02*
Y71500D01*
X68000D01*
Y72500D01*
X69000D01*
Y74500D01*
X68000D01*
Y75500D01*
X66000D01*
Y74500D01*
X65000D01*
Y72500D01*
X66000D01*
X93000Y86000D02*
Y85000D01*
X95000D01*
Y86000D01*
X96000D01*
Y88000D01*
X95000D01*
Y89000D01*
X93000D01*
Y88000D01*
X92000D01*
Y86000D01*
X93000D01*
X83372Y94500D02*
Y93500D01*
X85372D01*
Y94500D01*
X86372D01*
Y96500D01*
X85372D01*
Y97500D01*
X83372D01*
Y96500D01*
X82372D01*
Y94500D01*
X83372D01*
X83824Y97176D02*
Y96176D01*
X85824D01*
Y97176D01*
X86824D01*
Y99176D01*
X85824D01*
Y100176D01*
X83824D01*
Y99176D01*
X82824D01*
Y97176D01*
X83824D01*
X55500Y84000D02*
Y83000D01*
X57500D01*
Y84000D01*
X58500D01*
Y86000D01*
X57500D01*
Y87000D01*
X55500D01*
Y86000D01*
X54500D01*
Y84000D01*
X55500D01*
X64807Y84307D02*
Y83307D01*
X66807D01*
Y84307D01*
X67807D01*
Y86307D01*
X66807D01*
Y87307D01*
X64807D01*
Y86307D01*
X63807D01*
Y84307D01*
X64807D01*
X61000Y86500D02*
Y85500D01*
X63000D01*
Y86500D01*
X64000D01*
Y88500D01*
X63000D01*
Y89500D01*
X61000D01*
Y88500D01*
X60000D01*
Y86500D01*
X61000D01*
X72000Y85000D02*
Y84000D01*
X74000D01*
Y85000D01*
X75000D01*
Y87000D01*
X74000D01*
Y88000D01*
X72000D01*
Y87000D01*
X71000D01*
Y85000D01*
X72000D01*
X43000Y100500D02*
Y99500D01*
X45000D01*
Y100500D01*
X46000D01*
Y102500D01*
X45000D01*
Y103500D01*
X43000D01*
Y102500D01*
X42000D01*
Y100500D01*
X43000D01*
X75122Y82500D02*
Y81500D01*
X77122D01*
Y82500D01*
X78122D01*
Y84500D01*
X77122D01*
Y85500D01*
X75122D01*
Y84500D01*
X74122D01*
Y82500D01*
X75122D01*
X62000Y77500D02*
Y76500D01*
X64000D01*
Y77500D01*
X65000D01*
Y79500D01*
X64000D01*
Y80500D01*
X62000D01*
Y79500D01*
X61000D01*
Y77500D01*
X62000D01*
X58500Y76500D02*
Y75500D01*
X60500D01*
Y76500D01*
X61500D01*
Y78500D01*
X60500D01*
Y79500D01*
X58500D01*
Y78500D01*
X57500D01*
Y76500D01*
X58500D01*
X58902Y72901D02*
Y71902D01*
X60901D01*
Y72901D01*
X61901D01*
Y74901D01*
X60901D01*
Y75902D01*
X58902D01*
Y74901D01*
X57902D01*
Y72901D01*
X58902D01*
X40500Y60500D02*
Y59500D01*
X42500D01*
Y60500D01*
X43500D01*
Y62500D01*
X42500D01*
Y63500D01*
X40500D01*
Y62500D01*
X39500D01*
Y60500D01*
X40500D01*
X64500Y76000D02*
Y75000D01*
X66500D01*
Y76000D01*
X67500D01*
Y78000D01*
X66500D01*
Y79000D01*
X64500D01*
Y78000D01*
X63500D01*
Y76000D01*
X64500D01*
X40000Y72000D02*
Y71000D01*
X42000D01*
Y72000D01*
X43000D01*
Y74000D01*
X42000D01*
Y75000D01*
X40000D01*
Y74000D01*
X39000D01*
Y72000D01*
X40000D01*
X100000Y47000D02*
X101000D01*
X102000Y48000D01*
X103000Y47000D01*
X104000D01*
Y48000D01*
X103000Y49000D01*
X104000Y50000D01*
Y51000D01*
X103000D01*
X102000Y50000D01*
X101000Y51000D01*
X100000D01*
Y50000D01*
X101000Y49000D01*
X100000Y48000D01*
Y47000D01*
X89000Y34000D02*
X90000D01*
X91000Y35000D01*
X92000Y34000D01*
X93000D01*
Y35000D01*
X92000Y36000D01*
X93000Y37000D01*
Y38000D01*
X92000D01*
X91000Y37000D01*
X90000Y38000D01*
X89000D01*
Y37000D01*
X90000Y36000D01*
X89000Y35000D01*
Y34000D01*
Y36500D02*
X90000D01*
X91000Y37500D01*
X92000Y36500D01*
X93000D01*
Y37500D01*
X92000Y38500D01*
X93000Y39500D01*
Y40500D01*
X92000D01*
X91000Y39500D01*
X90000Y40500D01*
X89000D01*
Y39500D01*
X90000Y38500D01*
X89000Y37500D01*
Y36500D01*
X74000Y88000D02*
Y87000D01*
X76000D01*
Y88000D01*
X77000D01*
Y90000D01*
X76000D01*
Y91000D01*
X74000D01*
Y90000D01*
X73000D01*
Y88000D01*
X74000D01*
X59500Y128000D02*
Y127000D01*
X61500D01*
Y128000D01*
X62500D01*
Y130000D01*
X61500D01*
Y131000D01*
X59500D01*
Y130000D01*
X58500D01*
Y128000D01*
X59500D01*
X33500Y59000D02*
X34500Y60000D01*
X35500D01*
X34500Y61000D01*
X35500Y62000D01*
X34500D01*
X33500Y63000D01*
X32500Y62000D01*
X31500D01*
X32500Y61000D01*
X31500Y60000D01*
X32500D01*
X33500Y59000D01*
X38144Y89644D02*
Y88644D01*
X40144D01*
Y89644D01*
X41144D01*
Y91644D01*
X40144D01*
Y92644D01*
X38144D01*
Y91644D01*
X37144D01*
Y89644D01*
X38144D01*
X8500Y76500D02*
X9500D01*
X10500Y77500D01*
X11500Y76500D01*
X12500D01*
Y77500D01*
X11500Y78500D01*
X12500Y79500D01*
Y80500D01*
X11500D01*
X10500Y79500D01*
X9500Y80500D01*
X8500D01*
Y79500D01*
X9500Y78500D01*
X8500Y77500D01*
Y76500D01*
X3500Y82500D02*
X4500D01*
X5500Y83500D01*
X6500Y82500D01*
X7500D01*
Y83500D01*
X6500Y84500D01*
X7500Y85500D01*
Y86500D01*
X6500D01*
X5500Y85500D01*
X4500Y86500D01*
X3500D01*
Y85500D01*
X4500Y84500D01*
X3500Y83500D01*
Y82500D01*
X47421Y50521D02*
Y49521D01*
X49421D01*
Y50521D01*
X50421D01*
Y52521D01*
X49421D01*
Y53521D01*
X47421D01*
Y52521D01*
X46421D01*
Y50521D01*
X47421D01*
X56500Y61500D02*
Y60500D01*
X58500D01*
Y61500D01*
X59500D01*
Y63500D01*
X58500D01*
Y64500D01*
X56500D01*
Y63500D01*
X55500D01*
Y61500D01*
X56500D01*
X80500Y62000D02*
Y61000D01*
X82500D01*
Y62000D01*
X83500D01*
Y64000D01*
X82500D01*
Y65000D01*
X80500D01*
Y64000D01*
X79500D01*
Y62000D01*
X80500D01*
X79000Y70000D02*
Y69000D01*
X81000D01*
Y70000D01*
X82000D01*
Y72000D01*
X81000D01*
Y73000D01*
X79000D01*
Y72000D01*
X78000D01*
Y70000D01*
X79000D01*
X72500Y62972D02*
Y61972D01*
X74500D01*
Y62972D01*
X75500D01*
Y64973D01*
X74500D01*
Y65973D01*
X72500D01*
Y64973D01*
X71500D01*
Y62972D01*
X72500D01*
X64000Y58000D02*
Y57000D01*
X66000D01*
Y58000D01*
X67000D01*
Y60000D01*
X66000D01*
Y61000D01*
X64000D01*
Y60000D01*
X63000D01*
Y58000D01*
X64000D01*
X74500Y65500D02*
Y64500D01*
X76500D01*
Y65500D01*
X77500D01*
Y67500D01*
X76500D01*
Y68500D01*
X74500D01*
Y67500D01*
X73500D01*
Y65500D01*
X74500D01*
X76344Y56500D02*
Y55500D01*
X78344D01*
Y56500D01*
X79344D01*
Y58500D01*
X78344D01*
Y59500D01*
X76344D01*
Y58500D01*
X75344D01*
Y56500D01*
X76344D01*
X59000Y52500D02*
Y56500D01*
X63000D01*
Y52500D01*
X59000D01*
X26500Y72500D02*
Y71500D01*
X28500D01*
Y72500D01*
X29500D01*
Y74500D01*
X28500D01*
Y75500D01*
X26500D01*
Y74500D01*
X25500D01*
Y72500D01*
X26500D01*
X29000Y37500D02*
X30000D01*
X31000Y38500D01*
X32000Y37500D01*
X33000D01*
Y38500D01*
X32000Y39500D01*
X33000Y40500D01*
Y41500D01*
X32000D01*
X31000Y40500D01*
X30000Y41500D01*
X29000D01*
Y40500D01*
X30000Y39500D01*
X29000Y38500D01*
Y37500D01*
X8500Y105000D02*
X10500Y107000D01*
X12500Y105000D01*
X10500Y103000D01*
X8500Y105000D01*
Y114000D02*
X10500Y116000D01*
X12500Y114000D01*
X10500Y112000D01*
X8500Y114000D01*
Y122500D02*
X10500Y124500D01*
X12500Y122500D01*
X10500Y120500D01*
X8500Y122500D01*
Y131000D02*
X10500Y133000D01*
X12500Y131000D01*
X10500Y129000D01*
X8500Y131000D01*
X21500Y89000D02*
Y88000D01*
X23500D01*
Y89000D01*
X24500D01*
Y91000D01*
X23500D01*
Y92000D01*
X21500D01*
Y91000D01*
X20500D01*
Y89000D01*
X21500D01*
X11500Y94000D02*
Y93000D01*
X13500D01*
Y94000D01*
X14500D01*
Y96000D01*
X13500D01*
Y97000D01*
X11500D01*
Y96000D01*
X10500D01*
Y94000D01*
X11500D01*
X22500Y84000D02*
Y83000D01*
X24500D01*
Y84000D01*
X25500D01*
Y86000D01*
X24500D01*
Y87000D01*
X22500D01*
Y86000D01*
X21500D01*
Y84000D01*
X22500D01*
X24000Y91000D02*
X25000D01*
X26000Y92000D01*
X27000Y91000D01*
X28000D01*
Y92000D01*
X27000Y93000D01*
X28000Y94000D01*
Y95000D01*
X27000D01*
X26000Y94000D01*
X25000Y95000D01*
X24000D01*
Y94000D01*
X25000Y93000D01*
X24000Y92000D01*
Y91000D01*
X19500Y78500D02*
X20500D01*
X21500Y79500D01*
X22500Y78500D01*
X23500D01*
Y79500D01*
X22500Y80500D01*
X23500Y81500D01*
Y82500D01*
X22500D01*
X21500Y81500D01*
X20500Y82500D01*
X19500D01*
Y81500D01*
X20500Y80500D01*
X19500Y79500D01*
Y78500D01*
X20000Y75500D02*
X21000D01*
X22000Y76500D01*
X23000Y75500D01*
X24000D01*
Y76500D01*
X23000Y77500D01*
X24000Y78500D01*
Y79500D01*
X23000D01*
X22000Y78500D01*
X21000Y79500D01*
X20000D01*
Y78500D01*
X21000Y77500D01*
X20000Y76500D01*
Y75500D01*
X24000Y78000D02*
X25000D01*
X26000Y79000D01*
X27000Y78000D01*
X28000D01*
Y79000D01*
X27000Y80000D01*
X28000Y81000D01*
Y82000D01*
X27000D01*
X26000Y81000D01*
X25000Y82000D01*
X24000D01*
Y81000D01*
X25000Y80000D01*
X24000Y79000D01*
Y78000D01*
X21500Y9500D02*
X22500D01*
X23500Y10500D01*
X24500Y9500D01*
X25500D01*
Y10500D01*
X24500Y11500D01*
X25500Y12500D01*
Y13500D01*
X24500D01*
X23500Y12500D01*
X22500Y13500D01*
X21500D01*
Y12500D01*
X22500Y11500D01*
X21500Y10500D01*
Y9500D01*
X32000Y80500D02*
X33000D01*
X34000Y81500D01*
X35000Y80500D01*
X36000D01*
Y81500D01*
X35000Y82500D01*
X36000Y83500D01*
Y84500D01*
X35000D01*
X34000Y83500D01*
X33000Y84500D01*
X32000D01*
Y83500D01*
X33000Y82500D01*
X32000Y81500D01*
Y80500D01*
X49000Y27500D02*
X50000D01*
X51000Y28500D01*
X52000Y27500D01*
X53000D01*
Y28500D01*
X52000Y29500D01*
X53000Y30500D01*
Y31500D01*
X52000D01*
X51000Y30500D01*
X50000Y31500D01*
X49000D01*
Y30500D01*
X50000Y29500D01*
X49000Y28500D01*
Y27500D01*
X17000Y52000D02*
X18000D01*
X19000Y53000D01*
X20000Y52000D01*
X21000D01*
Y53000D01*
X20000Y54000D01*
X21000Y55000D01*
Y56000D01*
X20000D01*
X19000Y55000D01*
X18000Y56000D01*
X17000D01*
Y55000D01*
X18000Y54000D01*
X17000Y53000D01*
Y52000D01*
Y49500D02*
X18000D01*
X19000Y50500D01*
X20000Y49500D01*
X21000D01*
Y50500D01*
X20000Y51500D01*
X21000Y52500D01*
Y53500D01*
X20000D01*
X19000Y52500D01*
X18000Y53500D01*
X17000D01*
Y52500D01*
X18000Y51500D01*
X17000Y50500D01*
Y49500D01*
X25000Y51500D02*
X26000D01*
X27000Y52500D01*
X28000Y51500D01*
X29000D01*
Y52500D01*
X28000Y53500D01*
X29000Y54500D01*
Y55500D01*
X28000D01*
X27000Y54500D01*
X26000Y55500D01*
X25000D01*
Y54500D01*
X26000Y53500D01*
X25000Y52500D01*
Y51500D01*
X36000Y23000D02*
X37000D01*
X38000Y24000D01*
X39000Y23000D01*
X40000D01*
Y24000D01*
X39000Y25000D01*
X40000Y26000D01*
Y27000D01*
X39000D01*
X38000Y26000D01*
X37000Y27000D01*
X36000D01*
Y26000D01*
X37000Y25000D01*
X36000Y24000D01*
Y23000D01*
X90284Y94189D02*
Y98189D01*
X94283D01*
Y94189D01*
X90284D01*
X91084Y94989D02*
Y97389D01*
X93484D01*
Y94989D01*
X91084D01*
X90284Y117811D02*
Y121811D01*
X94283D01*
Y117811D01*
X90284D01*
X91084Y118611D02*
Y121011D01*
X93484D01*
Y118611D01*
X91084D01*
D152*
X30500Y101000D02*
G03*
X30500Y101000I-2000J0D01*
G01*
Y111000D02*
G03*
X30500Y111000I-2000J0D01*
G01*
Y121000D02*
G03*
X30500Y121000I-2000J0D01*
G01*
Y131000D02*
G03*
X30500Y131000I-2000J0D01*
G01*
%TF.MD5,0bb924bf1eced92afa50db12d990c73f*%
M02*
