%TF.GenerationSoftware,Altium Limited,Altium Designer,20.0.13 (296)*%
G04 Layer_Color=16711935*
%FSLAX25Y25*%
%MOIN*%
%TF.FileFunction,Other,Mechanical_5*%
%TF.Part,Single*%
G01*
G75*
G36*
X19116Y89051D02*
X18132D01*
Y90921D01*
X19116D01*
Y89051D01*
D02*
G37*
G36*
X17148D02*
X16163D01*
Y90921D01*
X17148D01*
Y89051D01*
D02*
G37*
G36*
X15179D02*
X14195D01*
Y90921D01*
X15179D01*
Y89051D01*
D02*
G37*
G36*
X13211D02*
X12226D01*
Y90921D01*
X13211D01*
Y89051D01*
D02*
G37*
G36*
X20593Y86492D02*
X18722D01*
Y87476D01*
X20593D01*
Y86492D01*
D02*
G37*
G36*
X12620D02*
X10750D01*
Y87476D01*
X12620D01*
Y86492D01*
D02*
G37*
G36*
X20593Y84524D02*
X18722D01*
Y85508D01*
X20593D01*
Y84524D01*
D02*
G37*
G36*
X12620D02*
X10750D01*
Y85508D01*
X12620D01*
Y84524D01*
D02*
G37*
G36*
X20593Y82555D02*
X18722D01*
Y83539D01*
X20593D01*
Y82555D01*
D02*
G37*
G36*
X12620D02*
X10750D01*
Y83539D01*
X12620D01*
Y82555D01*
D02*
G37*
G36*
X19116Y79110D02*
X18132D01*
Y80980D01*
X19116D01*
Y79110D01*
D02*
G37*
G36*
X17148D02*
X16163D01*
Y80980D01*
X17148D01*
Y79110D01*
D02*
G37*
G36*
X15179D02*
X14195D01*
Y80980D01*
X15179D01*
Y79110D01*
D02*
G37*
G36*
X13211D02*
X12226D01*
Y80980D01*
X13211D01*
Y79110D01*
D02*
G37*
G36*
X23116Y72840D02*
X22132D01*
Y73923D01*
X23116D01*
Y72840D01*
D02*
G37*
G36*
X21148D02*
X20163D01*
Y73923D01*
X21148D01*
Y72840D01*
D02*
G37*
G36*
X19179D02*
X18195D01*
Y73923D01*
X19179D01*
Y72840D01*
D02*
G37*
G36*
X17211D02*
X16226D01*
Y73923D01*
X17211D01*
Y72840D01*
D02*
G37*
G36*
X23608Y70508D02*
X22526D01*
Y71492D01*
X23608D01*
Y70508D01*
D02*
G37*
G36*
X16817D02*
X15734D01*
Y71492D01*
X16817D01*
Y70508D01*
D02*
G37*
G36*
X23608Y68539D02*
X22526D01*
Y69524D01*
X23608D01*
Y68539D01*
D02*
G37*
G36*
X16817D02*
X15734D01*
Y69524D01*
X16817D01*
Y68539D01*
D02*
G37*
G36*
X23116Y66108D02*
X22132D01*
Y67191D01*
X23116D01*
Y66108D01*
D02*
G37*
G36*
X21148D02*
X20163D01*
Y67191D01*
X21148D01*
Y66108D01*
D02*
G37*
G36*
X19179D02*
X18195D01*
Y67191D01*
X19179D01*
Y66108D01*
D02*
G37*
G36*
X17211D02*
X16226D01*
Y67191D01*
X17211D01*
Y66108D01*
D02*
G37*
%TF.MD5,98e2ea6a65e3a06b6dc63d715d3c2ca3*%
M02*
