%TF.GenerationSoftware,Altium Limited,Altium Designer,20.0.13 (296)*%
G04 Layer_Color=128*
%FSLAX25Y25*%
%MOIN*%
%TF.FileFunction,Drillmap*%
%TF.Part,Single*%
G01*
G75*
%TA.AperFunction,NonConductor*%
%ADD64C,0.00500*%
D64*
X26728Y101000D02*
X30272D01*
X28500Y99228D02*
Y102772D01*
X26728Y111000D02*
X30272D01*
X28500Y109228D02*
Y112772D01*
X26728Y121000D02*
X30272D01*
X28500Y119228D02*
Y122772D01*
X26728Y131000D02*
X30272D01*
X28500Y129228D02*
Y132772D01*
X106370Y61347D02*
X110307D01*
X108339Y59378D02*
Y63315D01*
X106370Y29850D02*
X110307D01*
X108339Y27882D02*
Y31819D01*
X14622Y28453D02*
X16590D01*
X15606Y27468D02*
Y29437D01*
X14622Y47547D02*
X16590D01*
X15606Y46563D02*
Y48531D01*
X4386Y23728D02*
X5961D01*
X5173Y22941D02*
Y24516D01*
X4386Y52272D02*
X5961D01*
X5173Y51484D02*
Y53059D01*
X74900Y60000D02*
X76100D01*
X75500Y59400D02*
Y60600D01*
X72400Y58000D02*
X73600D01*
X73000Y57400D02*
Y58600D01*
X76900Y55500D02*
X78100D01*
X77500Y54900D02*
Y56100D01*
X76400Y69000D02*
X77600D01*
X77000Y68400D02*
Y69600D01*
X73900Y65500D02*
X75100D01*
X74500Y64900D02*
Y66100D01*
X71900Y61500D02*
X73100D01*
X72500Y60900D02*
Y62100D01*
X78400Y65500D02*
X79600D01*
X79000Y64900D02*
Y66100D01*
X77400Y89000D02*
X78600D01*
X78000Y88400D02*
Y89600D01*
X74900Y116000D02*
X76100D01*
X75500Y115400D02*
Y116600D01*
X72400Y94500D02*
X73600D01*
X73000Y93900D02*
Y95100D01*
X25400Y89500D02*
X26600D01*
X26000Y88900D02*
Y90100D01*
X25400Y80000D02*
X26600D01*
X26000Y79400D02*
Y80600D01*
X55400Y59500D02*
X56600D01*
X56000Y58900D02*
Y60100D01*
X53900Y62500D02*
X55100D01*
X54500Y61900D02*
Y63100D01*
X11900Y95000D02*
X13100D01*
X12500Y94400D02*
Y95600D01*
X52400Y56500D02*
X53600D01*
X53000Y55900D02*
Y57100D01*
X42900Y86500D02*
X44100D01*
X43500Y85900D02*
Y87100D01*
X44900Y82500D02*
X46100D01*
X45500Y81900D02*
Y83100D01*
X22900Y11500D02*
X24100D01*
X23500Y10900D02*
Y12100D01*
X105400Y48500D02*
X106600D01*
X106000Y47900D02*
Y49100D01*
X97782Y81118D02*
X98982D01*
X98382Y80518D02*
Y81718D01*
X78400Y86000D02*
X79600D01*
X79000Y85400D02*
Y86600D01*
X62400Y109500D02*
X63600D01*
X63000Y108900D02*
Y110100D01*
X84900Y84000D02*
X86100D01*
X85500Y83400D02*
Y84600D01*
X49900Y88000D02*
X51100D01*
X50500Y87400D02*
Y88600D01*
X47400Y93000D02*
X48600D01*
X48000Y92400D02*
Y93600D01*
X33400Y82500D02*
X34600D01*
X34000Y81900D02*
Y83100D01*
X58400Y58500D02*
X59600D01*
X59000Y57900D02*
Y59100D01*
X81400Y76000D02*
X82600D01*
X82000Y75400D02*
Y76600D01*
X67400Y99000D02*
X68600D01*
X68000Y98400D02*
Y99600D01*
X62400Y118500D02*
X63600D01*
X63000Y117900D02*
Y119100D01*
X47300Y96400D02*
X48500D01*
X47900Y95800D02*
Y97000D01*
X18900Y69500D02*
X20100D01*
X19500Y68900D02*
Y70100D01*
X50400Y94500D02*
X51600D01*
X51000Y93900D02*
Y95100D01*
X6400Y94000D02*
X7600D01*
X7000Y93400D02*
Y94600D01*
X32900Y68000D02*
X34100D01*
X33500Y67400D02*
Y68600D01*
X69400Y105500D02*
X70600D01*
X70000Y104900D02*
Y106100D01*
X70400Y100000D02*
X71600D01*
X71000Y99400D02*
Y100600D01*
X88400Y102000D02*
X89600D01*
X89000Y101400D02*
Y102600D01*
X63900Y72500D02*
X65100D01*
X64500Y71900D02*
Y73100D01*
X67900Y77000D02*
X69100D01*
X68500Y76400D02*
Y77600D01*
X9900Y78500D02*
X11100D01*
X10500Y77900D02*
Y79100D01*
X20900Y80500D02*
X22100D01*
X21500Y79900D02*
Y81100D01*
X50400Y29500D02*
X51600D01*
X51000Y28900D02*
Y30100D01*
X18400Y54000D02*
X19600D01*
X19000Y53400D02*
Y54600D01*
X18400Y51500D02*
X19600D01*
X19000Y50900D02*
Y52100D01*
X21400Y77500D02*
X22600D01*
X22000Y76900D02*
Y78100D01*
X41900Y70500D02*
X43100D01*
X42500Y69900D02*
Y71100D01*
X40900Y73500D02*
X42100D01*
X41500Y72900D02*
Y74100D01*
X70400Y47000D02*
X71600D01*
X71000Y46400D02*
Y47600D01*
X70400Y45000D02*
X71600D01*
X71000Y44400D02*
Y45600D01*
X94900Y35500D02*
X96100D01*
X95500Y34900D02*
Y36100D01*
X94900Y38000D02*
X96100D01*
X95500Y37400D02*
Y38600D01*
X30900Y39000D02*
X32100D01*
X31500Y38400D02*
Y39600D01*
X26400Y53500D02*
X27600D01*
X27000Y52900D02*
Y54100D01*
X37400Y25000D02*
X38600D01*
X38000Y24400D02*
Y25600D01*
X88937Y96189D02*
X95630D01*
X92283Y92843D02*
Y99535D01*
X88937Y119811D02*
X95630D01*
X92283Y116465D02*
Y123158D01*
X47900Y51600D02*
X49100D01*
X48500Y51000D02*
Y52200D01*
X4900Y84500D02*
X6100D01*
X5500Y83900D02*
Y85100D01*
%TF.MD5,c02610b6e96f3559445677a63b806d49*%
M02*
