%TF.GenerationSoftware,Altium Limited,Altium Designer,20.0.13 (296)*%
G04 Layer_Color=255*
%FSLAX25Y25*%
%MOIN*%
%TF.FileFunction,Pads,Bot*%
%TF.Part,Single*%
G01*
G75*
%TA.AperFunction,SMDPad,CuDef*%
%ADD10R,0.03150X0.02756*%
%ADD14R,0.02756X0.03150*%
%ADD23R,0.03740X0.03543*%
%ADD24R,0.03740X0.03543*%
%TA.AperFunction,ComponentPad*%
%ADD36R,0.05906X0.05906*%
%ADD37C,0.05906*%
%ADD38C,0.03937*%
%ADD39R,0.05906X0.03150*%
%ADD40O,0.07874X0.04724*%
%TA.AperFunction,SMDPad,CuDef*%
%ADD43C,0.07874*%
%TA.AperFunction,ConnectorPad*%
%ADD44R,0.05118X0.04724*%
%ADD45R,0.04724X0.05118*%
G04:AMPARAMS|DCode=46|XSize=33.47mil|YSize=47.24mil|CornerRadius=0mil|HoleSize=0mil|Usage=FLASHONLY|Rotation=45.000|XOffset=0mil|YOffset=0mil|HoleType=Round|Shape=Rectangle|*
%AMROTATEDRECTD46*
4,1,4,0.00487,-0.02854,-0.02854,0.00487,-0.00487,0.02854,0.02854,-0.00487,0.00487,-0.02854,0.0*
%
%ADD46ROTATEDRECTD46*%

G04:AMPARAMS|DCode=47|XSize=33.47mil|YSize=47.24mil|CornerRadius=0mil|HoleSize=0mil|Usage=FLASHONLY|Rotation=315.000|XOffset=0mil|YOffset=0mil|HoleType=Round|Shape=Rectangle|*
%AMROTATEDRECTD47*
4,1,4,-0.02854,-0.00487,0.00487,0.02854,0.02854,0.00487,-0.00487,-0.02854,-0.02854,-0.00487,0.0*
%
%ADD47ROTATEDRECTD47*%

%TA.AperFunction,SMDPad,CuDef*%
%ADD48R,0.03937X0.02362*%
%ADD49R,0.05906X0.03150*%
%ADD50R,0.05906X0.05906*%
%ADD51R,0.07087X0.02756*%
%ADD52R,0.05512X0.04724*%
%ADD53R,0.08661X0.08000*%
%ADD54R,0.05512X0.06299*%
%TA.AperFunction,ConnectorPad*%
%ADD55R,0.05906X0.01575*%
%TA.AperFunction,SMDPad,CuDef*%
%ADD56R,0.01260X0.03937*%
D10*
X53500Y129547D02*
D03*
Y135453D02*
D03*
X47500D02*
D03*
Y129547D02*
D03*
X58500Y94547D02*
D03*
Y100453D02*
D03*
X57000Y40047D02*
D03*
Y45953D02*
D03*
X34000Y20953D02*
D03*
Y15047D02*
D03*
X28500Y20953D02*
D03*
Y15047D02*
D03*
X23000D02*
D03*
Y20953D02*
D03*
X16000Y84453D02*
D03*
Y78547D02*
D03*
D14*
X68047Y123500D02*
D03*
X73953D02*
D03*
X68047Y118000D02*
D03*
X73953D02*
D03*
X68047Y106000D02*
D03*
X73953D02*
D03*
X68047Y112000D02*
D03*
X73953D02*
D03*
D23*
X52126Y100740D02*
D03*
X42874Y97000D02*
D03*
D24*
X52126Y93260D02*
D03*
D36*
X28500Y101000D02*
D03*
D37*
Y111000D02*
D03*
Y121000D02*
D03*
Y131000D02*
D03*
D38*
X108339Y61347D02*
D03*
Y29850D02*
D03*
D39*
X15606Y28453D02*
D03*
Y47547D02*
D03*
D40*
X5173Y23728D02*
D03*
Y52272D02*
D03*
D43*
X23000Y61000D02*
D03*
X33500D02*
D03*
D44*
X104882Y86740D02*
D03*
X88740D02*
D03*
Y129260D02*
D03*
X104882D02*
D03*
D45*
X79685Y92252D02*
D03*
Y102193D02*
D03*
Y113807D02*
D03*
Y123748D02*
D03*
D46*
X121135Y96865D02*
D03*
D47*
Y119135D02*
D03*
D48*
X75768Y129169D02*
D03*
Y137831D02*
D03*
X59232Y129169D02*
D03*
Y137831D02*
D03*
D49*
X59374Y108610D02*
D03*
X43200Y108600D02*
D03*
X59374Y122390D02*
D03*
D50*
X7071Y62472D02*
D03*
Y70346D02*
D03*
Y78220D02*
D03*
Y86094D02*
D03*
D51*
X66500Y54654D02*
D03*
Y67646D02*
D03*
Y63315D02*
D03*
Y58984D02*
D03*
Y50323D02*
D03*
Y45992D02*
D03*
Y41661D02*
D03*
Y37331D02*
D03*
Y33000D02*
D03*
D52*
X68968Y72764D02*
D03*
D53*
X106764Y72764D02*
D03*
Y11740D02*
D03*
D54*
X68968Y14890D02*
D03*
D55*
X16590Y43118D02*
D03*
X16591Y40559D02*
D03*
Y38000D02*
D03*
Y35441D02*
D03*
Y32882D02*
D03*
D56*
X26500Y46000D02*
D03*
X28468D02*
D03*
X30437D02*
D03*
X32405D02*
D03*
X34374D02*
D03*
Y27102D02*
D03*
X32405D02*
D03*
X30437D02*
D03*
X28468D02*
D03*
X26500D02*
D03*
%TF.MD5,4c4a209673bf549158d89b5572ee0f2d*%
M02*
