%TF.GenerationSoftware,Altium Limited,Altium Designer,20.0.13 (296)*%
G04 Layer_Color=16711935*
%FSLAX25Y25*%
%MOIN*%
%TF.FileFunction,Soldermask,Bot*%
%TF.Part,Single*%
G01*
G75*
%TA.AperFunction,SMDPad,CuDef*%
%ADD65C,0.08674*%
%TA.AperFunction,ConnectorPad*%
%ADD66R,0.05918X0.05524*%
%ADD67R,0.05524X0.05918*%
G04:AMPARAMS|DCode=68|XSize=41.47mil|YSize=55.24mil|CornerRadius=0mil|HoleSize=0mil|Usage=FLASHONLY|Rotation=45.000|XOffset=0mil|YOffset=0mil|HoleType=Round|Shape=Rectangle|*
%AMROTATEDRECTD68*
4,1,4,0.00487,-0.03419,-0.03419,0.00487,-0.00487,0.03419,0.03419,-0.00487,0.00487,-0.03419,0.0*
%
%ADD68ROTATEDRECTD68*%

G04:AMPARAMS|DCode=69|XSize=41.47mil|YSize=55.24mil|CornerRadius=0mil|HoleSize=0mil|Usage=FLASHONLY|Rotation=315.000|XOffset=0mil|YOffset=0mil|HoleType=Round|Shape=Rectangle|*
%AMROTATEDRECTD69*
4,1,4,-0.03419,-0.00487,0.00487,0.03419,0.03419,0.00487,-0.00487,-0.03419,-0.03419,-0.00487,0.0*
%
%ADD69ROTATEDRECTD69*%

%TA.AperFunction,SMDPad,CuDef*%
%ADD70R,0.04737X0.03162*%
%ADD71R,0.03950X0.03556*%
%ADD72R,0.06706X0.03950*%
%ADD73R,0.03556X0.03950*%
%ADD74R,0.06706X0.06706*%
%ADD75R,0.04540X0.04343*%
%ADD76R,0.04540X0.04343*%
%ADD77R,0.07887X0.03556*%
%ADD78R,0.06312X0.05524*%
%ADD79R,0.09461X0.08800*%
%ADD80R,0.06312X0.07099*%
%TA.AperFunction,ConnectorPad*%
%ADD81R,0.06706X0.02375*%
%TA.AperFunction,SMDPad,CuDef*%
%ADD82R,0.02060X0.04737*%
%TA.AperFunction,ComponentPad*%
%ADD83R,0.06706X0.06706*%
%ADD84C,0.06706*%
%ADD85C,0.04737*%
%ADD86R,0.06706X0.03950*%
%ADD87O,0.08674X0.05524*%
%TA.AperFunction,ViaPad*%
%ADD88C,0.07493*%
D65*
X23000Y61000D02*
D03*
X33500D02*
D03*
D66*
X104882Y86740D02*
D03*
X88740D02*
D03*
Y129260D02*
D03*
X104882D02*
D03*
D67*
X79685Y92252D02*
D03*
Y102193D02*
D03*
Y113807D02*
D03*
Y123748D02*
D03*
D68*
X121135Y96865D02*
D03*
D69*
Y119135D02*
D03*
D70*
X75768Y129169D02*
D03*
Y137831D02*
D03*
X59232Y129169D02*
D03*
Y137831D02*
D03*
D71*
X53500Y129547D02*
D03*
Y135453D02*
D03*
X47500D02*
D03*
Y129547D02*
D03*
X58500Y94547D02*
D03*
Y100453D02*
D03*
X57000Y40047D02*
D03*
Y45953D02*
D03*
X34000Y20953D02*
D03*
Y15047D02*
D03*
X28500Y20953D02*
D03*
Y15047D02*
D03*
X23000D02*
D03*
Y20953D02*
D03*
X16000Y84453D02*
D03*
Y78547D02*
D03*
D72*
X59374Y108610D02*
D03*
X43200Y108600D02*
D03*
X59374Y122390D02*
D03*
D73*
X68047Y123500D02*
D03*
X73953D02*
D03*
X68047Y118000D02*
D03*
X73953D02*
D03*
X68047Y106000D02*
D03*
X73953D02*
D03*
X68047Y112000D02*
D03*
X73953D02*
D03*
D74*
X7071Y62472D02*
D03*
Y70346D02*
D03*
Y78220D02*
D03*
Y86094D02*
D03*
D75*
X52126Y100740D02*
D03*
X42874Y97000D02*
D03*
D76*
X52126Y93260D02*
D03*
D77*
X66500Y54654D02*
D03*
Y67646D02*
D03*
Y63315D02*
D03*
Y58984D02*
D03*
Y50323D02*
D03*
Y45992D02*
D03*
Y41661D02*
D03*
Y37331D02*
D03*
Y33000D02*
D03*
D78*
X68968Y72764D02*
D03*
D79*
X106764Y72764D02*
D03*
Y11740D02*
D03*
D80*
X68968Y14890D02*
D03*
D81*
X16590Y43118D02*
D03*
X16591Y40559D02*
D03*
Y38000D02*
D03*
Y35441D02*
D03*
Y32882D02*
D03*
D82*
X26500Y46000D02*
D03*
X28468D02*
D03*
X30437D02*
D03*
X32405D02*
D03*
X34374D02*
D03*
Y27102D02*
D03*
X32405D02*
D03*
X30437D02*
D03*
X28468D02*
D03*
X26500D02*
D03*
D83*
X28500Y101000D02*
D03*
D84*
Y111000D02*
D03*
Y121000D02*
D03*
Y131000D02*
D03*
D85*
X108339Y61347D02*
D03*
Y29850D02*
D03*
D86*
X15606Y28453D02*
D03*
Y47547D02*
D03*
D87*
X5173Y23728D02*
D03*
Y52272D02*
D03*
D88*
X92283Y96189D02*
D03*
Y119811D02*
D03*
%TF.MD5,b63bdc750393205c23a9e1ab84507c61*%
M02*
