%TF.GenerationSoftware,Altium Limited,Altium Designer,20.0.13 (296)*%
G04 Layer_Color=32896*
%FSLAX25Y25*%
%MOIN*%
%TF.FileFunction,Legend,Bot*%
%TF.Part,Single*%
G01*
G75*
%TA.AperFunction,NonConductor*%
%ADD60C,0.01000*%
%ADD61C,0.00600*%
%ADD62C,0.01575*%
%ADD63C,0.00787*%
%ADD64C,0.00500*%
D60*
X138543Y108000D02*
G03*
X138543Y108000I-28543J0D01*
G01*
X110000Y91465D02*
G03*
X125197Y101483I0J16535D01*
G01*
Y114517D02*
G03*
X110000Y124535I-15197J-6517D01*
G01*
X65531Y137437D02*
G03*
X65531Y129563I0J-3937D01*
G01*
X69468D02*
G03*
X69468Y137437I0J3937D01*
G01*
X53736Y115500D02*
G03*
X53736Y115500I-2236J0D01*
G01*
X44472Y56567D02*
G03*
X44472Y56567I-5906J0D01*
G01*
X23843Y32000D02*
G03*
X23843Y32000I-9843J0D01*
G01*
X81457Y87724D02*
Y128276D01*
X110000Y87724D02*
Y128276D01*
X81457Y87724D02*
X110000D01*
X81457Y128276D02*
X110000D01*
X125157Y101483D02*
Y114517D01*
X65531Y137437D02*
X69468D01*
X65531Y129563D02*
X69468D01*
X59626Y139406D02*
X75374D01*
X59626Y127594D02*
Y139406D01*
Y127594D02*
X75374D01*
Y139406D01*
X61500Y105500D02*
Y125972D01*
X41028Y105500D02*
X61500D01*
X46539Y125972D02*
X61500D01*
X41028Y105500D02*
Y120461D01*
X46539Y125972D01*
X3134Y21134D02*
X74000D01*
X3134D02*
Y92000D01*
X74000D01*
Y21134D02*
Y92000D01*
X16520Y46724D02*
Y92000D01*
X24787Y21134D02*
Y46724D01*
X16520D02*
Y47000D01*
Y46724D02*
Y47000D01*
Y46724D02*
X24787D01*
X-3685Y52272D02*
X16000D01*
Y23728D02*
Y52272D01*
X-3685Y23728D02*
X16000D01*
X-3685D02*
Y52272D01*
X24532Y43559D02*
X36342D01*
Y29646D02*
Y43559D01*
X24532Y29646D02*
X36342D01*
X24532D02*
Y43559D01*
X71500Y89498D02*
X67501Y83500D01*
Y89498D02*
X71500Y83500D01*
X65502Y86499D02*
X61503D01*
X59504Y89498D02*
X55505D01*
X57504D01*
Y83500D01*
X53506D02*
Y89498D01*
X50507D01*
X49507Y88498D01*
Y86499D01*
X50507Y85499D01*
X53506D01*
X51507D02*
X49507Y83500D01*
X47508D02*
Y87499D01*
X45508Y89498D01*
X43509Y87499D01*
Y83500D01*
Y86499D01*
X47508D01*
X37511Y88498D02*
X38511Y89498D01*
X40510D01*
X41510Y88498D01*
Y84500D01*
X40510Y83500D01*
X38511D01*
X37511Y84500D01*
X35512Y89498D02*
Y83500D01*
Y85499D01*
X31513Y89498D01*
X34512Y86499D01*
X31513Y83500D01*
D61*
X51925Y137618D02*
G03*
X51138Y136831I0J-787D01*
G01*
X55862Y136831D02*
G03*
X55075Y137618I-787J-0D01*
G01*
X55075Y127382D02*
G03*
X55862Y128169I-0J787D01*
G01*
X51138Y128169D02*
G03*
X51925Y127382I787J0D01*
G01*
X76118Y125075D02*
G03*
X75331Y125862I-787J-0D01*
G01*
X75331Y121138D02*
G03*
X76118Y121925I-0J787D01*
G01*
X65882Y121925D02*
G03*
X66669Y121138I787J0D01*
G01*
X66669Y125862D02*
G03*
X65882Y125075I0J-787D01*
G01*
X76118Y107575D02*
G03*
X75331Y108362I-787J-0D01*
G01*
X75331Y103638D02*
G03*
X76118Y104425I-0J787D01*
G01*
X65882Y104425D02*
G03*
X66669Y103638I787J0D01*
G01*
X66669Y108362D02*
G03*
X65882Y107575I0J-787D01*
G01*
X55425Y48118D02*
G03*
X54638Y47331I0J-787D01*
G01*
X59362Y47331D02*
G03*
X58575Y48118I-787J-0D01*
G01*
X58575Y37882D02*
G03*
X59362Y38669I-0J787D01*
G01*
X54638Y38669D02*
G03*
X55425Y37882I787J0D01*
G01*
X21425Y23118D02*
G03*
X20638Y22331I0J-787D01*
G01*
X25362Y22331D02*
G03*
X24575Y23118I-787J-0D01*
G01*
X24575Y12882D02*
G03*
X25362Y13669I-0J787D01*
G01*
X20638Y13669D02*
G03*
X21425Y12882I787J0D01*
G01*
X17575Y76382D02*
G03*
X18362Y77169I-0J787D01*
G01*
X13638Y77169D02*
G03*
X14425Y76382I787J0D01*
G01*
X14425Y86618D02*
G03*
X13638Y85831I0J-787D01*
G01*
X18362Y85831D02*
G03*
X17575Y86618I-787J-0D01*
G01*
X51138Y128169D02*
Y136831D01*
X55862Y128169D02*
Y136831D01*
X51925Y137618D02*
X55075D01*
X51925Y127382D02*
X55075D01*
X45138Y137618D02*
X49862D01*
X45138Y127382D02*
X49862D01*
Y137618D01*
X45138Y127382D02*
Y137618D01*
X66669Y125862D02*
X75331D01*
X66669Y121138D02*
X75331D01*
X76118Y121925D02*
Y125075D01*
X65882Y121925D02*
Y125075D01*
Y115638D02*
Y120362D01*
X76118Y115638D02*
Y120362D01*
X65882D02*
X76118D01*
X65882Y115638D02*
X76118D01*
X66669Y108362D02*
X75331D01*
X66669Y103638D02*
X75331D01*
X76118Y104425D02*
Y107575D01*
X65882Y104425D02*
Y107575D01*
Y109638D02*
Y114362D01*
X76118Y109638D02*
Y114362D01*
X65882D02*
X76118D01*
X65882Y109638D02*
X76118D01*
X56138Y92382D02*
Y102618D01*
X60862Y92382D02*
Y102618D01*
X56138Y92382D02*
X60862D01*
X56138Y102618D02*
X60862D01*
X54638Y38669D02*
Y47331D01*
X59362Y38669D02*
Y47331D01*
X55425Y48118D02*
X58575D01*
X55425Y37882D02*
X58575D01*
X31638Y23118D02*
X36362D01*
X31638Y12882D02*
X36362D01*
Y23118D01*
X31638Y12882D02*
Y23118D01*
X26138D02*
X30862D01*
X26138Y12882D02*
X30862D01*
Y23118D01*
X26138Y12882D02*
Y23118D01*
X20638Y13669D02*
Y22331D01*
X25362Y13669D02*
Y22331D01*
X21425Y23118D02*
X24575D01*
X21425Y12882D02*
X24575D01*
X18362Y77169D02*
Y85831D01*
X13638Y77169D02*
Y85831D01*
X14425Y76382D02*
X17575D01*
X14425Y86618D02*
X17575D01*
X11501Y85001D02*
X11001Y85501D01*
Y86500D01*
X11501Y87000D01*
X13500D01*
X14000Y86500D01*
Y85501D01*
X13500Y85001D01*
X12501D01*
Y86000D01*
X11001Y79000D02*
X13000D01*
X14000Y78000D01*
X13000Y77001D01*
X11001D01*
Y71000D02*
Y69001D01*
Y70000D01*
X14000D01*
Y63500D02*
X11001D01*
Y62001D01*
X11501Y61501D01*
X12501D01*
X13000Y62001D01*
Y63500D01*
Y62500D02*
X14000Y61501D01*
X74100Y33400D02*
Y32400D01*
Y32900D01*
X71101D01*
X71601Y33400D01*
X74000Y35701D02*
Y37700D01*
X72001Y35701D01*
X71501D01*
X71001Y36200D01*
Y37200D01*
X71501Y37700D01*
Y41900D02*
X71001Y41400D01*
Y40400D01*
X71501Y39901D01*
X72001D01*
X72500Y40400D01*
Y40900D01*
Y40400D01*
X73000Y39901D01*
X73500D01*
X74000Y40400D01*
Y41400D01*
X73500Y41900D01*
X74000Y45101D02*
X71001D01*
X72500Y46600D01*
Y44601D01*
X70901Y48801D02*
Y50800D01*
X72400D01*
X71901Y49800D01*
Y49301D01*
X72400Y48801D01*
X73400D01*
X73900Y49301D01*
Y50300D01*
X73400Y50800D01*
X70901Y53001D02*
X71401Y54000D01*
X72400Y55000D01*
X73400D01*
X73900Y54500D01*
Y53500D01*
X73400Y53001D01*
X72900D01*
X72400Y53500D01*
Y55000D01*
X70901Y59200D02*
Y57201D01*
X71401D01*
X73400Y59200D01*
X73900D01*
X71301Y63600D02*
X70801Y63100D01*
Y62100D01*
X71301Y61601D01*
X71801D01*
X72300Y62100D01*
X72800Y61601D01*
X73300D01*
X73800Y62100D01*
Y63100D01*
X73300Y63600D01*
X72800D01*
X72300Y63100D01*
X71801Y63600D01*
X71301D01*
X72300Y63100D02*
Y62100D01*
X73599Y66401D02*
X73099Y65901D01*
X72100D01*
X71600Y66401D01*
Y68400D01*
X72100Y68900D01*
X73099D01*
X73599Y68400D01*
X76598Y65901D02*
Y68900D01*
X75099D01*
X74599Y68400D01*
Y67400D01*
X75099Y66901D01*
X76598D01*
X71500Y78500D02*
X69501D01*
X68501Y81999D02*
Y80000D01*
X67501Y79000D01*
X66502Y80000D01*
Y81999D01*
X65502D02*
X64502D01*
X65002D01*
Y79000D01*
X65502D01*
X64502D01*
X61003Y81999D02*
X63003D01*
Y80500D01*
X62003D01*
X63003D01*
Y79000D01*
X58004Y81999D02*
X60004D01*
Y79000D01*
X58004D01*
X60004Y80500D02*
X59004D01*
X57005Y81999D02*
X55005Y79000D01*
Y81999D02*
X57005Y79000D01*
X54006Y81999D02*
X52006D01*
X53006D01*
Y79000D01*
X49507D02*
X50507D01*
X51007Y79500D01*
Y80500D01*
X50507Y80999D01*
X49507D01*
X49007Y80500D01*
Y80000D01*
X51007D01*
X46008Y80999D02*
X47508D01*
X48008Y80500D01*
Y79500D01*
X47508Y79000D01*
X46008D01*
X45009Y81999D02*
Y79000D01*
Y80500D01*
X44509Y80999D01*
X43509D01*
X43009Y80500D01*
Y79000D01*
X65000Y100500D02*
X62001D01*
Y99001D01*
X62501Y98501D01*
X63500D01*
X64000Y99001D01*
Y100500D01*
Y99500D02*
X65000Y98501D01*
Y97501D02*
Y96501D01*
Y97001D01*
X62001D01*
X62501Y97501D01*
X62001Y93002D02*
X62501Y94002D01*
X63500Y95002D01*
X64500D01*
X65000Y94502D01*
Y93502D01*
X64500Y93002D01*
X64000D01*
X63500Y93502D01*
Y95002D01*
X39000Y98501D02*
X37001D01*
X36501Y99001D01*
Y100000D01*
X37001Y100500D01*
X39000D01*
X39500Y100000D01*
Y99001D01*
X38500Y99500D02*
X39500Y98501D01*
Y99001D02*
X39000Y98501D01*
X39500Y96001D02*
X36501D01*
X38001Y97501D01*
Y95502D01*
X55500Y123999D02*
Y121000D01*
X54001D01*
X53501Y121500D01*
Y122000D01*
X54001Y122500D01*
X55500D01*
X54001D01*
X53501Y122999D01*
Y123499D01*
X54001Y123999D01*
X55500D01*
X52501D02*
X50502D01*
Y123499D01*
X52501Y121500D01*
Y121000D01*
X50502D01*
X49502D02*
X48502D01*
X49002D01*
Y123999D01*
X49502Y123499D01*
X41501Y134001D02*
X41001Y134501D01*
Y135500D01*
X41501Y136000D01*
X43500D01*
X44000Y135500D01*
Y134501D01*
X43500Y134001D01*
X44000Y133001D02*
Y132001D01*
Y132501D01*
X41001D01*
X41501Y133001D01*
Y130502D02*
X41001Y130002D01*
Y129002D01*
X41501Y128502D01*
X42001D01*
X42500Y129002D01*
Y129502D01*
Y129002D01*
X43000Y128502D01*
X43500D01*
X44000Y129002D01*
Y130002D01*
X43500Y130502D01*
X20501Y83501D02*
X20001Y84000D01*
Y85000D01*
X20501Y85500D01*
X22500D01*
X23000Y85000D01*
Y84000D01*
X22500Y83501D01*
X23000Y82501D02*
Y81501D01*
Y82001D01*
X20001D01*
X20501Y82501D01*
X20001Y78002D02*
X20501Y79002D01*
X21500Y80002D01*
X22500D01*
X23000Y79502D01*
Y78502D01*
X22500Y78002D01*
X22000D01*
X21500Y78502D01*
Y80002D01*
X22001Y11499D02*
X22501Y11999D01*
X23500D01*
X24000Y11499D01*
Y9500D01*
X23500Y9000D01*
X22501D01*
X22001Y9500D01*
X21001Y9000D02*
X20001D01*
X20501D01*
Y11999D01*
X21001Y11499D01*
X18502Y11999D02*
X16502D01*
Y11499D01*
X18502Y9500D01*
Y9000D01*
X56001Y55001D02*
X55501Y55501D01*
Y56500D01*
X56001Y57000D01*
X58000D01*
X58500Y56500D01*
Y55501D01*
X58000Y55001D01*
X58500Y54001D02*
Y53001D01*
Y53501D01*
X55501D01*
X56001Y54001D01*
Y51502D02*
X55501Y51002D01*
Y50002D01*
X56001Y49502D01*
X56501D01*
X57000Y50002D01*
X57500Y49502D01*
X58000D01*
X58500Y50002D01*
Y51002D01*
X58000Y51502D01*
X57500D01*
X57000Y51002D01*
X56501Y51502D01*
X56001D01*
X57000Y51002D02*
Y50002D01*
X73501Y101999D02*
X74001Y102499D01*
X75000D01*
X75500Y101999D01*
Y100000D01*
X75000Y99500D01*
X74001D01*
X73501Y100000D01*
X70502Y99500D02*
X72501D01*
X70502Y101499D01*
Y101999D01*
X71001Y102499D01*
X72001D01*
X72501Y101999D01*
X69502D02*
X69002Y102499D01*
X68002D01*
X67503Y101999D01*
Y101499D01*
X68002Y100999D01*
X68502D01*
X68002D01*
X67503Y100500D01*
Y100000D01*
X68002Y99500D01*
X69002D01*
X69502Y100000D01*
X63001Y124501D02*
X62501Y125001D01*
Y126000D01*
X63001Y126500D01*
X65000D01*
X65500Y126000D01*
Y125001D01*
X65000Y124501D01*
X65500Y121502D02*
Y123501D01*
X63501Y121502D01*
X63001D01*
X62501Y122001D01*
Y123001D01*
X63001Y123501D01*
X65500Y119002D02*
X62501D01*
X64000Y120502D01*
Y118503D01*
X81500Y135499D02*
Y132500D01*
Y133500D01*
X79501Y135499D01*
X81000Y134000D01*
X79501Y132500D01*
X78501D02*
X77501D01*
X78001D01*
Y135499D01*
X78501Y134999D01*
X17000Y134000D02*
Y136999D01*
X15500D01*
X15001Y136499D01*
Y135500D01*
X15500Y135000D01*
X17000D01*
X12002Y134000D02*
X14001D01*
X12002Y135999D01*
Y136499D01*
X12501Y136999D01*
X13501D01*
X14001Y136499D01*
X91500Y77000D02*
Y79999D01*
X90000D01*
X89501Y79499D01*
Y78500D01*
X90000Y78000D01*
X91500D01*
X88501Y79499D02*
X88001Y79999D01*
X87001D01*
X86502Y79499D01*
Y78999D01*
X87001Y78500D01*
X87501D01*
X87001D01*
X86502Y78000D01*
Y77500D01*
X87001Y77000D01*
X88001D01*
X88501Y77500D01*
X9000Y16500D02*
Y19499D01*
X7501D01*
X7001Y18999D01*
Y18000D01*
X7501Y17500D01*
X9000D01*
X4501Y16500D02*
Y19499D01*
X6001Y18000D01*
X4002D01*
X40000Y134000D02*
X37001D01*
Y132501D01*
X37501Y132001D01*
X38500D01*
X39000Y132501D01*
Y134000D01*
Y133000D02*
X40000Y132001D01*
X37001Y131001D02*
Y129002D01*
X37501D01*
X39500Y131001D01*
X40000D01*
X30500Y9000D02*
Y11999D01*
X29000D01*
X28501Y11499D01*
Y10499D01*
X29000Y10000D01*
X30500D01*
X29500D02*
X28501Y9000D01*
X27501Y9500D02*
X27001Y9000D01*
X26001D01*
X25502Y9500D01*
Y11499D01*
X26001Y11999D01*
X27001D01*
X27501Y11499D01*
Y10999D01*
X27001Y10499D01*
X25502D01*
X40000Y9000D02*
Y11999D01*
X38500D01*
X38001Y11499D01*
Y10499D01*
X38500Y10000D01*
X40000D01*
X39000D02*
X38001Y9000D01*
X37001D02*
X36001D01*
X36501D01*
Y11999D01*
X37001Y11499D01*
X34502D02*
X34002Y11999D01*
X33002D01*
X32502Y11499D01*
Y9500D01*
X33002Y9000D01*
X34002D01*
X34502Y9500D01*
Y11499D01*
X65500Y109000D02*
X62501D01*
Y107501D01*
X63001Y107001D01*
X64000D01*
X64500Y107501D01*
Y109000D01*
Y108000D02*
X65500Y107001D01*
Y106001D02*
Y105001D01*
Y105501D01*
X62501D01*
X63001Y106001D01*
Y103502D02*
X62501Y103002D01*
Y102002D01*
X63001Y101502D01*
X63501D01*
X64000Y102002D01*
Y102502D01*
Y102002D01*
X64500Y101502D01*
X65000D01*
X65500Y102002D01*
Y103002D01*
X65000Y103502D01*
X65500Y117500D02*
X62501D01*
Y116000D01*
X63001Y115501D01*
X64000D01*
X64500Y116000D01*
Y117500D01*
Y116500D02*
X65500Y115501D01*
Y114501D02*
Y113501D01*
Y114001D01*
X62501D01*
X63001Y114501D01*
X65500Y110502D02*
X62501D01*
X64000Y112002D01*
Y110002D01*
X9500Y57999D02*
Y55500D01*
X9000Y55000D01*
X8000D01*
X7501Y55500D01*
Y57999D01*
X4502D02*
X6501D01*
Y56499D01*
X5501Y56999D01*
X5001D01*
X4502Y56499D01*
Y55500D01*
X5001Y55000D01*
X6001D01*
X6501Y55500D01*
X119000Y108999D02*
Y106500D01*
X118500Y106000D01*
X117500D01*
X117001Y106500D01*
Y108999D01*
X116001Y106500D02*
X115501Y106000D01*
X114501D01*
X114002Y106500D01*
Y108499D01*
X114501Y108999D01*
X115501D01*
X116001Y108499D01*
Y107999D01*
X115501Y107500D01*
X114002D01*
X43000Y37999D02*
Y35500D01*
X42500Y35000D01*
X41500D01*
X41001Y35500D01*
Y37999D01*
X38501Y35000D02*
Y37999D01*
X40001Y36500D01*
X38002D01*
X25001Y76500D02*
X28000D01*
Y75001D01*
X27500Y74501D01*
X27000D01*
X26500Y75001D01*
Y76500D01*
Y75001D01*
X26001Y74501D01*
X25501D01*
X25001Y75001D01*
Y76500D01*
X28000Y73501D02*
X26001D01*
X25001Y72501D01*
X26001Y71502D01*
X28000D01*
X26500D01*
Y73501D01*
X25001Y70502D02*
Y68503D01*
Y69502D01*
X28000D01*
X26500Y67503D02*
Y65504D01*
X25501Y66503D02*
X27500D01*
X35001Y76500D02*
X38000D01*
Y75001D01*
X37500Y74501D01*
X37000D01*
X36500Y75001D01*
Y76500D01*
Y75001D01*
X36001Y74501D01*
X35501D01*
X35001Y75001D01*
Y76500D01*
X38000Y73501D02*
X36001D01*
X35001Y72501D01*
X36001Y71502D01*
X38000D01*
X36500D01*
Y73501D01*
X35001Y70502D02*
Y68503D01*
Y69502D01*
X38000D01*
X36500Y67503D02*
Y65504D01*
D62*
X28075Y40882D02*
G03*
X28075Y40882I-787J0D01*
G01*
D63*
X18500Y96000D02*
Y136000D01*
X23500D01*
X18500Y96000D02*
X23500D01*
X5167Y99333D02*
X18500D01*
X3500Y101000D02*
X5167Y99333D01*
X3500Y101000D02*
X5167Y102667D01*
X18500D01*
X5167Y109333D02*
X18500D01*
X3500Y111000D02*
X5167Y109333D01*
X3500Y111000D02*
X5167Y112667D01*
X18500D01*
X5167Y119333D02*
X18500D01*
X3500Y121000D02*
X5167Y119333D01*
X3500Y121000D02*
X5167Y122667D01*
X18500D01*
X5167Y129333D02*
X18500D01*
X3500Y131000D02*
X5167Y129333D01*
X3500Y131000D02*
X5167Y132667D01*
X18500D01*
X23500Y96000D02*
Y136000D01*
X42874Y91882D02*
Y93654D01*
Y100347D02*
Y102118D01*
X48681D01*
X42874Y91882D02*
X48681D01*
D64*
X122000Y35800D02*
X125200Y25700D01*
X115800Y71100D02*
X122000D01*
Y35700D02*
Y71100D01*
X125200Y12500D02*
Y25700D01*
X115900Y12500D02*
X125200D01*
X114200Y29901D02*
X115800Y31500D01*
X114200Y29599D02*
Y29901D01*
X113600Y31500D02*
X115800Y33700D01*
X113600Y33800D02*
X115800Y36000D01*
X113600Y33700D02*
Y33800D01*
Y36300D02*
X115800Y38500D01*
X113600Y35800D02*
Y36300D01*
X113700Y38900D02*
X115800Y41000D01*
X113600Y38900D02*
X113700D01*
X113600Y41300D02*
X115800Y43500D01*
X113600Y41200D02*
Y41300D01*
Y43900D02*
X115800Y46100D01*
X113600Y43500D02*
Y43900D01*
X113700Y46500D02*
X115800Y48600D01*
X113600Y46500D02*
X113700D01*
X113600Y48700D02*
X115800Y50900D01*
X113600Y48600D02*
Y48700D01*
Y51700D02*
X115500Y53600D01*
X115800D01*
X113800Y54500D02*
X115800Y56500D01*
X113600Y54500D02*
X113800D01*
X113700Y57000D02*
X115800Y59100D01*
X113600Y57000D02*
X113700D01*
X115800Y9100D02*
Y28000D01*
X113600Y30200D02*
X115800Y28000D01*
X113600Y30200D02*
Y59900D01*
X115800Y62100D01*
Y73900D01*
X62200Y75600D02*
X114100D01*
X60500Y73900D02*
X62200Y75600D01*
X60500Y10200D02*
Y73900D01*
Y10200D02*
X62000Y8700D01*
X115400D01*
X115800Y9100D01*
Y73900D01*
X114100Y75600D02*
X115800Y73900D01*
%TF.MD5,08724bec218503b67ebc152ababa9b80*%
M02*
