%TF.GenerationSoftware,Altium Limited,Altium Designer,20.0.13 (296)*%
G04 Layer_Color=255*
%FSLAX25Y25*%
%MOIN*%
%TF.FileFunction,Pads,Top*%
%TF.Part,Single*%
G01*
G75*
%TA.AperFunction,SMDPad,CuDef*%
%ADD10R,0.03150X0.02756*%
G04:AMPARAMS|DCode=11|XSize=7.87mil|YSize=27.56mil|CornerRadius=0mil|HoleSize=0mil|Usage=FLASHONLY|Rotation=45.000|XOffset=0mil|YOffset=0mil|HoleType=Round|Shape=Rectangle|*
%AMROTATEDRECTD11*
4,1,4,0.00696,-0.01253,-0.01253,0.00696,-0.00696,0.01253,0.01253,-0.00696,0.00696,-0.01253,0.0*
%
%ADD11ROTATEDRECTD11*%

G04:AMPARAMS|DCode=12|XSize=7.87mil|YSize=27.56mil|CornerRadius=0mil|HoleSize=0mil|Usage=FLASHONLY|Rotation=315.000|XOffset=0mil|YOffset=0mil|HoleType=Round|Shape=Rectangle|*
%AMROTATEDRECTD12*
4,1,4,-0.01253,-0.00696,0.00696,0.01253,0.01253,0.00696,-0.00696,-0.01253,-0.01253,-0.00696,0.0*
%
%ADD12ROTATEDRECTD12*%

%ADD13P,0.25055X4X360.0*%
%ADD14R,0.02756X0.03150*%
%ADD15R,0.05000X0.04000*%
%ADD16R,0.03937X0.07087*%
%ADD17R,0.01102X0.03091*%
%ADD18R,0.03091X0.01102*%
%ADD19R,0.01102X0.01831*%
%ADD20R,0.01831X0.01102*%
%ADD21R,0.03937X0.06299*%
%ADD22R,0.01968X0.03937*%
%ADD23R,0.03740X0.03543*%
%ADD24R,0.03740X0.03543*%
%ADD25R,0.03150X0.03150*%
%ADD26R,0.03543X0.04724*%
%ADD27R,0.03937X0.01968*%
%ADD28R,0.04724X0.03543*%
%ADD29R,0.03543X0.03740*%
%ADD30R,0.03543X0.03740*%
%ADD31R,0.01378X0.11811*%
%TA.AperFunction,ComponentPad*%
%ADD36R,0.05906X0.05906*%
%ADD37C,0.05906*%
%ADD38C,0.03937*%
%ADD39R,0.05906X0.03150*%
%ADD40O,0.07874X0.04724*%
D10*
X42500Y123453D02*
D03*
Y117547D02*
D03*
X52500Y123453D02*
D03*
Y117547D02*
D03*
X5671Y82063D02*
D03*
Y87968D02*
D03*
X29000Y23453D02*
D03*
Y17547D02*
D03*
X34500D02*
D03*
Y23453D02*
D03*
X51000Y24953D02*
D03*
Y19047D02*
D03*
X72000D02*
D03*
Y24953D02*
D03*
X78000D02*
D03*
Y19047D02*
D03*
X89500Y17953D02*
D03*
Y12047D02*
D03*
X121000Y16547D02*
D03*
Y22453D02*
D03*
X43500Y82453D02*
D03*
Y76547D02*
D03*
X83500D02*
D03*
Y82453D02*
D03*
D11*
X61412Y93837D02*
D03*
X60299Y92724D02*
D03*
X59185Y91610D02*
D03*
X58071Y90496D02*
D03*
X56958Y89383D02*
D03*
X55844Y88269D02*
D03*
X54731Y87156D02*
D03*
X53617Y86042D02*
D03*
X52504Y84929D02*
D03*
X51390Y83815D02*
D03*
X50276Y82701D02*
D03*
X49163Y81588D02*
D03*
X65588Y65163D02*
D03*
X66702Y66277D02*
D03*
X67815Y67390D02*
D03*
X68929Y68504D02*
D03*
X70042Y69617D02*
D03*
X71156Y70731D02*
D03*
X72269Y71844D02*
D03*
X73383Y72958D02*
D03*
X74496Y74071D02*
D03*
X75610Y75185D02*
D03*
X76723Y76298D02*
D03*
X77837Y77412D02*
D03*
D12*
X49163D02*
D03*
X50276Y76298D02*
D03*
X51390Y75185D02*
D03*
X52504Y74071D02*
D03*
X53617Y72958D02*
D03*
X54731Y71844D02*
D03*
X55844Y70731D02*
D03*
X56958Y69617D02*
D03*
X58071Y68504D02*
D03*
X59185Y67390D02*
D03*
X60299Y66277D02*
D03*
X61412Y65163D02*
D03*
X77837Y81588D02*
D03*
X76723Y82701D02*
D03*
X75610Y83815D02*
D03*
X74496Y84929D02*
D03*
X73383Y86042D02*
D03*
X72269Y87156D02*
D03*
X71156Y88269D02*
D03*
X70042Y89383D02*
D03*
X68929Y90496D02*
D03*
X67815Y91610D02*
D03*
X66702Y92724D02*
D03*
X65588Y93837D02*
D03*
D13*
X63500Y79500D02*
D03*
D14*
X60547Y104500D02*
D03*
X66453D02*
D03*
Y99000D02*
D03*
X60547D02*
D03*
X11124Y67516D02*
D03*
X5218D02*
D03*
Y73016D02*
D03*
X11124D02*
D03*
X32124Y87516D02*
D03*
X26219D02*
D03*
X32124Y82016D02*
D03*
X26219D02*
D03*
X28547Y66000D02*
D03*
X34453D02*
D03*
Y36000D02*
D03*
X28547D02*
D03*
X34453Y30500D02*
D03*
X28547D02*
D03*
X22453Y11500D02*
D03*
X16547D02*
D03*
X99547Y10500D02*
D03*
X105453D02*
D03*
X121453Y35500D02*
D03*
X115547D02*
D03*
X60547Y59500D02*
D03*
X66453D02*
D03*
D15*
X58382Y110000D02*
D03*
X68618D02*
D03*
X108618Y54500D02*
D03*
X98382D02*
D03*
Y48500D02*
D03*
X108618D02*
D03*
Y42500D02*
D03*
X98382D02*
D03*
X108618Y36500D02*
D03*
X98382D02*
D03*
D16*
X52421Y110500D02*
D03*
X42579D02*
D03*
D17*
X18624Y90498D02*
D03*
X16656D02*
D03*
X14687D02*
D03*
X12719D02*
D03*
Y79533D02*
D03*
X14687D02*
D03*
X16656D02*
D03*
X18624D02*
D03*
D18*
X11173Y86984D02*
D03*
Y85016D02*
D03*
Y83047D02*
D03*
X20169D02*
D03*
Y85016D02*
D03*
Y86984D02*
D03*
D19*
X22624Y73657D02*
D03*
X20656D02*
D03*
X18687D02*
D03*
X16718D02*
D03*
Y66374D02*
D03*
X18687D02*
D03*
X20656D02*
D03*
X22624D02*
D03*
D20*
X16000Y71000D02*
D03*
Y69031D02*
D03*
X23343D02*
D03*
Y71000D02*
D03*
D21*
X25594Y58500D02*
D03*
X37405D02*
D03*
D22*
X34980Y41500D02*
D03*
X27500D02*
D03*
X31240D02*
D03*
X27500Y50949D02*
D03*
X34980D02*
D03*
D23*
X14374Y20500D02*
D03*
X23626Y16760D02*
D03*
X66126Y22000D02*
D03*
X56874Y25740D02*
D03*
D24*
X23626Y24240D02*
D03*
X56874Y18260D02*
D03*
D25*
X89500Y23850D02*
D03*
Y30150D02*
D03*
D26*
X103043Y30000D02*
D03*
X95957D02*
D03*
D27*
X108000Y23480D02*
D03*
Y16000D02*
D03*
Y19740D02*
D03*
X98551Y16000D02*
D03*
Y23480D02*
D03*
D28*
X114500Y15957D02*
D03*
Y23043D02*
D03*
D29*
X118500Y51126D02*
D03*
X114760Y41874D02*
D03*
D30*
X122240Y41874D02*
D03*
D31*
X78658Y43500D02*
D03*
X75902D02*
D03*
X73146D02*
D03*
X70390D02*
D03*
X67634D02*
D03*
X64878D02*
D03*
X62122D02*
D03*
X59366D02*
D03*
X56610D02*
D03*
X53854D02*
D03*
X51098D02*
D03*
X48342D02*
D03*
D36*
X28500Y101000D02*
D03*
D37*
Y111000D02*
D03*
Y121000D02*
D03*
Y131000D02*
D03*
D38*
X108339Y61347D02*
D03*
Y29850D02*
D03*
D39*
X15606Y28453D02*
D03*
Y47547D02*
D03*
D40*
X5173Y23728D02*
D03*
Y52272D02*
D03*
%TF.MD5,020039a9f63e451343d4cae8962527e9*%
M02*
