%TF.GenerationSoftware,Altium Limited,Altium Designer,20.0.13 (296)*%
G04 Layer_Color=65535*
%FSLAX25Y25*%
%MOIN*%
%TF.FileFunction,Legend,Top*%
%TF.Part,Single*%
G01*
G75*
%TA.AperFunction,NonConductor*%
%ADD60C,0.01000*%
%ADD61C,0.00600*%
%ADD63C,0.00787*%
%ADD64C,0.00500*%
%ADD91C,0.00984*%
%ADD92C,0.00591*%
%ADD93C,0.00800*%
%ADD94C,0.00700*%
D60*
X22445Y55744D02*
G03*
X23626Y54563I1181J0D01*
G01*
Y62437D02*
G03*
X22445Y61256I0J-1181D01*
G01*
X40555D02*
G03*
X39374Y62437I-1181J0D01*
G01*
Y54563D02*
G03*
X40555Y55744I0J1181D01*
G01*
X62387Y94811D02*
X64613D01*
X46797Y79500D02*
X48189Y80892D01*
X46797Y79500D02*
X48189Y78108D01*
X62108Y64189D02*
X63500Y62797D01*
X64892Y64189D01*
X78811Y78108D02*
X80203Y79500D01*
X78811Y80892D02*
X80203Y79500D01*
X40555Y55744D02*
Y61256D01*
X23626Y62437D02*
X39374D01*
X22445Y55744D02*
Y61256D01*
X23626Y54563D02*
X39374D01*
X87138Y21488D02*
X91862D01*
X87138D02*
Y25032D01*
X91862Y21488D02*
Y25032D01*
X87138Y32512D02*
X91862D01*
Y28969D02*
Y32512D01*
X87138Y28969D02*
Y32512D01*
X1453Y6492D02*
Y139248D01*
X125547Y6492D02*
Y139248D01*
X1453Y6492D02*
X125547D01*
X1453Y139248D02*
X125547D01*
X41059Y6492D02*
Y49799D01*
X85941Y6492D02*
Y49799D01*
X41059D02*
X85941D01*
D61*
X40138Y116169D02*
G03*
X40925Y115382I787J0D01*
G01*
X44075D02*
G03*
X44862Y116169I0J787D01*
G01*
Y124831D02*
G03*
X44075Y125618I-787J0D01*
G01*
X40925D02*
G03*
X40138Y124831I0J-787D01*
G01*
X50138Y116169D02*
G03*
X50925Y115382I787J0D01*
G01*
X54075D02*
G03*
X54862Y116169I0J787D01*
G01*
Y124831D02*
G03*
X54075Y125618I-787J0D01*
G01*
X50925D02*
G03*
X50138Y124831I0J-787D01*
G01*
X67831Y102138D02*
G03*
X68618Y102925I0J787D01*
G01*
Y106075D02*
G03*
X67831Y106862I-787J0D01*
G01*
X59169D02*
G03*
X58382Y106075I0J-787D01*
G01*
Y102925D02*
G03*
X59169Y102138I787J0D01*
G01*
X59169Y101362D02*
G03*
X58382Y100575I0J-787D01*
G01*
Y97425D02*
G03*
X59169Y96638I787J0D01*
G01*
X67831D02*
G03*
X68618Y97425I0J787D01*
G01*
Y100575D02*
G03*
X67831Y101362I-787J0D01*
G01*
X8033Y89346D02*
G03*
X7246Y90134I-787J0D01*
G01*
X4096D02*
G03*
X3309Y89346I0J-787D01*
G01*
Y80685D02*
G03*
X4096Y79898I787J0D01*
G01*
X7246D02*
G03*
X8033Y80685I0J787D01*
G01*
X3841Y69878D02*
G03*
X3053Y69090I0J-787D01*
G01*
Y65941D02*
G03*
X3841Y65153I787J0D01*
G01*
X12502D02*
G03*
X13289Y65941I0J787D01*
G01*
Y69090D02*
G03*
X12502Y69878I-787J0D01*
G01*
X12502Y70653D02*
G03*
X13289Y71441I0J787D01*
G01*
Y74590D02*
G03*
X12502Y75378I-787J0D01*
G01*
X3841D02*
G03*
X3053Y74590I0J-787D01*
G01*
Y71441D02*
G03*
X3841Y70653I787J0D01*
G01*
X35831Y63638D02*
G03*
X36618Y64425I0J787D01*
G01*
Y67575D02*
G03*
X35831Y68362I-787J0D01*
G01*
X27169D02*
G03*
X26382Y67575I0J-787D01*
G01*
Y64425D02*
G03*
X27169Y63638I787J0D01*
G01*
X27169Y38362D02*
G03*
X26382Y37575I0J-787D01*
G01*
Y34425D02*
G03*
X27169Y33638I787J0D01*
G01*
X35831D02*
G03*
X36618Y34425I0J787D01*
G01*
Y37575D02*
G03*
X35831Y38362I-787J0D01*
G01*
X27169Y32862D02*
G03*
X26382Y32075I0J-787D01*
G01*
Y28925D02*
G03*
X27169Y28138I787J0D01*
G01*
X35831D02*
G03*
X36618Y28925I0J787D01*
G01*
Y32075D02*
G03*
X35831Y32862I-787J0D01*
G01*
X74362Y26331D02*
G03*
X73575Y27118I-787J0D01*
G01*
X70425D02*
G03*
X69638Y26331I0J-787D01*
G01*
Y17669D02*
G03*
X70425Y16882I787J0D01*
G01*
X73575D02*
G03*
X74362Y17669I0J787D01*
G01*
X123362Y23831D02*
G03*
X122575Y24618I-787J0D01*
G01*
X119425D02*
G03*
X118638Y23831I0J-787D01*
G01*
Y15169D02*
G03*
X119425Y14382I787J0D01*
G01*
X122575D02*
G03*
X123362Y15169I0J787D01*
G01*
X41138Y75169D02*
G03*
X41925Y74382I787J0D01*
G01*
X45075D02*
G03*
X45862Y75169I0J787D01*
G01*
Y83831D02*
G03*
X45075Y84618I-787J0D01*
G01*
X41925D02*
G03*
X41138Y83831I0J-787D01*
G01*
X85862Y83831D02*
G03*
X85075Y84618I-787J0D01*
G01*
X81925D02*
G03*
X81138Y83831I0J-787D01*
G01*
Y75169D02*
G03*
X81925Y74382I787J0D01*
G01*
X85075D02*
G03*
X85862Y75169I0J787D01*
G01*
X67831Y57138D02*
G03*
X68618Y57925I0J787D01*
G01*
Y61075D02*
G03*
X67831Y61862I-787J0D01*
G01*
X59169D02*
G03*
X58382Y61075I0J-787D01*
G01*
Y57925D02*
G03*
X59169Y57138I787J0D01*
G01*
X40138Y116169D02*
Y124831D01*
X44862Y116169D02*
Y124831D01*
X40925Y115382D02*
X44075D01*
X40925Y125618D02*
X44075D01*
X50138Y116169D02*
Y124831D01*
X54862Y116169D02*
Y124831D01*
X50925Y115382D02*
X54075D01*
X50925Y125618D02*
X54075D01*
X59169Y102138D02*
X67831D01*
X59169Y106862D02*
X67831D01*
X68618Y102925D02*
Y106075D01*
X58382Y102925D02*
Y106075D01*
X59169Y101362D02*
X67831D01*
X59169Y96638D02*
X67831D01*
X58382Y97425D02*
Y100575D01*
X68618Y97425D02*
Y100575D01*
X20893Y78810D02*
Y81746D01*
X19925Y78810D02*
X20893D01*
X10450D02*
Y81746D01*
Y78810D02*
X11417D01*
X20893Y88285D02*
Y91221D01*
X19925D02*
X20893D01*
X10450Y88285D02*
Y91221D01*
X11417D01*
X8033Y80685D02*
Y89346D01*
X3309Y80685D02*
Y89346D01*
X4096Y90134D02*
X7246D01*
X4096Y79898D02*
X7246D01*
X3841Y69878D02*
X12502D01*
X3841Y65153D02*
X12502D01*
X3053Y65941D02*
Y69090D01*
X13289Y65941D02*
Y69090D01*
X3841Y70653D02*
X12502D01*
X3841Y75378D02*
X12502D01*
X13289Y71441D02*
Y74590D01*
X3053Y71441D02*
Y74590D01*
X34289Y85154D02*
Y89878D01*
X24053Y85154D02*
Y89878D01*
X34289D01*
X24053Y85154D02*
X34289D01*
Y79654D02*
Y84378D01*
X24053Y79654D02*
Y84378D01*
X34289D01*
X24053Y79654D02*
X34289D01*
X27169Y63638D02*
X35831D01*
X27169Y68362D02*
X35831D01*
X36618Y64425D02*
Y67575D01*
X26382Y64425D02*
Y67575D01*
X27169Y38362D02*
X35831D01*
X27169Y33638D02*
X35831D01*
X26382Y34425D02*
Y37575D01*
X36618Y34425D02*
Y37575D01*
X27169Y32862D02*
X35831D01*
X27169Y28138D02*
X35831D01*
X26382Y28925D02*
Y32075D01*
X36618Y28925D02*
Y32075D01*
X26638Y25618D02*
X31362D01*
X26638Y15382D02*
X31362D01*
X26638D02*
Y25618D01*
X31362Y15382D02*
Y25618D01*
X32138Y15382D02*
X36862D01*
X32138Y25618D02*
X36862D01*
Y15382D02*
Y25618D01*
X32138Y15382D02*
Y25618D01*
X24618Y9138D02*
Y13862D01*
X14382Y9138D02*
Y13862D01*
X24618D01*
X14382Y9138D02*
X24618D01*
X48638Y27118D02*
X53362D01*
X48638Y16882D02*
X53362D01*
X48638D02*
Y27118D01*
X53362Y16882D02*
Y27118D01*
X74362Y17669D02*
Y26331D01*
X69638Y17669D02*
Y26331D01*
X70425Y27118D02*
X73575D01*
X70425Y16882D02*
X73575D01*
X75638Y27118D02*
X80362D01*
X75638Y16882D02*
X80362D01*
X75638D02*
Y27118D01*
X80362Y16882D02*
Y27118D01*
X87138Y20118D02*
X91862D01*
X87138Y9882D02*
X91862D01*
X87138D02*
Y20118D01*
X91862Y9882D02*
Y20118D01*
X87532Y27984D02*
X91469D01*
X87532D02*
X89500Y26016D01*
X91469Y27984D01*
X87532Y26016D02*
X91469D01*
X97382Y8138D02*
Y12862D01*
X107618Y8138D02*
Y12862D01*
X97382Y8138D02*
X107618D01*
X97382Y12862D02*
X107618D01*
X123362Y15169D02*
Y23831D01*
X118638Y15169D02*
Y23831D01*
X119425Y24618D02*
X122575D01*
X119425Y14382D02*
X122575D01*
X123618Y33138D02*
Y37862D01*
X113382Y33138D02*
Y37862D01*
X123618D01*
X113382Y33138D02*
X123618D01*
X41138Y75169D02*
Y83831D01*
X45862Y75169D02*
Y83831D01*
X41925Y74382D02*
X45075D01*
X41925Y84618D02*
X45075D01*
X85862Y75169D02*
Y83831D01*
X81138Y75169D02*
Y83831D01*
X81925Y84618D02*
X85075D01*
X81925Y74382D02*
X85075D01*
X59169Y57138D02*
X67831D01*
X59169Y61862D02*
X67831D01*
X68618Y57925D02*
Y61075D01*
X58382Y57925D02*
Y61075D01*
X44500Y11499D02*
X46499D01*
Y10999D01*
X44500Y9000D01*
Y8500D01*
X46499D01*
X49498Y11499D02*
X48499D01*
X48999D01*
Y9000D01*
X48499Y8500D01*
X47999D01*
X47499Y9000D01*
X50498Y11499D02*
Y10999D01*
X51498Y10000D01*
X52497Y10999D01*
Y11499D01*
X51498Y10000D02*
Y8500D01*
X53497D02*
X54497D01*
X53997D01*
Y11499D01*
X53497Y10999D01*
X57996Y11499D02*
X55996D01*
Y10000D01*
X56996Y10499D01*
X57496D01*
X57996Y10000D01*
Y9000D01*
X57496Y8500D01*
X56496D01*
X55996Y9000D01*
X60495Y8500D02*
Y11499D01*
X58995Y10000D01*
X60995D01*
X61994Y11499D02*
X63994D01*
X62994D01*
Y8500D01*
X64993Y10000D02*
X66993D01*
X67992Y8500D02*
Y11499D01*
X69492D01*
X69992Y10999D01*
Y10000D01*
X69492Y9500D01*
X67992D01*
X72991Y10999D02*
X72491Y11499D01*
X71491D01*
X70991Y10999D01*
Y9000D01*
X71491Y8500D01*
X72491D01*
X72991Y9000D01*
Y10000D01*
X71991D01*
X73990Y10999D02*
X74490Y11499D01*
X75490D01*
X75990Y10999D01*
Y9000D01*
X75490Y8500D01*
X74490D01*
X73990Y9000D01*
Y10999D01*
X78489Y8500D02*
Y11499D01*
X76990Y10000D01*
X78989D01*
X115999Y11999D02*
X115499Y12499D01*
X114500D01*
X114000Y11999D01*
Y10000D01*
X114500Y9500D01*
X115499D01*
X115999Y10000D01*
X116999Y9500D02*
X117999D01*
X117499D01*
Y12499D01*
X116999Y11999D01*
X120999Y12999D02*
X120500Y13499D01*
X119500D01*
X119000Y12999D01*
Y11000D01*
X119500Y10500D01*
X120500D01*
X120999Y11000D01*
X123998Y10500D02*
X121999D01*
X123998Y12499D01*
Y12999D01*
X123499Y13499D01*
X122499D01*
X121999Y12999D01*
X91501Y35999D02*
X91001Y35500D01*
Y34500D01*
X91501Y34000D01*
X93500D01*
X94000Y34500D01*
Y35500D01*
X93500Y35999D01*
X91501Y36999D02*
X91001Y37499D01*
Y38499D01*
X91501Y38998D01*
X92001D01*
X92501Y38499D01*
Y37999D01*
Y38499D01*
X93000Y38998D01*
X93500D01*
X94000Y38499D01*
Y37499D01*
X93500Y36999D01*
X22499Y31499D02*
X22000Y31999D01*
X21000D01*
X20500Y31499D01*
Y29500D01*
X21000Y29000D01*
X22000D01*
X22499Y29500D01*
X24999Y29000D02*
Y31999D01*
X23499Y30500D01*
X25498D01*
X21999Y36999D02*
X21499Y37499D01*
X20500D01*
X20000Y36999D01*
Y35000D01*
X20500Y34500D01*
X21499D01*
X21999Y35000D01*
X24998Y37499D02*
X22999D01*
Y36000D01*
X23999Y36499D01*
X24499D01*
X24998Y36000D01*
Y35000D01*
X24499Y34500D01*
X23499D01*
X22999Y35000D01*
X17999Y58499D02*
X17500Y58999D01*
X16500D01*
X16000Y58499D01*
Y56500D01*
X16500Y56000D01*
X17500D01*
X17999Y56500D01*
X20998Y58999D02*
X19999Y58499D01*
X18999Y57499D01*
Y56500D01*
X19499Y56000D01*
X20499D01*
X20998Y56500D01*
Y57000D01*
X20499Y57499D01*
X18999D01*
X30499Y71999D02*
X30000Y72499D01*
X29000D01*
X28500Y71999D01*
Y70000D01*
X29000Y69500D01*
X30000D01*
X30499Y70000D01*
X31499Y72499D02*
X33498D01*
Y71999D01*
X31499Y70000D01*
Y69500D01*
X53999Y105499D02*
X53500Y105999D01*
X52500D01*
X52000Y105499D01*
Y103500D01*
X52500Y103000D01*
X53500D01*
X53999Y103500D01*
X54999Y105499D02*
X55499Y105999D01*
X56499D01*
X56998Y105499D01*
Y104999D01*
X56499Y104499D01*
X56998Y104000D01*
Y103500D01*
X56499Y103000D01*
X55499D01*
X54999Y103500D01*
Y104000D01*
X55499Y104499D01*
X54999Y104999D01*
Y105499D01*
X55499Y104499D02*
X56499D01*
X82999Y87999D02*
X82499Y88499D01*
X81500D01*
X81000Y87999D01*
Y86000D01*
X81500Y85500D01*
X82499D01*
X82999Y86000D01*
X83999D02*
X84499Y85500D01*
X85499D01*
X85998Y86000D01*
Y87999D01*
X85499Y88499D01*
X84499D01*
X83999Y87999D01*
Y87499D01*
X84499Y86999D01*
X85998D01*
X51999Y99999D02*
X51499Y100499D01*
X50500D01*
X50000Y99999D01*
Y98000D01*
X50500Y97500D01*
X51499D01*
X51999Y98000D01*
X52999Y97500D02*
X53999D01*
X53499D01*
Y100499D01*
X52999Y99999D01*
X55498D02*
X55998Y100499D01*
X56998D01*
X57498Y99999D01*
Y98000D01*
X56998Y97500D01*
X55998D01*
X55498Y98000D01*
Y99999D01*
X62999Y55999D02*
X62499Y56499D01*
X61500D01*
X61000Y55999D01*
Y54000D01*
X61500Y53500D01*
X62499D01*
X62999Y54000D01*
X63999Y53500D02*
X64999D01*
X64499D01*
Y56499D01*
X63999Y55999D01*
X66498Y53500D02*
X67498D01*
X66998D01*
Y56499D01*
X66498Y55999D01*
X37501Y78499D02*
X37001Y78000D01*
Y77000D01*
X37501Y76500D01*
X39500D01*
X40000Y77000D01*
Y78000D01*
X39500Y78499D01*
X40000Y79499D02*
Y80499D01*
Y79999D01*
X37001D01*
X37501Y79499D01*
X40000Y83998D02*
Y81998D01*
X38001Y83998D01*
X37501D01*
X37001Y83498D01*
Y82498D01*
X37501Y81998D01*
X51501Y128999D02*
X51001Y128499D01*
Y127500D01*
X51501Y127000D01*
X53500D01*
X54000Y127500D01*
Y128499D01*
X53500Y128999D01*
X54000Y129999D02*
Y130999D01*
Y130499D01*
X51001D01*
X51501Y129999D01*
X54000Y133998D02*
X51001D01*
X52500Y132498D01*
Y134498D01*
X41501Y128999D02*
X41001Y128499D01*
Y127500D01*
X41501Y127000D01*
X43500D01*
X44000Y127500D01*
Y128499D01*
X43500Y128999D01*
X44000Y129999D02*
Y130999D01*
Y130499D01*
X41001D01*
X41501Y129999D01*
X41001Y134498D02*
Y132498D01*
X42500D01*
X42001Y133498D01*
Y133998D01*
X42500Y134498D01*
X43500D01*
X44000Y133998D01*
Y132998D01*
X43500Y132498D01*
X6499Y63499D02*
X5999Y63999D01*
X5000D01*
X4500Y63499D01*
Y61500D01*
X5000Y61000D01*
X5999D01*
X6499Y61500D01*
X7499Y61000D02*
X8499D01*
X7999D01*
Y63999D01*
X7499Y63499D01*
X9998Y61500D02*
X10498Y61000D01*
X11498D01*
X11998Y61500D01*
Y63499D01*
X11498Y63999D01*
X10498D01*
X9998Y63499D01*
Y62999D01*
X10498Y62499D01*
X11998D01*
X4499Y78499D02*
X3999Y78999D01*
X3000D01*
X2500Y78499D01*
Y76500D01*
X3000Y76000D01*
X3999D01*
X4499Y76500D01*
X7498Y76000D02*
X5499D01*
X7498Y77999D01*
Y78499D01*
X6999Y78999D01*
X5999D01*
X5499Y78499D01*
X8498D02*
X8998Y78999D01*
X9998D01*
X10497Y78499D01*
Y76500D01*
X9998Y76000D01*
X8998D01*
X8498Y76500D01*
Y78499D01*
X4501Y93999D02*
X4001Y93499D01*
Y92500D01*
X4501Y92000D01*
X6500D01*
X7000Y92500D01*
Y93499D01*
X6500Y93999D01*
X7000Y96998D02*
Y94999D01*
X5001Y96998D01*
X4501D01*
X4001Y96499D01*
Y95499D01*
X4501Y94999D01*
X7000Y97998D02*
Y98998D01*
Y98498D01*
X4001D01*
X4501Y97998D01*
X70501Y30499D02*
X70001Y30000D01*
Y29000D01*
X70501Y28500D01*
X72500D01*
X73000Y29000D01*
Y30000D01*
X72500Y30499D01*
X73000Y33498D02*
Y31499D01*
X71001Y33498D01*
X70501D01*
X70001Y32999D01*
Y31999D01*
X70501Y31499D01*
X73000Y36497D02*
Y34498D01*
X71001Y36497D01*
X70501D01*
X70001Y35998D01*
Y34998D01*
X70501Y34498D01*
X87001Y34000D02*
X90000D01*
Y35500D01*
X89500Y35999D01*
X87501D01*
X87001Y35500D01*
Y34000D01*
X90000Y36999D02*
Y37999D01*
Y37499D01*
X87001D01*
X87501Y36999D01*
X90000Y50499D02*
Y47500D01*
X91500D01*
X91999Y48000D01*
Y49999D01*
X91500Y50499D01*
X90000D01*
X94998Y47500D02*
X92999D01*
X94998Y49499D01*
Y49999D01*
X94499Y50499D01*
X93499D01*
X92999Y49999D01*
X90000Y56499D02*
Y53500D01*
X91500D01*
X91999Y54000D01*
Y55999D01*
X91500Y56499D01*
X90000D01*
X92999Y55999D02*
X93499Y56499D01*
X94499D01*
X94998Y55999D01*
Y55499D01*
X94499Y55000D01*
X93999D01*
X94499D01*
X94998Y54500D01*
Y54000D01*
X94499Y53500D01*
X93499D01*
X92999Y54000D01*
X110001Y29000D02*
X113000D01*
Y30500D01*
X112500Y30999D01*
X110501D01*
X110001Y30500D01*
Y29000D01*
X113000Y33499D02*
X110001D01*
X111501Y31999D01*
Y33998D01*
X90000Y43999D02*
Y41000D01*
X91500D01*
X91999Y41500D01*
Y43499D01*
X91500Y43999D01*
X90000D01*
X94998D02*
X92999D01*
Y42500D01*
X93999Y42999D01*
X94499D01*
X94998Y42500D01*
Y41500D01*
X94499Y41000D01*
X93499D01*
X92999Y41500D01*
X60500Y116499D02*
Y113500D01*
X61999D01*
X62499Y114000D01*
Y115999D01*
X61999Y116499D01*
X60500D01*
X65498D02*
X64499Y115999D01*
X63499Y114999D01*
Y114000D01*
X63999Y113500D01*
X64999D01*
X65498Y114000D01*
Y114500D01*
X64999Y114999D01*
X63499D01*
X10999Y15500D02*
Y17499D01*
X10499Y17999D01*
X9500D01*
X9000Y17499D01*
Y15500D01*
X9500Y15000D01*
X10499D01*
X10000Y16000D02*
X10999Y15000D01*
X10499D02*
X10999Y15500D01*
X11999Y15000D02*
X12999D01*
X12499D01*
Y17999D01*
X11999Y17499D01*
X108500Y8700D02*
Y11699D01*
X110000D01*
X110499Y11199D01*
Y10199D01*
X110000Y9700D01*
X108500D01*
X109500D02*
X110499Y8700D01*
X111499D02*
X112499D01*
X111999D01*
Y11699D01*
X111499Y11199D01*
X95500Y14000D02*
X92501D01*
Y15499D01*
X93001Y15999D01*
X94001D01*
X94500Y15499D01*
Y14000D01*
Y15000D02*
X95500Y15999D01*
Y18998D02*
Y16999D01*
X93501Y18998D01*
X93001D01*
X92501Y18499D01*
Y17499D01*
X93001Y16999D01*
X26500Y11500D02*
Y14499D01*
X27999D01*
X28499Y13999D01*
Y13000D01*
X27999Y12500D01*
X26500D01*
X27500D02*
X28499Y11500D01*
X29499Y13999D02*
X29999Y14499D01*
X30999D01*
X31498Y13999D01*
Y13499D01*
X30999Y13000D01*
X30499D01*
X30999D01*
X31498Y12500D01*
Y12000D01*
X30999Y11500D01*
X29999D01*
X29499Y12000D01*
X8000Y9500D02*
Y12499D01*
X9499D01*
X9999Y11999D01*
Y11000D01*
X9499Y10500D01*
X8000D01*
X9000D02*
X9999Y9500D01*
X12499D02*
Y12499D01*
X10999Y11000D01*
X12998D01*
X32500Y11500D02*
Y14499D01*
X33999D01*
X34499Y13999D01*
Y13000D01*
X33999Y12500D01*
X32500D01*
X33500D02*
X34499Y11500D01*
X37498Y14499D02*
X35499D01*
Y13000D01*
X36499Y13499D01*
X36999D01*
X37498Y13000D01*
Y12000D01*
X36999Y11500D01*
X35999D01*
X35499Y12000D01*
X116500Y29000D02*
Y31999D01*
X117999D01*
X118499Y31499D01*
Y30500D01*
X117999Y30000D01*
X116500D01*
X117500D02*
X118499Y29000D01*
X121498Y31999D02*
X120499Y31499D01*
X119499Y30500D01*
Y29500D01*
X119999Y29000D01*
X120999D01*
X121498Y29500D01*
Y30000D01*
X120999Y30500D01*
X119499D01*
X27000Y75500D02*
Y78499D01*
X28499D01*
X28999Y77999D01*
Y76999D01*
X28499Y76500D01*
X27000D01*
X28000D02*
X28999Y75500D01*
X29999Y77999D02*
X30499Y78499D01*
X31499D01*
X31998Y77999D01*
Y77499D01*
X31499Y76999D01*
X31998Y76500D01*
Y76000D01*
X31499Y75500D01*
X30499D01*
X29999Y76000D01*
Y76500D01*
X30499Y76999D01*
X29999Y77499D01*
Y77999D01*
X30499Y76999D02*
X31499D01*
X26000Y92000D02*
Y94999D01*
X27499D01*
X27999Y94499D01*
Y93499D01*
X27499Y93000D01*
X26000D01*
X27000D02*
X27999Y92000D01*
X28999D02*
X29999D01*
X29499D01*
Y94999D01*
X28999Y94499D01*
X31498Y92000D02*
X32498D01*
X31998D01*
Y94999D01*
X31498Y94499D01*
X79500Y28000D02*
X76501D01*
Y29500D01*
X77001Y29999D01*
X78000D01*
X78500Y29500D01*
Y28000D01*
Y29000D02*
X79500Y29999D01*
Y30999D02*
Y31999D01*
Y31499D01*
X76501D01*
X77001Y30999D01*
X79500Y35498D02*
Y33498D01*
X77501Y35498D01*
X77001D01*
X76501Y34998D01*
Y33998D01*
X77001Y33498D01*
X49500Y28000D02*
X46501D01*
Y29500D01*
X47001Y29999D01*
X48000D01*
X48500Y29500D01*
Y28000D01*
Y29000D02*
X49500Y29999D01*
Y30999D02*
Y31999D01*
Y31499D01*
X46501D01*
X47001Y30999D01*
X46501Y35498D02*
Y33498D01*
X48000D01*
X47501Y34498D01*
Y34998D01*
X48000Y35498D01*
X49000D01*
X49500Y34998D01*
Y33998D01*
X49000Y33498D01*
X101000Y20999D02*
Y18500D01*
X101500Y18000D01*
X102499D01*
X102999Y18500D01*
Y20999D01*
X103999Y18000D02*
X104999D01*
X104499D01*
Y20999D01*
X103999Y20499D01*
X19000Y46999D02*
Y44500D01*
X19500Y44000D01*
X20500D01*
X20999Y44500D01*
Y46999D01*
X23998Y44000D02*
X21999D01*
X23998Y45999D01*
Y46499D01*
X23499Y46999D01*
X22499D01*
X21999Y46499D01*
X49000Y93499D02*
Y91000D01*
X49500Y90500D01*
X50499D01*
X50999Y91000D01*
Y93499D01*
X51999Y92999D02*
X52499Y93499D01*
X53499D01*
X53998Y92999D01*
Y92499D01*
X53499Y92000D01*
X52999D01*
X53499D01*
X53998Y91500D01*
Y91000D01*
X53499Y90500D01*
X52499D01*
X51999Y91000D01*
X15500Y63499D02*
Y61000D01*
X16000Y60500D01*
X16999D01*
X17499Y61000D01*
Y63499D01*
X20498D02*
X19499Y62999D01*
X18499Y61999D01*
Y61000D01*
X18999Y60500D01*
X19999D01*
X20498Y61000D01*
Y61500D01*
X19999Y61999D01*
X18499D01*
X14000Y96999D02*
Y94500D01*
X14500Y94000D01*
X15499D01*
X15999Y94500D01*
Y96999D01*
X16999D02*
X18998D01*
Y96499D01*
X16999Y94500D01*
Y94000D01*
X4500Y136999D02*
Y134500D01*
X5000Y134000D01*
X5999D01*
X6499Y134500D01*
Y136999D01*
X7499Y136499D02*
X7999Y136999D01*
X8999D01*
X9498Y136499D01*
Y135999D01*
X8999Y135500D01*
X9498Y135000D01*
Y134500D01*
X8999Y134000D01*
X7999D01*
X7499Y134500D01*
Y135000D01*
X7999Y135500D01*
X7499Y135999D01*
Y136499D01*
X7999Y135500D02*
X8999D01*
X46000Y105499D02*
Y104999D01*
X47000Y103999D01*
X47999Y104999D01*
Y105499D01*
X47000Y103999D02*
Y102500D01*
X48999D02*
X49999D01*
X49499D01*
Y105499D01*
X48999Y104999D01*
X118499Y54500D02*
Y56499D01*
X117999Y56999D01*
X117000D01*
X116500Y56499D01*
Y54500D01*
X117000Y54000D01*
X117999D01*
X117500Y55000D02*
X118499Y54000D01*
X117999D02*
X118499Y54500D01*
X121498Y54000D02*
X119499D01*
X121498Y55999D01*
Y56499D01*
X120999Y56999D01*
X119999D01*
X119499Y56499D01*
X61500Y30999D02*
X59501D01*
X59001Y30500D01*
Y29500D01*
X59501Y29000D01*
X61500D01*
X62000Y29500D01*
Y30500D01*
X61000Y30000D02*
X62000Y30999D01*
Y30500D02*
X61500Y30999D01*
X59501Y31999D02*
X59001Y32499D01*
Y33499D01*
X59501Y33998D01*
X60001D01*
X60501Y33499D01*
Y32999D01*
Y33499D01*
X61000Y33998D01*
X61500D01*
X62000Y33499D01*
Y32499D01*
X61500Y31999D01*
D63*
X45138Y107547D02*
X49862D01*
X45138Y113453D02*
X49862D01*
X14374Y25618D02*
X20181D01*
X14374Y15382D02*
X20181D01*
X14374D02*
Y17154D01*
Y23846D02*
Y25618D01*
X60319Y16882D02*
X66126D01*
X60319Y27118D02*
X66126D01*
Y25346D02*
Y27118D01*
Y16882D02*
Y18654D01*
X123618Y45319D02*
Y51126D01*
X113382Y45319D02*
Y51126D01*
X115154D01*
X121846D02*
X123618D01*
D64*
X62500Y110000D02*
X64500Y108000D01*
X62500Y110000D02*
X64500Y112000D01*
Y108000D02*
Y112000D01*
X62500Y108000D02*
Y112000D01*
X64500Y110000D02*
X65800D01*
X61200D02*
X62500D01*
X102500Y56500D02*
X104500Y54500D01*
X102500Y52500D02*
X104500Y54500D01*
X102500Y52500D02*
Y56500D01*
X104500Y52500D02*
Y56500D01*
X101200Y54500D02*
X102500D01*
X104500D02*
X105800D01*
X102500Y48500D02*
X104500Y46500D01*
X102500Y48500D02*
X104500Y50500D01*
Y46500D02*
Y50500D01*
X102500Y46500D02*
Y50500D01*
X104500Y48500D02*
X105800D01*
X101200D02*
X102500D01*
Y44500D02*
X104500Y42500D01*
X102500Y40500D02*
X104500Y42500D01*
X102500Y40500D02*
Y44500D01*
X104500Y40500D02*
Y44500D01*
X101200Y42500D02*
X102500D01*
X104500D02*
X105800D01*
X102500Y38500D02*
X104500Y36500D01*
X102500Y34500D02*
X104500Y36500D01*
X102500Y34500D02*
Y38500D01*
X104500Y34500D02*
Y38500D01*
X101200Y36500D02*
X102500D01*
X104500D02*
X105800D01*
D91*
X59677Y96064D02*
G03*
X59677Y96064I-492J0D01*
G01*
D92*
X18919Y93225D02*
G03*
X18919Y93225I-295J0D01*
G01*
X22919Y75754D02*
G03*
X22919Y75754I-295J0D01*
G01*
D93*
X93201Y28032D02*
G03*
X94382Y26850I1181J0D01*
G01*
X94382Y33150D02*
G03*
X93201Y31969I0J-1181D01*
G01*
X105799Y31969D02*
G03*
X104618Y33150I-1181J0D01*
G01*
X104618Y26850D02*
G03*
X105799Y28032I0J1181D01*
G01*
X112531Y25799D02*
G03*
X111350Y24618I0J-1181D01*
G01*
X117650Y24618D02*
G03*
X116469Y25799I-1181J0D01*
G01*
X116469Y13201D02*
G03*
X117650Y14382I0J1181D01*
G01*
X111350Y14382D02*
G03*
X112531Y13201I1181J0D01*
G01*
X94382Y26850D02*
X104618D01*
X93201Y28032D02*
Y31969D01*
X94382Y33150D02*
X104618D01*
X105799Y28032D02*
Y31969D01*
X111350Y14382D02*
Y24618D01*
X112531Y25799D02*
X116469D01*
X117650Y14382D02*
Y24618D01*
X112531Y13201D02*
X116469D01*
D94*
X25335Y43075D02*
X37146D01*
X25335Y49374D02*
X37146D01*
Y43075D02*
Y49374D01*
X25335Y43075D02*
Y49374D01*
X106425Y13835D02*
Y25646D01*
X100126Y13835D02*
Y25646D01*
X106425D01*
X100126Y13835D02*
X106425D01*
%TF.MD5,d1b6d08a27f0547a7bd1a00a9ade854b*%
M02*
